{"glyphs":{"0":{"ha":1031,"x_min":53,"x_max":975,"o":"m 53 372 q 96 582 53 475 q 212 776 139 689 q 393 919 285 864 q 622 975 501 975 q 888 863 800 975 q 975 578 975 751 q 956 414 975 496 q 896 255 938 332 q 795 118 854 178 q 649 22 736 58 q 458 -14 563 -14 q 163 94 272 -14 q 53 372 53 203 m 276 392 q 331 230 276 290 q 472 169 385 169 q 642 238 564 169 q 760 399 719 306 q 800 578 800 492 q 751 727 800 669 q 607 785 701 785 q 432 722 510 785 q 315 569 354 658 q 276 392 276 481 z "},"1":{"ha":522,"x_min":44,"x_max":464,"o":"m 44 789 q 54 864 44 844 q 132 936 72 901 q 293 971 192 971 q 369 958 342 971 q 389 676 389 918 q 369 207 389 333 q 393 208 378 208 q 460 193 429 208 q 464 168 464 186 q 453 83 464 131 q 426 19 443 36 q 392 5 415 8 q 304 1 369 1 q 148 9 189 1 q 94 39 107 17 q 85 113 85 57 q 93 196 85 183 l 171 208 q 203 213 199 213 q 186 492 186 353 q 203 760 186 626 q 53 707 139 715 q 44 789 44 715 z "},"2":{"ha":899,"x_min":47,"x_max":844,"o":"m 47 6 q 59 124 47 61 q 100 259 71 188 q 173 389 129 331 q 288 490 217 447 q 446 543 358 533 q 531 553 501 549 q 591 569 560 558 q 635 600 622 581 q 649 649 649 619 q 583 771 649 717 q 424 825 517 825 q 268 747 310 825 q 260 701 268 722 q 157 686 238 686 q 142 687 149 686 q 132 688 135 688 q 75 844 75 700 q 83 942 75 917 q 135 957 94 950 q 211 964 175 964 q 247 958 242 964 q 257 949 254 953 q 261 944 260 946 q 264 935 263 942 q 268 922 265 929 q 490 986 369 986 q 735 887 643 986 q 826 650 826 788 q 521 390 826 417 q 461 385 485 388 q 399 370 438 382 q 338 342 361 358 q 297 292 315 325 q 279 215 279 260 q 282 178 279 192 q 515 158 376 158 q 663 186 592 158 q 661 196 661 190 q 664 210 661 203 q 672 226 667 217 q 681 240 678 236 q 744 254 704 254 q 807 240 783 254 q 844 136 844 219 q 835 43 844 83 q 817 -11 825 3 q 804 -28 808 -25 q 719 -35 769 -35 q 647 -21 651 -35 q 633 40 635 29 q 428 -1 583 -1 q 240 7 390 -1 q 229 -18 239 -15 q 131 -35 217 -35 q 49 -28 69 -35 q 47 6 47 -18 z "},"3":{"ha":769,"x_min":8,"x_max":704,"o":"m 8 165 q 11 183 8 172 q 70 240 17 206 q 214 296 124 274 q 260 250 236 286 q 286 190 285 214 q 281 183 286 186 q 267 176 275 181 q 256 167 260 171 q 349 136 294 136 q 472 182 417 136 q 528 294 528 228 q 464 407 528 358 q 431 403 447 403 q 392 410 408 403 q 360 519 360 450 q 376 601 360 569 q 422 615 390 615 q 458 613 435 615 q 482 610 481 610 q 544 697 544 644 q 503 773 544 740 q 407 806 463 806 q 329 786 367 806 l 338 756 q 306 735 333 744 q 261 726 279 726 q 194 785 226 726 q 157 886 161 843 q 199 928 168 907 q 264 950 231 949 l 275 939 q 401 958 336 958 q 609 899 521 958 q 697 724 697 839 q 582 492 697 594 q 704 283 704 403 q 588 67 704 163 q 331 -29 471 -29 q 100 78 189 -29 q 61 63 69 63 q 8 165 8 113 z "},"4":{"ha":783,"x_min":18,"x_max":725,"o":"m 18 481 q 21 517 18 503 q 31 544 24 531 q 40 565 38 558 q 397 939 164 804 q 519 971 465 971 q 619 953 561 971 q 639 663 639 890 q 638 529 639 560 q 652 530 642 529 q 668 531 663 531 q 697 528 683 531 q 718 458 718 497 q 706 394 718 419 q 665 388 703 388 q 632 389 644 388 q 639 308 639 340 q 619 188 639 221 q 650 190 631 190 q 707 176 683 190 q 725 93 725 154 q 708 11 725 24 q 500 -6 642 -6 q 350 15 361 -6 q 333 92 333 35 q 358 176 333 153 q 467 193 393 193 q 458 306 458 238 q 465 386 458 363 q 424 384 453 386 q 351 381 396 382 q 236 379 306 379 q 26 389 65 379 q 18 481 18 404 m 158 524 q 372 526 203 526 q 461 522 425 526 q 467 824 461 710 q 303 676 418 786 q 158 524 189 565 z "},"5":{"ha":881,"x_min":67,"x_max":826,"o":"m 67 167 q 83 294 67 250 q 172 303 125 303 q 279 289 244 303 q 288 229 288 268 q 481 151 361 151 q 604 192 556 151 q 653 301 653 233 q 593 404 653 376 q 422 432 533 432 q 264 424 364 432 q 135 417 164 417 q 89 726 89 536 q 107 981 89 851 q 217 1001 142 1001 q 332 981 317 1001 q 343 942 340 979 q 457 950 376 950 q 611 936 560 950 q 624 994 614 971 q 710 1011 656 1011 q 768 1004 743 1011 q 781 990 774 1000 q 799 944 789 981 q 808 856 808 907 q 772 736 808 757 q 694 722 747 722 q 617 731 646 722 q 608 767 608 747 q 613 797 608 783 q 458 817 582 817 q 272 806 306 817 q 253 726 253 779 q 262 650 253 699 q 286 596 271 601 l 300 597 l 333 597 l 371 597 q 601 575 507 597 q 742 512 694 553 q 808 426 789 471 q 826 326 826 382 q 722 82 826 181 q 482 -17 617 -17 q 288 54 372 -17 q 244 3 278 29 q 175 -6 224 -6 q 89 7 119 -6 q 67 167 67 58 z "},"6":{"ha":900,"x_min":56,"x_max":843,"o":"m 56 492 q 99 731 56 621 q 237 915 143 842 q 460 988 331 988 q 667 936 564 988 q 672 945 668 938 q 679 959 675 953 q 685 965 683 965 q 725 971 701 971 q 791 960 758 971 q 835 935 824 950 q 838 908 838 921 q 807 801 838 861 q 742 721 776 740 q 721 719 735 719 q 648 733 692 719 q 590 757 604 746 q 586 779 586 767 q 596 815 586 806 q 483 842 538 842 q 297 744 374 842 q 221 533 221 646 q 233 457 221 492 q 524 606 319 606 q 758 531 674 606 q 843 324 843 457 q 732 73 843 167 q 469 -21 621 -21 q 242 56 339 -21 q 101 246 146 132 q 56 492 56 360 m 318 274 q 360 179 318 217 q 474 142 403 142 q 619 202 567 142 q 672 324 672 263 q 624 416 672 379 q 508 453 575 453 q 372 397 426 453 q 318 274 318 342 z "},"7":{"ha":621,"x_min":19,"x_max":618,"o":"m 19 818 q 69 961 19 929 q 181 978 89 971 q 361 986 272 986 q 618 940 551 986 q 437 338 532 618 q 278 1 342 58 q 235 -3 275 -3 q 136 13 142 -3 q 422 819 300 614 q 326 826 369 826 q 182 810 256 826 q 167 744 182 767 q 86 733 133 733 q 26 746 43 733 q 19 818 19 776 z "},"8":{"ha":781,"x_min":51,"x_max":731,"o":"m 51 258 q 199 556 51 432 q 113 715 113 618 q 188 906 113 824 q 408 989 264 989 q 594 931 528 989 q 661 786 661 872 q 585 613 661 690 q 731 344 731 501 q 624 94 731 201 q 344 -14 518 -14 q 125 64 199 -14 q 51 258 51 142 m 219 286 q 258 187 219 226 q 369 147 296 147 q 510 202 460 147 q 561 328 561 257 q 524 429 561 388 q 418 471 486 471 q 281 419 342 471 q 219 286 219 368 m 267 718 q 290 658 267 682 q 356 635 313 635 q 452 672 411 635 q 493 760 493 708 q 465 828 493 801 q 396 856 438 856 q 305 812 343 856 q 267 718 267 768 z "},"9":{"ha":878,"x_min":51,"x_max":822,"o":"m 51 631 q 153 877 51 767 q 414 988 254 988 q 635 912 539 988 q 776 722 731 836 q 822 479 822 608 q 708 125 822 274 q 417 -24 594 -24 q 239 17 329 -24 q 234 8 238 15 q 226 -6 231 0 q 221 -12 222 -12 q 181 -18 204 -18 q 115 -8 147 -18 q 71 18 82 3 q 68 44 68 32 q 99 152 68 92 q 164 232 129 213 q 185 233 171 233 q 258 220 214 233 q 315 196 301 207 q 319 174 319 186 q 310 138 319 147 q 390 125 353 125 q 579 223 501 125 q 657 433 657 321 q 644 510 657 475 q 360 361 558 361 q 131 438 210 361 q 51 631 51 515 m 211 653 q 249 556 211 594 q 364 518 288 518 q 512 576 460 518 q 564 700 564 633 q 526 793 564 756 q 418 831 488 831 q 274 782 338 831 q 211 653 211 733 z "},"\u0000":{"ha":0,"x_min":0,"x_max":0,"o":""},"\r":{"ha":463,"x_min":0,"x_max":0,"o":""}," ":{"ha":282,"x_min":0,"x_max":0,"o":""},"!":{"ha":356,"x_min":71,"x_max":282,"o":"m 71 681 q 124 958 71 854 q 176 971 157 971 q 231 958 204 971 q 282 640 282 800 q 210 275 282 444 q 181 269 197 269 q 157 271 167 269 q 94 456 118 344 q 71 681 71 568 m 133 86 q 142 165 133 125 q 188 171 171 171 q 225 165 203 171 q 238 83 238 124 q 225 0 238 42 q 183 -7 201 -7 q 142 0 163 -7 q 133 86 133 44 z "},"\"":{"ha":492,"x_min":50,"x_max":440,"o":"m 50 769 q 69 843 50 818 q 119 868 89 868 q 170 843 150 868 q 190 771 190 818 q 136 553 190 696 l 99 569 q 69 672 88 588 q 50 769 50 756 m 300 769 q 319 843 300 818 q 369 868 339 868 q 420 843 400 868 q 440 771 440 818 q 386 553 440 696 l 349 569 q 319 672 338 588 q 300 769 300 756 z "},"#":{"ha":876,"x_min":51,"x_max":826,"o":"m 51 271 q 58 304 51 289 l 207 310 q 228 447 214 346 q 253 599 243 549 l 64 607 q 54 640 54 617 q 64 676 54 667 q 282 693 144 688 l 324 883 q 392 864 376 883 l 374 696 q 601 693 488 696 l 643 883 q 711 864 701 883 q 703 786 710 857 q 692 685 696 715 q 821 676 786 681 q 826 643 826 656 q 821 607 826 628 l 672 601 q 651 464 665 565 q 626 313 636 363 l 815 304 q 818 271 818 294 q 815 235 818 246 q 597 218 735 224 l 556 28 q 540 25 547 25 q 488 47 503 25 l 506 215 q 278 218 392 215 l 236 28 q 222 25 228 25 q 168 47 197 25 q 176 125 169 54 q 188 226 183 196 q 58 235 94 231 q 51 271 51 256 m 308 314 q 399 315 326 314 q 526 315 472 315 l 571 597 q 480 597 553 597 q 353 596 407 596 l 308 314 z "},"$":{"ha":858,"x_min":51,"x_max":813,"o":"m 51 140 q 78 257 51 208 q 157 276 139 276 q 258 257 190 276 q 268 204 265 239 q 374 164 317 172 q 360 397 363 319 q 251 420 296 407 q 160 460 206 433 q 90 534 114 488 q 65 646 65 581 q 163 882 65 783 q 389 986 260 981 l 401 1082 q 471 1100 410 1093 l 483 978 q 599 936 536 968 q 628 994 607 978 q 694 1008 654 1008 q 783 983 758 1008 q 792 858 792 958 q 780 764 792 792 q 735 729 768 736 q 689 722 711 722 q 607 743 639 722 q 599 789 599 764 q 500 811 561 806 q 513 565 511 689 q 742 500 671 547 q 813 342 813 453 q 719 106 813 207 q 481 -10 626 4 l 467 -147 q 401 -161 450 -157 l 389 -12 q 260 38 314 -3 q 246 -14 260 3 q 164 -28 221 -28 q 81 -7 103 -28 q 51 140 51 49 m 261 674 q 358 572 261 588 q 371 806 360 651 q 261 674 261 782 m 496 174 q 577 229 544 193 q 610 304 610 265 q 508 386 610 372 q 496 174 504 281 z "},"%":{"ha":1214,"x_min":42,"x_max":1172,"o":"m 106 472 q 74 510 106 472 q 42 674 42 547 q 106 875 42 800 q 268 950 171 950 q 430 875 365 950 q 494 674 494 800 q 430 472 494 547 q 268 397 365 397 q 106 472 171 397 m 189 799 q 175 775 189 799 q 161 675 161 751 q 190 549 161 599 q 274 499 218 499 q 355 547 328 499 q 382 674 382 596 q 354 799 382 751 q 272 847 326 847 q 189 799 217 847 m 265 15 q 402 269 317 94 q 536 521 488 444 q 699 734 585 597 q 861 950 813 871 q 892 956 883 956 q 943 926 919 956 q 811 681 892 849 q 679 432 731 513 q 513 213 629 354 q 346 -8 396 71 q 313 -15 325 -15 q 265 15 286 -15 m 784 64 q 752 101 784 64 q 719 265 719 139 q 784 467 719 392 q 946 542 849 542 q 1108 467 1043 542 q 1172 265 1172 392 q 1108 64 1172 139 q 946 -11 1043 -11 q 784 64 849 -11 m 864 383 q 850 359 864 383 q 836 258 836 335 q 865 132 836 182 q 949 82 893 82 q 1030 131 1003 82 q 1057 257 1057 179 q 1029 383 1057 335 q 947 431 1001 431 q 864 383 892 431 z "},"&":{"ha":986,"x_min":49,"x_max":997,"o":"m 49 214 q 93 383 49 300 q 211 506 138 465 q 125 721 125 597 q 206 926 125 839 q 415 1014 288 1014 q 602 943 531 1014 q 674 774 674 872 q 607 590 674 678 q 440 453 540 503 q 601 271 528 364 q 635 297 614 281 q 662 319 656 314 q 680 335 668 325 q 697 352 692 346 q 707 367 701 358 q 717 388 713 376 q 663 447 675 425 q 794 547 739 524 q 920 442 844 522 q 997 332 996 363 q 940 276 997 325 q 875 222 882 226 q 826 275 856 231 q 758 212 792 239 q 706 167 725 185 q 792 76 776 90 l 656 -21 q 615 22 653 -18 q 556 86 578 61 q 275 -17 382 -17 q 107 50 165 -17 q 49 214 49 117 m 192 214 q 221 142 192 172 q 293 113 250 113 q 383 137 331 113 q 474 201 435 161 q 403 289 458 218 q 307 399 347 360 q 192 214 192 294 m 265 736 q 274 693 265 714 q 288 663 282 672 q 317 626 294 653 q 347 589 339 599 q 482 667 439 628 q 525 758 525 707 q 493 838 525 806 q 406 869 461 869 q 304 831 343 869 q 265 736 265 792 z "},"'":{"ha":208,"x_min":58,"x_max":149,"o":"m 58 792 q 60 829 58 817 q 99 839 89 839 q 144 829 100 839 q 149 764 149 796 q 111 540 149 663 q 93 557 107 543 q 58 792 58 689 z "},"(":{"ha":467,"x_min":40,"x_max":461,"o":"m 40 325 q 135 654 40 503 q 397 911 229 806 q 449 860 449 893 q 417 794 449 833 q 256 599 304 714 q 208 326 208 483 q 263 48 208 167 q 461 -201 318 -71 q 414 -249 457 -249 q 143 -12 246 -160 q 40 325 40 136 z "},")":{"ha":467,"x_min":6,"x_max":426,"o":"m 6 -201 q 203 48 149 -71 q 258 326 258 167 q 210 599 258 483 q 50 794 163 714 q 18 860 18 833 q 69 911 18 893 q 332 654 238 806 q 426 325 426 503 q 324 -12 426 136 q 53 -249 221 -160 q 6 -201 10 -249 z "},"*":{"ha":533,"x_min":43,"x_max":490,"o":"m 43 690 q 49 700 43 693 q 57 708 54 707 q 235 676 133 708 q 254 850 235 797 q 267 856 260 856 q 279 850 271 856 q 299 676 299 797 q 476 708 400 708 q 485 700 479 707 q 490 690 490 693 q 458 667 483 679 q 410 646 433 654 q 358 628 388 638 q 326 617 329 618 q 406 454 368 578 q 385 444 400 444 q 267 575 303 499 q 144 444 229 496 q 128 454 133 444 q 207 617 165 578 q 175 628 204 618 q 123 646 146 638 q 75 667 100 654 q 43 690 50 679 z "},"+":{"ha":749,"x_min":33,"x_max":713,"o":"m 33 431 q 56 463 33 439 q 192 476 121 476 q 344 463 283 476 q 325 632 325 540 q 344 760 325 701 q 379 775 365 775 q 411 760 394 775 q 431 628 431 697 q 411 463 431 536 q 557 474 468 474 q 700 463 625 474 q 713 435 713 444 q 700 401 713 425 q 558 383 624 383 q 411 401 474 383 q 431 251 431 342 q 411 104 431 179 q 376 93 394 93 q 344 104 361 93 q 329 247 329 178 q 344 401 329 339 q 186 386 275 386 q 56 401 117 386 q 33 431 33 428 z "},",":{"ha":297,"x_min":32,"x_max":247,"o":"m 32 -115 q 44 38 33 -26 q 86 178 54 103 q 186 211 149 211 q 247 203 210 211 q 195 56 232 122 q 96 -87 158 -11 q 32 -115 68 -115 z "},"-":{"ha":500,"x_min":74,"x_max":426,"o":"m 74 385 q 79 414 74 401 q 269 429 194 429 q 421 414 350 429 q 426 381 426 399 q 421 349 426 360 q 283 331 358 331 q 79 350 136 331 q 74 385 74 358 z "},".":{"ha":278,"x_min":54,"x_max":224,"o":"m 54 111 q 85 204 54 160 q 140 215 124 215 q 194 204 167 215 q 224 107 224 160 q 194 4 224 56 q 146 -7 172 -7 q 85 4 119 -7 q 54 111 54 58 z "},"/":{"ha":740,"x_min":28,"x_max":711,"o":"m 28 -125 q 683 999 272 576 q 703 989 696 997 q 711 975 711 981 q 56 -149 508 329 q 28 -125 28 -144 z "},":":{"ha":317,"x_min":74,"x_max":243,"o":"m 74 111 q 104 204 74 160 q 160 215 143 215 q 214 204 186 215 q 243 107 243 160 q 214 4 243 56 q 165 -7 192 -7 q 104 4 139 -7 q 74 111 74 58 m 74 576 q 104 669 74 625 q 160 681 143 681 q 214 669 186 681 q 243 572 243 625 q 214 469 243 522 q 165 458 192 458 q 104 469 139 458 q 74 576 74 524 z "},";":{"ha":333,"x_min":33,"x_max":272,"o":"m 33 -115 q 45 38 35 -26 q 88 178 56 103 q 188 211 150 211 q 249 203 211 211 q 197 56 233 122 q 97 -87 160 -11 q 33 -115 69 -115 m 103 535 q 133 628 103 583 q 189 639 172 639 q 243 628 215 639 q 272 531 272 583 q 243 428 272 481 q 194 417 221 417 q 133 428 168 417 q 103 535 103 482 z "},"<":{"ha":775,"x_min":36,"x_max":699,"o":"m 36 442 q 65 489 36 465 q 686 797 414 717 q 696 781 696 788 q 686 747 696 768 q 416 549 576 638 q 124 443 256 461 q 421 330 261 418 q 686 138 581 242 q 699 107 699 119 q 686 86 699 99 q 65 394 315 213 q 36 442 36 419 z "},"=":{"ha":757,"x_min":85,"x_max":674,"o":"m 85 385 q 90 414 85 401 q 388 429 206 429 q 668 414 606 429 q 674 381 674 399 q 668 349 674 360 q 372 331 606 331 q 90 350 238 331 q 85 385 85 358 m 85 614 q 90 643 85 631 q 388 658 206 658 q 668 643 606 658 q 674 610 674 628 q 668 578 674 589 q 368 560 606 560 q 90 579 244 560 q 85 614 85 588 z "},">":{"ha":775,"x_min":76,"x_max":739,"o":"m 76 107 q 89 138 76 119 q 354 330 194 242 q 651 443 514 418 q 359 549 519 461 q 89 747 199 638 q 79 781 79 768 q 89 797 79 788 q 710 489 361 717 q 739 442 739 465 q 710 394 739 419 q 89 86 460 213 q 76 107 76 99 z "},"?":{"ha":761,"x_min":36,"x_max":719,"o":"m 36 760 q 96 886 36 828 q 226 962 144 935 q 396 989 308 989 q 625 926 531 989 q 719 750 719 864 q 630 562 719 638 q 413 454 540 486 q 425 376 425 424 q 413 278 425 331 q 342 271 386 271 q 304 278 328 271 q 285 389 285 315 q 297 518 285 464 q 472 601 424 560 q 521 738 521 643 q 489 842 521 801 q 364 882 457 882 q 186 721 186 882 q 188 688 186 697 q 122 678 153 678 q 36 760 36 678 m 286 96 q 304 179 286 139 q 358 196 342 196 q 415 179 375 196 q 442 96 442 126 q 415 14 442 60 q 357 -7 374 -7 q 304 14 335 -7 q 286 96 286 54 z "},"@":{"ha":1264,"x_min":54,"x_max":1224,"o":"m 54 274 q 139 628 54 465 q 376 887 224 790 q 714 983 528 983 q 1083 842 942 983 q 1224 475 1224 701 q 1199 314 1224 386 q 1135 194 1175 242 q 1040 115 1094 147 q 929 70 986 83 q 811 57 872 57 q 753 60 775 57 q 707 79 731 64 q 674 125 683 94 q 594 81 644 101 q 499 61 543 61 q 375 135 419 61 q 331 314 331 208 q 355 470 331 394 q 433 601 379 546 q 558 656 488 656 q 616 644 590 656 q 656 617 642 633 q 678 583 669 600 q 690 556 686 567 l 694 544 l 694 625 q 807 657 729 657 q 869 654 842 657 q 909 649 896 651 q 931 642 922 646 q 942 638 939 639 l 943 636 q 947 574 947 624 q 943 510 947 522 q 854 489 906 489 q 836 490 843 489 q 825 490 829 490 q 829 432 829 486 q 819 201 829 218 q 881 192 847 192 q 1030 258 967 192 q 1093 464 1093 324 q 981 753 1093 646 q 699 860 869 860 q 334 697 483 860 q 185 288 185 533 q 295 -19 185 82 q 596 -121 406 -121 q 897 -51 761 -121 l 942 -167 q 586 -243 774 -243 q 196 -108 338 -243 q 54 274 54 28 m 471 342 q 509 235 471 279 q 590 192 547 192 q 646 205 614 192 q 678 228 678 218 q 683 322 681 276 q 688 392 686 368 q 690 432 690 417 q 660 478 690 454 q 590 501 629 501 q 503 451 535 501 q 471 342 471 400 z "},"A":{"ha":1038,"x_min":7,"x_max":1031,"o":"m 7 96 q 19 178 7 157 q 72 200 32 200 q 115 189 115 200 q 263 605 125 247 q 417 965 401 963 q 525 972 461 972 q 621 965 558 972 q 774 602 636 958 q 922 189 913 246 q 965 200 922 200 q 1018 178 1006 200 q 1031 96 1031 157 q 1015 17 1031 25 q 799 0 997 0 q 656 15 656 0 q 625 139 625 33 q 626 163 625 154 q 638 179 628 171 q 665 188 647 188 q 706 182 706 188 q 711 196 711 182 q 674 354 711 231 q 522 349 617 349 q 364 354 421 349 q 326 194 326 229 q 332 182 326 183 q 368 188 340 188 q 399 178 389 188 q 411 158 410 168 q 413 126 413 149 q 382 15 413 35 q 239 0 382 0 q 22 17 40 0 q 7 96 7 25 m 414 515 q 515 519 467 519 q 622 514 572 519 q 518 800 560 699 q 414 515 479 704 z "},"B":{"ha":911,"x_min":69,"x_max":858,"o":"m 69 92 q 72 135 69 119 q 90 166 74 150 q 140 182 107 182 q 158 179 144 182 q 147 425 147 308 q 165 776 147 636 q 89 783 135 776 q 81 867 81 794 q 85 949 81 939 q 253 983 126 983 q 349 978 290 983 q 354 922 354 960 q 456 964 393 946 q 568 982 518 982 q 747 895 675 982 q 818 699 818 808 q 717 478 818 569 q 858 247 858 397 q 785 64 858 142 q 608 -14 713 -14 q 336 43 399 -14 q 317 -1 336 7 q 226 -8 297 -8 q 79 8 146 -8 q 69 92 69 54 m 346 165 q 422 142 346 157 q 524 128 499 128 q 599 167 568 128 q 631 264 631 207 q 608 368 631 321 q 539 415 586 415 q 425 397 496 415 q 353 360 354 378 q 351 322 351 346 q 349 253 350 299 q 346 165 347 208 m 346 582 q 422 559 346 574 q 524 544 499 544 q 599 584 568 544 q 631 681 631 624 q 608 785 631 738 q 539 832 586 832 q 425 813 496 832 q 353 776 354 794 q 351 739 351 763 q 349 670 350 715 q 346 582 347 625 z "},"C":{"ha":938,"x_min":57,"x_max":885,"o":"m 57 478 q 166 836 57 690 q 456 982 275 982 q 650 921 588 982 q 679 972 653 963 q 764 988 714 988 q 867 960 829 988 q 873 912 868 944 q 881 853 878 879 q 883 804 883 826 q 833 674 883 718 q 738 642 804 642 q 633 674 668 642 q 632 686 632 676 q 636 708 632 703 q 560 788 613 760 q 464 815 507 815 q 315 712 383 815 q 246 475 246 608 q 310 270 246 349 q 460 192 375 192 q 556 211 503 192 q 633 265 608 231 q 629 293 629 290 q 630 299 629 296 q 631 303 631 301 q 721 326 682 326 q 835 299 760 326 q 885 169 885 254 q 881 120 885 147 q 873 61 878 93 q 867 13 868 29 q 756 -22 824 -22 q 679 0 706 -22 q 650 54 650 11 q 464 -8 558 -8 q 319 22 390 -8 q 189 111 249 53 q 93 265 129 169 q 57 478 57 360 z "},"D":{"ha":986,"x_min":63,"x_max":926,"o":"m 63 853 q 75 899 63 883 q 367 974 207 974 q 622 935 513 974 q 797 824 731 896 q 894 658 863 751 q 926 447 926 564 q 799 101 926 217 q 396 -14 671 -14 q 85 44 233 -14 q 71 140 71 58 q 75 200 71 186 q 133 221 79 221 q 168 218 149 221 q 154 476 154 315 q 171 740 154 619 q 133 736 156 736 q 75 757 79 736 q 63 853 63 810 m 367 185 q 454 171 407 171 q 653 251 569 171 q 738 457 738 331 q 654 689 738 586 q 454 792 571 792 q 367 772 406 792 q 379 488 379 647 q 367 185 379 297 z "},"E":{"ha":958,"x_min":64,"x_max":908,"o":"m 64 143 q 86 215 64 165 q 142 228 111 228 q 164 224 156 228 q 147 475 147 347 q 176 783 147 663 q 125 776 144 776 q 86 786 100 776 q 67 872 67 814 q 93 944 67 908 q 256 977 138 965 q 483 989 374 989 q 894 936 739 989 q 908 829 908 867 q 876 722 908 764 q 817 714 842 714 q 703 760 772 714 l 707 806 q 563 824 681 824 q 456 819 521 824 q 389 811 390 815 q 394 738 394 761 q 376 568 394 614 q 514 572 513 568 q 513 585 513 576 q 525 622 513 600 q 571 629 533 629 q 651 619 629 629 q 679 488 679 574 q 650 381 679 410 q 585 371 639 371 q 522 381 531 371 q 510 422 510 397 l 369 415 q 354 188 369 333 q 444 158 376 168 q 557 147 513 147 q 640 155 590 147 q 707 172 689 163 l 703 218 q 818 264 772 264 q 876 256 843 264 q 908 149 908 214 q 894 42 908 111 q 517 -18 790 -18 q 263 -3 383 -18 q 93 33 142 11 q 70 75 76 54 q 64 143 64 96 z "},"F":{"ha":892,"x_min":63,"x_max":888,"o":"m 63 151 q 68 186 63 181 q 131 192 107 192 q 145 191 135 192 q 161 190 156 190 q 151 408 151 315 q 169 783 151 533 q 107 771 124 771 q 90 774 94 771 q 68 851 68 790 q 86 944 68 917 q 390 986 175 986 q 671 971 525 986 q 874 936 817 956 q 888 829 888 867 q 856 722 888 764 q 797 715 828 715 q 696 760 718 715 l 700 806 q 556 824 672 824 q 456 819 515 824 q 396 811 397 815 q 360 599 376 743 q 481 603 479 599 q 494 651 481 638 q 544 661 539 661 q 618 647 585 661 q 643 542 643 618 q 635 459 643 499 q 617 408 628 419 q 538 399 604 399 q 492 407 500 399 q 485 415 489 410 q 481 422 482 419 q 478 427 479 424 q 476 435 476 431 q 475 446 475 439 l 350 446 q 357 183 350 322 q 397 188 369 188 q 438 182 433 188 q 451 82 451 164 q 449 15 451 15 q 276 -19 404 -19 q 81 8 135 -19 q 63 151 63 32 z "},"G":{"ha":944,"x_min":58,"x_max":871,"o":"m 58 479 q 165 844 58 703 q 438 986 272 986 q 638 935 535 986 q 647 958 642 935 q 667 986 653 982 q 767 997 728 997 q 853 974 824 997 q 863 886 863 935 q 833 704 863 786 q 742 690 826 690 q 671 703 696 690 q 658 729 658 713 q 665 758 658 738 q 485 822 568 822 q 313 726 379 822 q 247 483 247 629 q 322 244 247 325 q 493 164 396 164 q 661 238 583 164 q 678 333 678 281 q 661 425 678 383 q 574 431 636 425 q 510 449 511 438 q 500 490 500 468 q 514 539 500 519 q 640 582 543 582 q 751 569 692 582 q 836 535 811 556 q 860 414 849 506 q 871 219 871 322 q 854 13 871 97 q 786 -10 824 -10 q 701 7 751 -10 q 679 82 679 15 q 440 -8 540 -8 q 347 6 396 -8 q 245 58 297 21 q 152 148 193 94 q 85 288 111 201 q 58 479 58 374 z "},"H":{"ha":1044,"x_min":69,"x_max":975,"o":"m 69 119 q 78 194 69 186 q 113 207 94 204 q 144 211 138 211 q 128 490 128 350 q 144 758 128 625 q 113 763 138 758 q 78 775 93 767 q 69 850 69 783 q 78 932 69 922 q 258 971 129 971 q 374 957 342 971 q 394 887 382 943 q 406 801 406 831 q 401 778 406 783 q 349 763 371 763 q 325 764 333 763 q 342 576 340 667 q 499 594 382 594 q 685 574 614 594 q 700 758 689 681 q 668 763 693 758 q 633 775 649 767 q 625 850 625 783 q 633 932 625 922 q 678 960 632 949 q 793 971 724 971 q 943 957 883 971 q 963 887 951 943 q 975 801 975 831 q 971 778 975 783 q 904 763 940 763 q 881 764 889 763 q 897 519 897 651 q 881 206 897 411 q 904 207 889 207 q 957 192 926 207 q 961 168 961 186 q 949 83 961 139 q 929 13 938 26 q 839 0 904 0 q 699 11 765 0 q 633 38 632 22 q 625 119 625 47 q 633 194 625 186 q 668 207 650 204 q 700 211 693 211 q 685 435 688 310 q 501 424 601 424 q 338 435 382 424 q 325 206 333 324 q 349 207 333 207 q 401 192 371 207 q 406 168 406 186 q 394 83 406 139 q 374 13 383 26 q 247 -1 342 -1 q 78 38 106 -1 q 69 119 69 47 z "},"I":{"ha":494,"x_min":76,"x_max":428,"o":"m 76 119 q 85 194 76 186 q 133 207 97 201 q 165 211 158 211 q 149 490 149 350 q 165 758 149 625 q 133 763 158 758 q 85 775 97 768 q 76 850 76 783 q 85 932 76 922 q 130 959 83 949 q 246 969 176 969 q 394 957 319 969 q 415 887 403 943 q 426 801 428 831 q 422 778 426 783 q 356 763 392 763 q 332 764 340 763 q 349 519 349 651 q 332 206 349 411 q 356 207 340 207 q 422 192 392 207 q 426 168 426 186 q 415 83 426 139 q 394 13 403 26 q 250 6 315 6 q 131 14 178 6 q 85 38 83 22 q 76 119 76 47 z "},"J":{"ha":831,"x_min":17,"x_max":794,"o":"m 17 44 q 49 199 17 101 q 100 308 82 297 q 126 313 111 313 q 208 303 157 313 q 271 283 258 293 q 274 272 274 283 l 264 201 q 354 167 315 167 q 426 203 396 167 q 472 300 456 239 q 494 426 488 361 q 501 567 501 492 q 481 804 501 710 q 428 790 463 790 q 376 810 390 790 q 376 827 376 815 q 375 849 375 839 q 403 960 375 913 q 575 971 458 971 q 790 936 750 971 q 794 874 794 919 q 778 785 794 804 q 746 778 772 778 q 694 785 708 778 q 713 571 713 682 q 678 278 713 410 q 572 66 643 147 q 406 -15 501 -15 q 219 53 319 -15 q 201 14 208 14 q 108 7 194 7 q 22 18 26 7 q 17 44 17 19 z "},"K":{"ha":1036,"x_min":74,"x_max":1010,"o":"m 74 133 q 83 194 74 185 q 164 211 119 211 q 147 490 147 350 q 164 758 147 625 q 83 775 99 765 q 74 853 74 786 q 83 932 74 918 q 269 968 126 968 q 393 957 371 968 q 415 889 404 936 q 426 808 426 842 q 421 778 426 788 q 365 761 388 761 q 344 764 358 761 q 361 592 360 656 q 383 590 368 590 q 576 642 472 590 q 700 765 679 694 q 685 764 694 764 q 643 783 665 764 q 626 856 626 810 q 646 958 626 913 q 753 972 682 972 q 950 938 888 972 q 967 869 967 917 q 950 775 967 819 q 897 754 933 754 q 872 758 883 754 q 815 646 858 693 q 688 542 771 599 q 793 425 736 501 q 881 297 850 349 q 933 206 913 246 q 979 194 968 206 q 1010 69 1010 138 q 1001 18 1010 42 q 817 -6 988 -6 q 686 13 704 -6 q 656 128 656 53 q 667 176 656 161 q 713 194 676 194 q 651 331 699 246 q 544 461 604 417 q 460 422 515 440 q 357 404 406 404 l 344 206 q 363 207 350 207 q 421 192 390 207 q 438 83 438 161 q 428 17 438 35 q 254 -6 347 -6 q 86 33 118 -6 q 74 133 74 58 z "},"L":{"ha":888,"x_min":63,"x_max":875,"o":"m 63 850 q 82 969 63 939 q 242 982 128 982 q 463 969 444 982 q 483 849 483 933 q 475 806 483 814 q 403 794 444 794 q 356 800 376 794 q 351 619 351 721 q 397 186 351 350 q 489 174 400 174 q 646 192 619 174 l 642 251 q 790 294 719 294 q 843 289 819 294 q 875 138 875 196 q 861 47 875 93 q 665 13 804 28 q 392 -3 525 -3 q 88 39 176 -3 q 71 139 71 72 q 85 181 71 178 q 131 189 101 189 q 171 186 146 189 q 151 594 151 443 q 165 801 151 638 q 122 797 144 797 q 69 806 92 797 q 63 850 63 814 z "},"M":{"ha":1136,"x_min":69,"x_max":1069,"o":"m 69 117 q 90 194 69 169 q 157 211 125 211 q 140 490 140 350 q 157 758 140 625 q 124 765 147 763 q 90 775 101 768 q 79 854 79 792 q 90 932 79 915 q 249 971 122 971 q 399 935 369 971 q 422 818 422 878 q 414 778 422 792 q 365 763 385 764 q 464 669 385 742 q 567 567 543 596 q 669 669 590 596 q 767 764 747 743 q 729 775 739 769 q 718 854 718 792 q 729 932 718 915 q 863 972 760 972 q 974 960 918 972 q 1053 932 1029 949 q 1069 861 1069 911 q 1053 778 1069 807 q 997 761 1019 761 q 976 764 990 761 q 993 519 993 651 q 976 206 993 411 q 994 207 982 207 q 1053 192 1022 207 q 1060 132 1060 174 q 1025 13 1060 26 q 899 0 1010 0 q 743 38 778 0 q 721 117 721 61 q 743 194 721 171 q 810 211 775 211 q 793 571 793 350 q 675 449 747 510 q 567 388 603 388 q 458 448 531 388 q 340 569 385 508 q 324 206 333 332 q 342 207 329 207 q 400 192 369 207 q 424 106 424 160 q 403 36 424 58 q 268 -1 369 -1 q 153 11 208 -1 q 90 38 97 24 q 69 117 69 63 z "},"N":{"ha":1057,"x_min":72,"x_max":990,"o":"m 72 126 q 93 194 72 185 q 138 214 125 214 q 160 211 146 214 q 143 490 143 350 q 160 758 143 625 q 133 756 143 756 q 93 775 113 756 q 82 854 82 792 q 93 932 82 915 q 152 958 92 947 q 285 969 213 969 q 375 957 350 969 q 415 860 415 936 q 403 778 415 813 q 353 760 376 760 q 326 764 342 760 q 519 606 388 718 q 713 431 651 494 q 729 758 713 636 q 704 757 721 757 q 663 775 682 757 q 642 867 642 811 q 663 932 642 917 q 831 971 714 971 q 944 957 914 971 q 990 847 990 931 q 972 778 990 801 q 919 761 936 761 q 896 764 910 761 q 913 519 913 651 q 896 206 913 411 q 918 210 913 210 q 972 192 954 210 q 988 135 988 172 q 975 63 988 100 q 944 13 963 26 q 808 0 917 0 q 663 36 694 0 q 642 125 642 57 q 663 194 642 181 q 703 214 690 214 q 725 211 711 214 q 528 380 669 247 q 342 547 386 513 q 326 206 339 350 q 356 208 343 208 q 403 192 383 208 q 415 139 415 178 q 403 60 415 100 q 375 13 392 21 q 285 0 350 0 q 152 11 213 0 q 93 38 92 22 q 72 126 72 58 z "},"O":{"ha":1031,"x_min":53,"x_max":975,"o":"m 53 369 q 96 581 53 474 q 212 776 139 689 q 393 919 285 864 q 622 975 501 975 q 887 864 799 975 q 975 582 975 753 q 943 377 975 479 q 851 186 911 275 q 688 42 790 97 q 460 -14 586 -14 q 166 91 279 -14 q 53 369 53 196 m 260 392 q 314 230 260 290 q 456 169 368 169 q 625 238 547 169 q 743 399 703 306 q 783 578 783 492 q 734 727 783 669 q 590 785 685 785 q 415 722 493 785 q 299 569 338 658 q 260 392 260 481 z "},"P":{"ha":908,"x_min":53,"x_max":881,"o":"m 53 869 q 74 960 53 933 q 238 989 157 989 q 349 964 314 989 q 356 915 356 938 q 354 903 356 904 q 435 930 381 911 q 517 957 490 949 q 580 973 543 965 q 644 981 617 981 q 815 897 749 981 q 881 688 881 813 q 788 421 881 539 q 539 303 696 303 q 388 344 456 303 q 390 276 390 331 q 382 179 390 246 q 418 181 388 181 q 465 174 440 181 q 496 156 489 167 q 517 92 517 142 q 496 26 517 49 q 321 -1 488 -1 q 89 26 97 -1 q 71 88 71 46 q 89 156 71 131 q 156 181 104 181 q 175 179 169 181 q 174 267 175 203 q 172 399 172 331 q 186 722 172 644 q 163 721 182 721 q 89 728 119 721 q 53 869 53 772 m 371 599 q 401 508 371 540 q 476 476 431 476 q 606 534 543 476 q 669 672 669 592 q 638 766 669 728 q 554 804 607 804 q 428 743 486 804 q 371 599 371 682 z "},"Q":{"ha":1061,"x_min":53,"x_max":1017,"o":"m 53 378 q 96 588 53 482 q 212 781 139 694 q 393 921 285 867 q 622 975 501 975 q 798 937 722 975 q 916 833 874 899 q 979 689 958 768 q 1000 518 1000 610 q 853 115 1000 275 q 889 -14 878 29 q 950 8 918 8 q 978 3 967 8 q 1006 -44 994 -8 q 1017 -115 1017 -81 q 1014 -146 1017 -137 q 897 -208 979 -181 q 749 -235 815 -235 q 690 -225 711 -235 q 647 -183 665 -214 q 628 -122 628 -153 q 629 -107 628 -111 q 660 -75 635 -87 q 707 -62 685 -62 q 685 -19 699 -47 q 668 17 672 8 q 496 -14 625 -14 q 164 98 275 -14 q 53 378 53 210 m 271 406 q 330 239 271 308 q 485 169 389 169 q 718 283 611 169 q 825 539 825 396 q 764 713 825 642 q 603 785 703 785 q 433 724 511 785 q 313 576 354 663 q 271 406 271 489 z "},"R":{"ha":999,"x_min":54,"x_max":1017,"o":"m 54 853 q 86 972 54 950 q 186 983 124 983 q 326 964 264 983 q 333 915 333 938 q 332 903 333 904 q 398 924 356 910 q 458 943 440 938 q 506 958 476 949 q 552 970 536 967 q 588 976 568 974 q 624 979 608 979 q 733 945 685 979 q 808 860 781 911 q 848 757 835 808 q 861 663 861 706 q 803 500 861 569 q 665 386 746 431 q 846 249 761 319 q 935 158 931 179 q 960 164 946 164 q 996 156 975 164 q 1017 89 1017 136 q 999 24 1017 42 q 806 0 953 0 q 667 24 735 0 q 643 52 653 29 q 633 103 633 75 q 649 153 633 138 q 672 161 658 161 q 699 156 682 161 q 653 220 683 192 q 589 265 622 249 q 517 292 556 281 q 451 308 479 304 q 400 314 422 313 l 379 317 q 386 244 386 282 q 379 176 386 208 q 406 181 389 181 q 474 156 450 181 q 479 90 479 143 q 474 26 479 39 q 229 -1 465 -1 q 115 5 144 -1 q 81 26 85 11 q 75 90 75 39 q 81 156 75 143 q 112 174 88 167 q 158 181 136 181 q 181 179 175 181 q 179 267 181 203 q 178 399 178 331 q 192 722 178 644 q 149 715 175 715 q 93 731 108 715 q 54 853 54 739 m 361 603 q 391 513 361 544 q 467 481 421 481 q 597 538 533 481 q 660 676 660 596 q 628 770 660 732 q 544 808 597 808 q 419 747 476 808 q 361 603 361 686 z "},"S":{"ha":872,"x_min":57,"x_max":818,"o":"m 57 140 q 83 257 57 208 q 163 276 144 276 q 264 257 196 276 q 274 204 271 239 q 424 160 340 160 q 558 205 500 160 q 615 306 615 250 q 463 390 615 385 q 361 398 404 393 q 259 419 318 403 q 163 461 200 435 q 98 535 125 488 q 71 649 71 583 q 172 887 71 788 q 415 986 274 986 q 604 936 514 986 q 633 994 613 978 q 700 1008 660 1008 q 789 983 764 1008 q 797 858 797 958 q 785 764 797 792 q 740 729 774 736 q 694 722 717 722 q 613 743 644 722 q 604 789 604 764 q 467 813 557 813 q 318 781 369 813 q 267 676 267 750 q 298 598 267 622 q 399 571 329 574 q 667 539 596 561 q 818 339 818 493 q 710 90 818 193 q 432 -14 601 -14 q 265 38 336 -14 q 251 -14 265 3 q 169 -28 226 -28 q 86 -7 108 -28 q 57 140 57 49 z "},"T":{"ha":1007,"x_min":15,"x_max":992,"o":"m 15 801 q 35 956 15 897 q 147 962 61 957 q 320 969 233 967 q 497 972 407 972 q 676 969 588 972 q 856 962 765 967 q 972 956 947 957 q 992 801 992 897 q 982 714 992 751 q 883 700 913 700 q 781 724 822 700 l 757 796 q 600 811 739 807 q 608 442 608 633 q 593 211 608 292 q 625 207 600 211 q 674 194 661 201 q 682 110 682 183 q 672 39 682 56 q 504 0 650 0 q 335 39 357 0 q 325 111 325 56 q 333 194 325 183 q 382 207 346 201 q 414 211 407 211 q 399 442 399 292 q 407 811 399 633 q 250 796 268 807 l 226 724 q 124 700 185 700 q 25 714 94 700 q 15 801 15 751 z "},"U":{"ha":1071,"x_min":10,"x_max":1058,"o":"m 10 849 q 39 943 10 899 q 210 975 122 975 q 382 946 294 975 q 415 853 415 906 q 389 772 415 807 q 360 764 375 764 q 326 771 344 764 q 315 653 315 724 q 388 331 315 453 q 556 210 460 210 q 704 335 649 210 q 760 674 760 461 q 751 785 760 744 q 707 768 738 768 q 678 782 683 768 q 654 861 654 817 q 678 942 654 906 q 869 975 761 975 q 1033 932 983 975 q 1058 863 1058 892 q 1036 800 1058 838 q 978 781 1014 781 q 950 785 963 781 q 964 621 964 710 q 846 167 964 335 q 567 -1 728 -1 q 403 47 483 -1 q 258 182 322 96 q 153 401 193 268 q 114 688 114 533 q 115 726 114 706 q 115 758 115 747 q 86 751 107 751 q 38 763 49 751 q 10 849 10 800 z "},"V":{"ha":1071,"x_min":6,"x_max":1064,"o":"m 6 871 q 26 956 6 922 q 243 972 44 972 q 386 957 386 972 q 417 846 417 938 q 413 807 417 819 q 402 792 413 799 q 376 785 392 785 q 336 790 336 785 q 331 776 331 790 q 400 507 331 718 q 536 172 469 296 q 673 497 603 283 q 743 776 743 711 q 738 790 743 790 q 697 785 738 785 q 672 792 682 785 q 661 807 661 799 q 657 846 657 819 q 688 957 657 938 q 858 972 688 972 q 1047 956 1029 972 q 1064 878 1064 933 q 1040 783 1064 807 q 1008 778 1028 778 q 963 786 968 778 q 835 367 960 713 q 681 7 711 21 q 543 -6 617 -6 q 393 7 467 -6 q 240 370 364 19 q 117 782 117 721 q 118 789 117 788 q 67 776 86 776 q 33 783 51 776 q 6 871 6 803 z "},"W":{"ha":1268,"x_min":21,"x_max":1250,"o":"m 21 854 q 32 932 21 915 q 208 967 75 967 q 342 957 274 967 q 364 889 353 936 q 375 808 375 842 q 369 778 375 788 q 308 763 349 763 q 293 764 297 763 q 353 582 315 724 q 393 372 392 440 q 462 469 413 390 q 558 611 511 547 q 633 675 606 675 q 708 612 661 675 q 806 469 756 549 q 874 371 856 389 q 915 565 882 442 q 974 758 949 688 q 950 768 957 764 q 935 779 943 772 q 917 792 926 786 q 897 889 897 807 q 907 954 897 943 q 1021 971 931 971 q 1217 957 1147 971 q 1241 901 1232 946 q 1250 815 1250 857 q 1244 778 1250 788 q 1178 761 1208 761 q 1154 764 1168 761 q 1001 206 1138 479 q 1017 201 1010 203 q 1028 200 1025 200 q 1038 198 1032 200 q 1050 192 1043 196 q 1056 158 1056 181 q 1044 78 1056 125 q 1022 13 1033 32 q 922 0 994 0 q 795 10 849 0 q 740 38 742 21 q 731 125 731 54 q 740 194 731 185 q 756 198 743 196 q 784 202 768 200 q 806 206 800 204 q 632 417 800 211 q 460 207 461 210 q 536 192 514 201 q 542 158 542 181 q 531 78 542 125 q 508 13 519 32 q 386 -1 481 -1 q 226 38 228 -1 q 215 131 215 63 q 226 194 215 183 q 265 211 243 211 q 113 758 126 508 q 32 775 47 765 q 21 854 21 792 z "},"X":{"ha":1042,"x_min":36,"x_max":1008,"o":"m 36 71 q 76 186 36 128 q 140 183 110 186 q 228 342 140 232 q 376 490 315 451 q 227 634 313 532 q 140 789 142 736 q 75 783 122 783 q 39 897 39 819 q 44 949 39 926 q 217 976 118 976 q 301 964 269 976 q 344 924 328 956 q 360 860 360 893 q 347 815 360 832 q 322 808 335 808 q 297 811 314 808 q 395 724 322 801 q 518 576 468 647 q 638 705 561 626 q 756 811 715 783 q 731 808 747 808 q 703 817 707 808 q 692 872 692 847 q 736 963 692 926 q 853 976 799 976 q 997 947 933 976 q 1007 890 1007 921 q 978 801 1007 833 q 914 806 928 801 q 822 644 913 754 q 668 490 731 533 q 815 342 728 453 q 903 185 903 231 l 915 186 l 942 186 l 960 186 q 993 135 978 174 q 1008 63 1008 96 q 996 26 1008 35 q 824 -6 913 -6 q 696 17 753 -6 q 674 113 674 68 q 683 164 674 143 q 746 176 708 176 q 518 407 660 231 q 401 276 476 356 q 293 178 326 197 q 315 179 300 179 q 347 171 338 179 q 351 128 351 147 q 301 10 351 74 q 210 -6 267 -6 q 44 25 118 -6 q 36 71 36 47 z "},"Y":{"ha":947,"x_min":6,"x_max":942,"o":"m 6 840 q 110 917 29 875 q 299 975 192 958 q 353 861 353 890 q 318 838 353 854 q 275 825 293 825 q 355 714 283 799 q 481 572 426 629 q 589 694 515 593 q 672 825 663 794 q 629 838 656 825 q 594 860 596 853 q 619 921 596 871 q 649 975 643 971 q 942 840 810 975 q 903 721 925 747 q 844 742 876 726 q 816 697 839 733 q 776 639 793 661 q 731 583 760 617 q 667 518 703 549 q 589 460 631 488 q 578 308 582 428 q 572 168 575 189 q 643 149 607 168 q 649 119 649 143 q 642 57 649 93 q 631 11 635 21 q 467 -1 621 -1 q 394 -1 417 -1 q 345 1 372 0 q 306 8 318 3 q 288 21 293 13 q 282 90 282 35 q 293 151 282 140 q 374 168 328 168 q 372 251 374 183 q 367 376 369 319 q 360 460 364 432 q 194 613 276 514 q 103 742 111 713 q 44 721 71 726 q 6 840 17 775 z "},"Z":{"ha":1038,"x_min":32,"x_max":986,"o":"m 32 4 q 85 192 32 100 q 224 358 139 283 q 399 499 310 433 q 575 636 488 565 q 703 765 663 707 q 654 762 700 764 q 545 758 608 760 q 444 756 482 756 q 321 749 335 756 q 303 692 307 699 q 200 681 243 681 q 110 693 154 681 q 85 856 85 743 q 110 968 85 933 q 226 975 140 975 q 350 961 335 975 q 353 946 353 950 q 350 933 353 944 q 581 939 492 939 q 732 935 678 939 q 744 964 736 960 q 876 978 750 978 q 972 972 965 978 q 901 733 968 849 q 744 537 835 618 q 563 389 653 456 q 410 272 472 322 q 347 194 347 222 q 468 182 394 182 q 736 214 651 182 q 754 282 736 269 q 864 294 786 294 q 951 282 931 294 q 976 223 967 274 q 986 111 986 172 q 950 -26 986 -22 q 839 -33 913 -33 q 719 -18 735 -33 q 707 40 713 -17 q 436 -1 581 -1 q 272 7 389 -1 q 261 -18 271 -15 q 132 -33 256 -33 q 33 -28 44 -33 q 32 4 32 -17 z "},"[":{"ha":532,"x_min":76,"x_max":524,"o":"m 76 357 q 135 903 76 628 q 350 925 261 925 q 511 903 439 925 q 521 875 521 886 q 511 850 521 861 q 372 832 436 832 q 197 850 256 832 q 226 358 226 625 q 197 -147 226 83 q 372 -129 256 -129 q 506 -147 433 -129 q 524 -183 524 -165 q 521 -200 524 -189 q 360 -222 450 -222 q 135 -200 271 -222 q 76 357 76 88 z "},"\\":{"ha":740,"x_min":29,"x_max":713,"o":"m 29 975 q 37 989 29 981 q 57 999 44 997 q 713 -125 468 576 q 685 -149 713 -144 q 29 975 232 329 z "},"]":{"ha":532,"x_min":8,"x_max":456,"o":"m 8 -183 q 26 -147 8 -165 q 160 -129 99 -129 q 335 -147 276 -129 q 306 358 306 83 q 335 850 306 625 q 160 832 276 832 q 21 850 96 832 q 11 875 11 861 q 21 903 11 886 q 182 925 93 925 q 397 903 271 925 q 456 357 456 628 q 397 -200 456 88 q 172 -222 261 -222 q 11 -200 82 -222 q 8 -183 8 -189 z "},"^":{"ha":1157,"x_min":239,"x_max":631,"o":"m 239 699 q 257 731 243 706 q 276 765 271 756 q 296 796 282 775 q 319 830 310 817 q 344 861 329 843 q 376 894 360 879 q 431 914 401 914 q 493 894 458 914 q 631 699 569 822 q 607 693 618 693 q 581 699 596 693 q 503 760 547 717 q 435 839 458 804 q 289 699 342 722 q 267 693 272 693 q 239 699 256 693 z "},"_":{"ha":1014,"x_min":144,"x_max":925,"o":"m 144 -239 q 156 -211 144 -225 q 619 -196 286 -196 q 758 -199 699 -196 q 858 -206 817 -201 q 914 -211 900 -211 q 925 -239 925 -222 q 914 -276 925 -256 q 774 -290 908 -285 q 544 -294 639 -294 q 156 -276 422 -294 q 144 -239 144 -256 z "},"`":{"ha":1157,"x_min":324,"x_max":551,"o":"m 324 1001 q 414 1036 356 1036 q 432 1035 425 1036 q 551 825 494 967 q 531 821 547 821 q 510 825 518 821 q 324 1001 381 904 z "},"a":{"ha":865,"x_min":49,"x_max":810,"o":"m 49 288 q 78 481 49 388 q 174 643 108 575 q 329 711 240 711 q 401 697 369 711 q 449 663 432 683 q 478 623 467 643 q 493 589 489 603 q 499 575 497 575 q 497 674 499 650 q 555 705 525 697 q 638 713 585 713 q 712 710 679 713 q 761 703 744 707 q 788 694 778 699 q 801 689 799 690 l 804 688 q 810 610 810 675 q 804 531 810 543 q 760 513 800 521 q 690 506 719 506 q 660 508 676 506 q 664 438 664 500 q 651 236 664 256 q 675 240 661 240 q 794 228 736 240 q 806 110 806 219 q 801 32 806 49 q 740 3 792 17 q 624 -11 689 -11 q 478 -6 506 -11 q 468 39 468 21 q 472 56 468 50 q 378 14 456 50 q 265 -22 300 -22 q 103 68 158 -22 q 49 288 49 158 m 222 324 q 270 192 222 246 q 371 139 318 139 q 438 154 400 139 q 478 182 475 169 q 485 299 482 246 q 491 381 489 353 q 493 418 493 410 l 493 435 q 455 492 493 464 q 369 521 417 521 q 261 458 300 521 q 222 324 222 394 z "},"b":{"ha":840,"x_min":21,"x_max":793,"o":"m 21 949 q 26 1026 21 1011 l 28 1028 q 39 1035 31 1031 q 60 1043 47 1039 q 101 1050 74 1047 q 164 1053 129 1053 q 376 1011 328 1053 q 383 860 383 997 q 381 749 383 801 q 379 694 379 697 q 488 711 438 711 q 710 602 628 711 q 793 353 793 493 q 766 190 793 272 q 681 49 739 108 q 549 -11 622 -11 q 435 24 503 -11 q 346 67 368 60 q 347 54 347 65 q 340 6 347 32 q 181 0 313 0 q 31 43 57 0 q 26 121 26 60 q 38 239 26 231 q 139 253 60 253 q 189 247 179 253 q 188 403 188 300 q 188 540 188 467 q 190 701 189 613 q 192 846 192 790 q 169 844 186 844 q 26 869 69 844 q 21 949 21 885 m 365 226 q 406 195 365 214 q 479 176 446 176 q 576 229 533 176 q 619 367 619 282 q 590 501 619 436 q 494 569 560 565 q 409 545 444 569 q 372 494 374 521 q 370 443 371 476 q 368 347 369 410 q 365 226 367 285 z "},"c":{"ha":847,"x_min":44,"x_max":801,"o":"m 44 329 q 74 463 44 397 q 158 585 104 529 q 301 675 213 640 q 496 710 389 710 q 547 708 529 710 l 558 743 q 639 751 600 751 q 788 706 715 751 q 796 604 796 639 q 756 485 796 501 q 681 469 717 469 q 517 496 614 469 l 525 550 q 481 553 497 553 q 305 497 379 553 q 231 335 231 440 q 283 203 231 246 q 407 160 335 160 q 519 178 450 160 l 515 228 q 685 274 585 274 q 750 267 713 274 q 801 119 801 203 q 792 10 801 85 q 631 -37 733 -37 q 567 -35 603 -37 l 551 -12 q 474 -17 511 -17 q 165 85 285 -17 q 44 329 44 188 z "},"d":{"ha":842,"x_min":47,"x_max":819,"o":"m 47 353 q 130 602 47 493 q 353 711 213 711 q 461 694 403 711 q 459 749 461 697 q 457 860 457 801 q 464 1011 457 997 q 676 1053 513 1053 q 739 1050 711 1053 q 780 1043 767 1047 q 801 1035 793 1039 q 811 1028 810 1031 l 814 1026 q 819 949 819 1014 q 814 869 819 882 q 671 844 768 844 q 649 846 654 844 q 652 632 649 775 q 656 421 656 489 q 651 247 656 333 q 701 253 661 253 q 803 239 781 253 q 814 121 814 231 q 810 43 814 60 q 646 0 776 0 q 500 6 567 0 q 493 54 493 32 q 494 67 493 65 q 405 24 472 60 q 292 -11 338 -11 q 160 49 218 -11 q 74 190 101 108 q 47 353 47 272 m 221 368 q 265 229 221 282 q 361 176 308 176 q 435 195 394 176 q 475 226 475 214 q 472 347 474 285 q 470 443 471 410 q 468 494 469 476 q 430 545 468 521 q 349 569 392 569 q 271 533 301 569 q 231 453 240 496 q 221 368 221 411 z "},"e":{"ha":776,"x_min":44,"x_max":765,"o":"m 44 290 q 158 578 44 447 q 411 708 271 708 q 558 656 497 708 q 619 518 619 603 q 538 349 619 419 q 324 279 457 279 q 217 303 247 279 q 264 197 218 236 q 369 157 310 157 q 496 218 447 157 q 500 242 496 229 q 632 292 561 292 q 653 290 646 292 q 765 126 744 240 q 755 103 764 115 q 736 81 746 90 q 708 60 726 72 q 680 43 690 49 q 649 26 669 38 q 626 14 629 15 q 613 16 618 14 q 602 23 607 18 q 596 30 597 28 q 590 41 594 32 q 585 51 586 50 q 364 -17 482 -17 q 138 68 232 -17 q 44 290 44 153 m 261 453 q 328 407 261 407 q 424 431 378 407 q 469 489 469 454 q 453 538 469 513 q 403 564 438 564 q 310 529 360 564 q 261 453 261 494 z "},"f":{"ha":535,"x_min":56,"x_max":594,"o":"m 56 540 q 74 669 56 646 q 156 688 94 681 q 153 812 156 740 q 151 901 151 883 q 187 1025 151 999 q 350 1051 222 1051 q 489 1043 446 1051 q 576 1015 532 1035 q 594 928 594 992 q 581 833 594 874 l 453 863 l 461 892 q 436 893 453 893 q 325 783 325 893 q 326 736 325 775 q 326 692 326 697 q 376 692 346 692 q 419 693 407 693 q 492 688 460 693 q 497 653 497 682 q 479 524 497 547 q 336 504 454 508 l 346 242 q 397 253 365 253 q 433 244 428 253 q 451 142 451 222 q 443 21 451 88 q 226 -4 393 -4 q 76 18 103 -4 q 63 108 63 38 q 103 232 63 208 q 143 244 124 244 q 161 242 147 244 q 159 350 161 256 q 157 501 157 444 q 151 501 156 501 q 136 500 146 500 l 119 500 q 61 506 100 500 q 56 540 56 511 z "},"g":{"ha":814,"x_min":43,"x_max":782,"o":"m 43 272 q 94 474 43 375 q 244 641 146 574 q 464 708 343 708 q 543 699 504 708 q 587 760 569 740 q 619 779 604 779 q 716 732 650 779 q 782 646 782 685 q 676 560 781 631 q 733 364 733 475 q 649 113 733 224 q 444 1 565 1 q 418 3 426 1 q 417 -4 417 0 q 453 -40 417 -25 q 535 -65 490 -56 q 617 -99 581 -74 q 654 -164 654 -124 q 607 -247 654 -210 q 492 -305 560 -285 q 361 -336 425 -325 q 253 -347 297 -347 q 175 -228 188 -347 q 456 -168 456 -215 q 413 -142 456 -153 q 318 -125 369 -132 q 224 -90 267 -118 q 181 -14 181 -61 q 186 24 181 6 q 78 126 114 60 q 43 272 43 192 m 217 285 q 254 179 217 222 q 353 136 292 136 q 502 206 433 136 q 571 368 571 275 q 533 480 571 436 q 428 524 494 524 q 277 447 338 524 q 217 285 217 369 z "},"h":{"ha":996,"x_min":3,"x_max":965,"o":"m 3 888 q 21 1017 3 993 q 197 1042 61 1042 q 289 1038 238 1042 q 343 1031 340 1033 q 357 714 357 1007 q 353 611 357 622 q 621 708 482 708 q 810 632 738 708 q 883 392 883 556 q 875 226 883 258 q 889 229 878 229 q 953 222 925 229 q 965 146 965 208 q 951 28 965 50 q 761 0 847 0 q 608 25 679 0 q 588 74 599 32 q 576 146 576 117 q 601 206 576 172 q 642 215 617 215 q 679 208 661 215 q 680 283 679 213 q 681 361 681 353 q 633 506 681 446 q 511 567 586 567 q 374 335 374 567 q 378 200 374 308 q 421 210 394 210 q 451 203 446 210 q 465 147 465 203 q 464 125 465 133 l 458 96 q 451 47 456 75 q 174 0 344 0 q 26 39 56 0 q 14 88 14 56 q 128 206 14 206 q 182 200 158 206 q 175 757 175 519 q 178 849 175 840 q 161 848 172 849 q 140 847 150 847 q 8 853 47 847 q 3 888 3 858 z "},"i":{"ha":497,"x_min":39,"x_max":451,"o":"m 39 115 q 47 196 39 186 q 89 208 64 206 q 161 211 106 211 q 153 401 153 299 q 167 544 153 514 q 76 550 99 544 q 86 629 78 588 q 103 700 89 647 q 275 710 154 710 q 365 704 324 710 q 427 691 406 699 q 449 676 449 683 q 451 626 451 676 q 438 526 451 547 q 404 518 432 518 q 339 525 353 518 q 324 272 324 428 q 328 206 324 208 q 351 207 336 207 q 432 192 401 207 q 436 167 436 186 q 426 83 436 132 q 399 17 417 35 q 290 0 382 0 q 49 40 72 0 q 39 115 39 58 m 150 981 q 192 1019 150 1019 q 267 999 226 1019 q 344 1028 296 1028 q 399 1007 375 1028 q 422 950 422 986 q 415 915 422 932 q 399 888 407 899 q 371 862 390 876 q 341 841 351 847 q 304 820 331 835 q 271 801 278 806 q 183 892 217 842 q 150 981 150 943 z "},"j":{"ha":668,"x_min":-83,"x_max":629,"o":"m -83 -233 q -51 -78 -83 -176 q 0 31 -18 19 q 26 35 11 35 q 92 25 54 35 q 143 6 131 15 q 146 -15 146 6 q 138 -68 146 -17 q 265 -122 215 -122 q 349 -47 322 -122 q 375 150 375 28 q 368 290 375 217 q 351 433 361 363 q 339 517 340 503 q 304 507 328 507 q 235 522 275 507 q 225 567 225 536 q 236 651 225 604 q 261 700 247 697 q 392 711 319 711 q 621 676 582 711 q 629 624 629 660 q 624 549 629 592 q 610 496 618 507 q 574 488 597 488 q 525 497 544 488 q 538 313 526 454 q 549 90 549 171 q 338 -306 549 -306 q 94 -221 235 -306 q 75 -264 82 -264 q 74 -264 74 -264 q 7 -271 67 -271 q -78 -260 -74 -271 q -83 -233 -83 -258 m 329 981 q 371 1019 329 1019 q 446 999 406 1019 q 524 1028 475 1028 q 578 1007 554 1028 q 601 950 601 986 q 594 915 601 932 q 578 888 586 899 q 550 862 569 876 q 520 841 531 847 q 483 820 510 835 q 450 801 457 806 q 363 892 396 842 q 329 981 329 943 z "},"k":{"ha":857,"x_min":11,"x_max":846,"o":"m 11 925 q 46 1017 11 994 q 213 1036 117 1036 q 354 1017 301 1036 q 372 939 372 999 q 354 853 372 874 q 300 847 321 847 q 314 561 301 781 q 359 593 329 572 q 408 628 389 614 q 449 661 428 643 q 481 694 469 679 q 492 724 492 710 q 478 749 492 736 q 443 739 468 739 q 425 767 433 746 q 417 806 417 788 q 425 826 417 822 q 581 854 508 854 q 733 824 660 854 q 740 785 740 807 q 707 717 740 726 q 689 715 703 715 q 643 726 654 715 q 617 688 642 718 q 545 610 593 657 q 443 521 497 564 q 669 356 576 465 q 761 200 761 246 q 788 206 772 206 q 822 197 800 206 q 846 117 846 186 q 825 24 846 56 q 696 -1 771 -1 q 528 21 633 -1 q 511 100 511 46 q 531 194 511 167 q 557 201 542 201 q 581 197 568 201 q 314 418 556 329 q 311 355 313 399 q 308 275 310 311 q 300 211 306 239 q 367 224 321 224 q 396 217 390 224 q 413 174 406 211 q 419 96 419 138 q 406 19 419 32 q 199 0 332 0 q 57 17 94 0 q 33 133 33 53 q 54 203 33 192 q 115 217 74 217 q 135 214 126 217 q 131 430 133 322 q 128 596 129 538 q 126 694 126 654 q 129 849 126 735 q 81 838 104 838 q 33 853 53 838 q 11 925 11 883 z "},"l":{"ha":442,"x_min":43,"x_max":403,"o":"m 43 125 q 53 194 43 185 q 133 211 89 211 q 118 492 118 303 q 132 878 118 714 q 69 883 92 878 q 67 928 67 911 q 96 1033 67 989 q 208 1047 156 1047 q 313 1033 275 1047 q 326 757 326 903 q 317 464 326 654 q 307 206 308 274 q 329 207 314 207 q 397 192 371 207 q 403 158 403 181 q 392 78 403 125 q 369 13 381 32 q 232 -1 351 -1 q 115 10 167 -1 q 53 38 63 21 q 43 125 43 54 z "},"m":{"ha":1478,"x_min":46,"x_max":1446,"o":"m 46 97 q 83 204 46 183 q 178 217 118 217 q 200 214 186 217 q 197 344 200 254 q 194 479 194 433 q 149 476 189 479 q 101 472 108 472 q 85 475 96 472 q 68 478 74 478 q 63 507 63 483 q 74 601 63 544 q 94 669 85 657 q 253 694 136 694 q 353 685 328 694 q 378 642 378 675 q 371 558 378 600 q 646 708 500 708 q 773 673 715 708 q 861 571 831 638 l 861 578 q 1124 708 986 708 q 1364 372 1364 708 q 1356 240 1364 307 q 1368 243 1356 243 q 1433 236 1389 243 q 1446 146 1446 222 q 1432 28 1446 50 q 1251 0 1328 0 q 1126 25 1197 0 q 1106 74 1117 32 q 1094 147 1094 117 q 1119 226 1094 193 q 1160 236 1135 236 q 1197 229 1179 236 q 1198 265 1197 233 q 1199 307 1199 297 q 1149 461 1199 397 q 1035 525 1099 525 q 956 502 997 525 q 892 442 914 479 q 892 410 893 432 q 883 242 892 310 l 886 242 q 889 243 888 243 q 975 236 933 243 q 988 146 988 222 q 974 28 988 50 q 779 0 869 0 q 640 25 711 0 q 619 74 631 32 q 608 147 608 117 q 633 226 608 193 q 674 236 649 236 q 725 229 707 236 q 726 265 725 233 q 726 306 726 297 q 678 459 726 393 q 558 525 631 525 q 444 474 496 525 q 392 315 392 424 q 396 214 392 276 q 439 224 413 224 q 469 217 464 224 q 483 161 483 217 q 469 47 483 149 q 211 -1 369 -1 q 58 39 92 -1 q 46 97 46 56 z "},"n":{"ha":1006,"x_min":46,"x_max":974,"o":"m 46 97 q 83 204 46 183 q 178 217 118 217 q 200 214 186 217 q 197 344 200 254 q 194 479 194 433 q 149 476 189 479 q 101 472 108 472 q 85 475 96 472 q 68 478 74 478 q 63 507 63 483 q 74 601 63 544 q 94 669 85 657 q 242 694 135 694 q 352 685 326 694 q 378 642 378 676 q 371 558 378 600 q 653 708 501 708 q 892 372 892 708 q 883 240 892 304 q 896 243 883 243 q 961 236 917 243 q 974 146 974 222 q 960 28 974 50 q 779 0 856 0 q 654 25 725 0 q 633 74 644 32 q 622 147 622 117 q 647 226 622 193 q 688 236 663 236 q 725 229 707 236 q 726 265 725 233 q 726 306 726 297 q 678 459 726 393 q 558 525 631 525 q 444 474 496 525 q 392 315 392 424 q 396 214 392 276 q 439 224 413 224 q 469 217 464 224 q 483 161 483 217 q 469 47 483 149 q 215 -1 369 -1 q 58 38 89 -1 q 46 97 46 53 z "},"o":{"ha":739,"x_min":49,"x_max":689,"o":"m 49 296 q 151 588 49 468 q 418 708 254 708 q 548 681 493 708 q 633 606 603 654 q 676 502 663 558 q 689 378 689 446 q 591 86 689 186 q 336 -14 493 -14 q 193 15 253 -14 q 103 91 133 43 q 61 189 74 139 q 49 296 49 239 m 247 307 q 290 188 247 238 q 393 138 333 138 q 482 180 444 138 q 533 270 519 222 q 547 360 547 318 q 510 469 547 422 q 415 515 472 515 q 297 449 346 515 q 247 307 247 383 z "},"p":{"ha":840,"x_min":19,"x_max":792,"o":"m 19 -250 q 25 -172 19 -185 q 168 -147 67 -147 q 190 -149 185 -147 q 188 67 190 -78 q 185 285 185 211 q 188 450 185 394 q 138 444 178 444 q 36 458 58 444 q 25 576 25 467 q 29 654 25 638 q 179 697 56 697 q 339 692 311 697 q 346 643 346 665 q 344 631 346 632 q 434 673 365 638 q 538 708 503 708 q 678 648 618 708 q 765 507 739 588 q 792 346 792 426 q 709 95 792 204 q 486 -14 626 -14 q 378 3 436 -14 q 380 -52 378 0 q 382 -162 382 -104 q 375 -306 382 -292 q 163 -347 326 -347 q 100 -344 128 -347 q 59 -337 72 -342 q 38 -329 46 -333 q 28 -322 29 -325 l 25 -321 q 19 -250 19 -308 m 364 471 q 367 350 365 413 q 369 254 368 288 q 371 203 369 221 q 407 153 371 178 q 488 128 443 128 q 566 163 535 128 q 608 241 597 199 q 618 328 618 283 q 574 469 618 417 q 478 521 531 521 q 404 502 444 521 q 364 471 364 483 z "},"q":{"ha":840,"x_min":47,"x_max":819,"o":"m 47 344 q 74 507 47 425 q 160 649 101 589 q 292 708 218 708 q 405 673 338 708 q 494 631 472 638 q 493 643 493 632 q 500 692 493 665 q 660 697 528 697 q 810 654 783 697 q 814 576 814 638 q 803 458 814 467 q 701 444 781 444 q 651 450 661 444 q 653 328 653 429 q 649 -149 653 51 q 671 -147 654 -147 q 814 -172 771 -147 q 819 -250 819 -185 q 814 -321 819 -308 l 811 -322 q 801 -329 810 -325 q 780 -337 793 -333 q 739 -344 767 -342 q 676 -347 711 -347 q 464 -306 513 -347 q 457 -162 457 -292 q 459 -52 457 -104 q 461 3 461 0 q 353 -14 403 -14 q 130 95 213 -14 q 47 344 47 204 m 221 328 q 231 241 221 283 q 273 163 242 199 q 351 128 304 128 q 432 153 396 128 q 468 203 468 178 q 470 254 469 221 q 472 350 471 288 q 475 471 474 413 q 435 502 475 483 q 361 521 394 521 q 265 469 308 521 q 221 328 221 417 z "},"r":{"ha":717,"x_min":56,"x_max":700,"o":"m 56 607 q 64 688 56 664 q 218 711 143 711 q 357 674 308 711 q 356 603 356 650 l 361 614 q 377 641 365 625 q 406 673 389 657 q 453 700 422 689 q 521 711 483 711 q 700 621 626 711 q 651 528 690 560 q 574 493 613 496 q 475 529 522 529 q 338 354 338 529 q 353 224 338 294 q 392 231 356 231 q 443 221 433 231 q 460 135 460 194 q 428 17 460 44 q 257 1 357 1 q 67 32 93 1 q 63 117 63 49 q 71 221 63 214 q 125 233 81 233 q 172 224 157 233 q 160 439 160 256 q 164 508 160 500 q 133 506 147 506 q 64 531 83 506 q 56 607 56 551 z "},"s":{"ha":772,"x_min":40,"x_max":731,"o":"m 40 42 q 139 240 49 186 q 168 242 149 242 q 281 193 242 242 q 281 188 281 192 q 282 183 282 185 q 279 168 282 179 q 324 134 292 147 q 394 121 357 121 q 478 146 447 121 q 510 206 510 171 q 397 279 510 274 q 328 283 354 281 q 256 293 301 286 q 182 314 211 300 q 123 349 153 328 q 78 404 93 369 q 63 485 63 439 q 148 649 63 593 q 360 704 233 704 q 549 679 471 704 q 572 707 557 693 q 594 724 586 721 q 731 654 697 714 q 632 456 722 510 q 603 454 622 454 q 490 503 529 454 q 490 508 490 504 q 489 513 489 511 q 492 528 489 517 q 437 558 476 546 q 356 571 397 571 q 249 500 249 571 q 400 411 249 417 q 468 408 443 410 q 535 399 493 406 q 604 380 578 393 q 658 346 631 367 q 698 291 685 325 q 711 211 711 257 q 389 -8 711 -8 q 208 17 281 -8 q 176 -28 186 -25 q 40 42 74 -18 z "},"t":{"ha":583,"x_min":17,"x_max":561,"o":"m 17 660 q 25 699 17 690 q 90 703 50 703 l 121 703 l 121 964 q 214 969 193 969 q 299 964 235 969 l 313 700 q 488 681 465 693 q 508 569 508 644 q 500 531 508 539 q 401 525 457 525 q 347 526 383 525 q 293 526 311 526 q 292 411 293 481 q 292 313 292 342 q 306 180 292 204 q 386 156 321 156 q 428 158 411 156 l 419 188 l 547 217 q 561 122 561 176 q 543 8 561 32 q 317 -11 407 -11 q 161 22 199 -11 q 135 63 144 38 q 122 134 125 88 q 117 227 118 181 q 113 363 115 274 q 106 531 110 451 q 38 549 61 535 q 17 660 17 585 z "},"u":{"ha":1007,"x_min":32,"x_max":960,"o":"m 32 549 q 46 667 32 644 q 226 694 150 694 q 351 669 281 694 q 372 620 361 663 q 383 547 383 578 q 358 468 383 501 q 318 458 343 458 q 281 465 299 458 q 280 429 281 461 q 279 389 279 397 q 327 235 279 301 q 447 169 375 169 q 562 220 510 169 q 614 379 614 271 q 610 481 614 418 q 567 471 593 471 q 536 478 542 471 q 522 533 522 478 q 536 647 522 546 q 794 696 636 696 q 947 656 914 696 q 960 597 960 639 q 922 490 960 511 q 839 478 872 478 q 806 481 819 478 q 808 351 806 440 q 811 215 811 261 q 857 219 817 215 q 904 222 897 222 q 921 219 910 222 q 938 217 932 217 q 943 188 943 211 q 932 94 943 150 q 911 25 921 38 q 753 0 869 0 q 653 10 678 0 q 628 53 628 19 q 635 136 628 94 q 353 -14 504 -14 q 114 322 114 -14 q 122 453 114 389 q 110 451 121 451 q 44 458 89 451 q 32 549 32 472 z "},"v":{"ha":835,"x_min":11,"x_max":822,"o":"m 11 593 q 290 697 124 683 q 324 638 303 678 q 344 586 344 599 q 311 563 342 575 q 267 550 281 550 q 331 377 279 497 q 417 200 382 257 q 567 550 503 328 q 520 562 547 551 q 489 585 493 572 q 515 644 490 593 q 543 697 539 694 q 822 593 719 697 q 783 446 808 504 q 725 467 757 451 q 702 383 719 428 q 670 310 685 338 q 624 232 656 283 q 583 164 593 181 q 650 115 622 151 q 628 52 649 88 q 585 11 608 17 q 390 0 533 0 q 249 11 276 0 q 203 53 222 24 q 183 115 183 83 q 217 144 192 125 q 250 164 243 164 q 108 467 114 364 q 50 446 76 451 q 11 593 25 511 z "},"w":{"ha":1260,"x_min":14,"x_max":1246,"o":"m 14 561 q 128 647 64 617 q 307 696 193 678 q 348 637 335 679 q 361 554 361 594 q 328 531 358 543 q 283 518 297 518 q 299 470 286 499 q 323 422 313 442 q 358 357 333 401 q 392 297 383 313 q 452 369 419 318 q 506 465 485 421 q 553 569 526 508 q 583 638 579 629 q 650 661 614 661 q 719 638 685 661 q 740 568 725 619 q 767 485 756 517 q 794 410 778 453 q 828 335 810 367 q 868 283 847 304 q 934 406 899 332 q 976 518 969 481 q 930 532 961 519 q 899 554 899 544 l 900 569 q 901 595 900 586 q 905 622 901 604 q 913 651 908 639 q 928 676 918 663 q 953 696 939 689 q 1126 649 1065 678 q 1246 561 1188 619 q 1207 414 1232 472 q 1149 435 1181 419 q 1121 362 1147 414 q 1050 236 1094 310 l 1007 164 q 1074 115 1046 151 q 1006 11 1074 65 q 872 0 961 0 q 819 31 850 0 q 749 124 789 61 q 688 224 710 188 q 629 329 667 260 q 388 0 451 0 q 253 11 281 0 q 206 60 226 25 q 186 115 186 94 q 220 144 194 125 q 253 164 246 164 q 111 435 114 389 q 53 414 79 419 q 14 561 28 479 z "},"x":{"ha":944,"x_min":28,"x_max":914,"o":"m 28 24 q 68 143 28 90 q 93 144 75 144 q 129 140 117 144 q 308 350 222 285 q 196 444 249 389 q 118 553 143 499 q 68 549 100 549 q 29 669 32 594 q 188 696 97 696 q 340 685 278 696 q 374 637 354 683 q 394 567 394 590 q 350 554 374 554 q 313 557 326 554 q 347 519 317 553 q 406 463 378 486 q 471 422 435 440 q 631 557 569 483 q 588 554 621 554 q 549 567 556 554 q 568 628 549 585 q 601 685 588 671 q 751 697 660 697 q 913 669 844 697 q 875 549 913 586 q 858 542 865 542 q 825 553 851 542 q 638 350 719 406 q 811 144 774 233 q 838 150 822 150 q 875 143 850 150 q 914 31 914 114 l 914 24 q 757 -6 844 -6 q 601 7 674 -6 q 565 58 581 18 q 549 125 549 97 q 590 140 563 140 q 617 136 606 140 q 555 214 594 176 q 471 268 515 251 q 435 250 453 261 q 407 230 418 239 q 381 205 396 221 q 361 182 367 189 q 342 157 356 175 q 326 136 328 139 q 349 138 331 136 q 374 139 367 139 q 408 128 399 139 q 387 58 407 108 q 354 7 367 8 q 182 -6 279 -6 q 28 24 94 -6 z "},"y":{"ha":992,"x_min":3,"x_max":961,"o":"m 3 -276 q 19 -144 3 -215 q 57 -47 35 -72 q 97 -39 75 -39 q 200 -72 151 -39 q 206 -90 206 -76 q 201 -115 206 -99 q 301 -167 254 -154 q 421 -179 347 -179 q 513 -173 475 -179 q 591 -149 551 -167 q 651 -92 631 -132 q 672 10 672 -51 q 663 97 672 61 q 415 -1 544 -1 q 196 108 279 -1 q 113 385 113 217 q 121 467 113 431 q 101 463 113 463 q 68 467 90 463 q 43 472 46 472 q 25 569 25 510 q 44 667 25 633 q 222 693 153 693 q 374 669 307 693 q 407 568 407 628 q 381 482 407 517 q 351 474 367 474 q 318 481 339 474 q 301 376 301 431 q 449 192 301 192 q 596 253 535 192 q 657 407 657 314 q 646 481 657 440 q 596 469 626 469 q 572 478 578 469 q 549 561 549 493 q 572 647 549 632 q 736 696 603 696 q 866 685 800 696 q 956 663 932 674 q 961 593 961 626 q 944 510 961 532 q 914 497 932 497 q 895 499 904 497 q 875 506 886 501 q 860 511 864 510 q 868 244 868 278 q 851 -4 868 100 q 801 -174 833 -108 q 717 -279 769 -240 q 606 -333 665 -318 q 463 -347 546 -347 q 174 -282 303 -347 q 158 -328 161 -328 q 89 -347 135 -347 q 35 -340 61 -347 q 7 -324 10 -332 q 3 -276 3 -306 z "},"z":{"ha":868,"x_min":26,"x_max":815,"o":"m 26 40 q 135 199 26 96 q 353 382 243 303 q 546 511 464 461 q 446 549 510 549 q 253 492 369 549 q 257 458 257 479 q 253 439 257 444 q 176 428 215 428 q 90 449 122 428 q 67 549 67 457 q 70 616 67 583 q 79 669 74 649 q 90 689 85 690 q 158 693 103 693 q 265 682 260 693 q 275 651 274 681 q 510 694 390 694 q 682 670 603 694 q 808 611 761 646 q 731 490 785 553 q 610 374 676 428 q 488 280 543 319 q 378 206 432 240 q 322 171 324 172 q 408 156 353 156 q 534 175 472 156 q 624 229 596 194 q 622 244 622 235 q 638 292 622 264 q 715 303 664 303 q 789 292 764 303 q 810 265 804 281 q 815 206 815 249 q 806 74 815 140 q 786 4 797 8 q 701 -1 758 -1 q 611 11 619 -1 q 601 56 604 13 q 464 14 565 28 q 271 0 363 0 q 26 40 99 0 z "},"{":{"ha":604,"x_min":-8,"x_max":586,"o":"m -8 357 q 24 426 -8 401 q 225 533 225 426 q 202 652 225 561 q 179 781 179 743 q 233 890 179 853 q 369 928 288 928 q 561 875 481 928 q 583 832 583 857 q 561 781 583 813 q 404 821 472 821 q 326 799 354 821 q 297 746 297 778 q 321 642 297 724 q 344 531 344 561 q 315 456 344 490 q 249 404 285 422 q 183 372 213 386 q 153 350 153 357 q 183 328 153 343 q 249 294 213 313 q 315 244 285 276 q 344 172 344 211 q 321 60 344 142 q 297 -40 297 -21 q 331 -92 297 -75 q 415 -108 365 -108 q 554 -78 483 -108 q 586 -121 586 -93 q 569 -172 586 -136 q 371 -225 486 -225 q 234 -188 289 -225 q 179 -79 179 -151 q 202 49 179 -42 q 225 171 225 140 q 185 243 225 224 q 39 278 144 263 q -8 357 -8 299 z "},"|":{"ha":263,"x_min":82,"x_max":181,"o":"m 82 421 q 111 985 82 726 q 153 1003 122 1000 q 181 433 181 733 q 153 -240 181 135 q 111 -258 147 -256 q 82 421 82 110 z "},"}":{"ha":604,"x_min":18,"x_max":613,"o":"m 18 -121 q 50 -78 18 -93 q 189 -108 121 -108 q 273 -92 239 -108 q 307 -40 307 -75 q 283 60 307 -21 q 260 172 260 142 q 290 244 260 211 q 356 294 319 276 q 422 328 392 313 q 451 350 451 343 q 422 372 451 357 q 356 404 392 386 q 290 456 319 422 q 260 531 260 490 q 283 642 260 561 q 307 746 307 724 q 278 799 307 778 q 200 821 250 821 q 43 781 132 821 q 21 832 21 813 q 43 875 21 857 q 235 928 124 928 q 371 890 317 928 q 425 781 425 853 q 402 652 425 743 q 379 533 379 561 q 581 426 379 426 q 613 357 613 401 q 565 278 613 299 q 419 243 460 263 q 379 171 379 224 q 402 49 379 140 q 425 -79 425 -42 q 370 -188 425 -151 q 233 -225 315 -225 q 35 -172 118 -225 q 18 -121 18 -136 z "},"~":{"ha":826,"x_min":53,"x_max":774,"o":"m 53 283 q 89 387 61 360 q 175 414 117 414 q 410 381 239 414 q 618 347 581 347 q 664 364 649 347 q 693 433 679 381 q 711 439 704 439 q 774 388 742 439 q 737 285 765 313 q 653 257 708 257 q 420 290 593 257 q 204 324 247 324 q 162 308 178 324 q 133 239 146 292 q 110 232 122 232 q 53 283 78 232 z "},"":{"ha":331,"x_min":60,"x_max":271,"o":"m 60 -36 q 83 188 60 76 q 146 374 107 300 q 169 375 156 375 q 199 369 186 375 q 271 4 271 200 q 219 -314 271 -156 q 165 -326 193 -326 q 113 -314 146 -326 q 60 -36 60 -210 m 122 558 q 131 644 122 600 q 172 651 151 651 q 214 644 190 651 q 226 561 226 603 q 214 479 226 521 q 176 474 192 474 q 131 479 160 474 q 122 558 122 519 z "},"":{"ha":868,"x_min":39,"x_max":796,"o":"m 39 329 q 124 553 39 447 q 358 694 208 658 l 378 874 q 419 892 389 889 q 428 801 422 865 q 438 707 435 738 q 490 710 471 710 q 542 708 524 710 l 553 743 q 633 751 594 751 q 782 706 710 751 q 790 604 790 639 q 750 485 790 501 q 675 469 711 469 q 511 496 608 469 l 519 550 q 476 553 492 553 q 460 552 469 553 q 446 551 450 551 q 447 497 446 535 q 447 424 447 460 q 440 163 447 297 q 514 178 478 167 l 510 228 q 679 274 579 274 q 744 267 707 274 q 796 119 796 203 q 786 10 796 85 q 625 -37 728 -37 q 561 -35 597 -37 l 546 -12 q 472 -17 506 -17 q 448 -16 461 -17 q 428 -15 435 -15 l 419 -129 q 378 -147 414 -144 l 367 -7 q 128 113 218 18 q 39 329 39 208 m 225 333 q 356 165 225 193 q 349 422 349 272 l 349 526 q 225 333 225 471 z "},"":{"ha":918,"x_min":53,"x_max":882,"o":"m 53 510 q 71 592 53 565 q 168 601 139 599 q 290 931 196 810 q 553 1051 383 1051 q 751 1018 642 1051 q 781 946 781 989 q 763 879 781 906 q 611 901 651 901 q 441 831 496 901 q 357 604 386 760 q 538 592 494 601 q 558 510 558 567 q 556 496 558 500 q 548 485 554 492 q 538 471 542 479 q 340 456 488 461 q 332 200 340 253 q 718 147 610 147 q 753 160 744 147 q 774 219 761 172 q 788 224 781 224 q 847 175 817 224 q 882 76 876 126 q 728 -17 846 -17 q 525 19 667 -17 q 325 54 383 54 q 293 53 303 54 q 256 -3 269 11 q 214 -11 233 -11 q 143 8 181 -11 q 92 56 106 28 q 144 238 133 158 q 156 461 156 318 q 71 471 94 467 q 66 478 68 475 q 63 484 64 482 q 59 488 61 486 q 56 492 57 490 l 56 497 q 53 502 54 499 q 53 510 53 506 z "},"":{"ha":976,"x_min":49,"x_max":936,"o":"m 49 76 q 125 181 76 132 q 176 226 150 206 q 128 394 128 296 q 226 668 128 543 q 167 721 193 693 q 90 825 118 771 q 118 878 99 858 q 167 903 136 896 q 274 822 231 868 q 326 760 306 788 q 549 829 428 829 q 713 775 647 829 q 753 822 733 803 q 860 903 801 871 q 908 878 890 896 q 936 825 928 858 q 860 721 908 769 q 790 661 825 686 q 819 486 819 582 q 742 235 819 332 q 804 181 783 201 q 881 76 853 132 q 853 24 872 43 q 804 -1 835 6 q 697 79 746 31 q 638 150 667 110 q 449 107 557 107 q 283 139 351 107 q 232 79 253 100 q 125 -1 183 31 q 76 24 94 6 q 49 76 57 43 m 310 419 q 349 310 310 356 q 451 264 388 264 q 604 338 533 264 q 675 506 675 413 q 634 620 675 574 q 528 667 593 667 q 374 586 439 667 q 310 419 310 506 z "},"":{"ha":1007,"x_min":36,"x_max":972,"o":"m 36 840 q 141 917 60 875 q 329 975 222 958 q 383 861 383 890 q 349 838 383 854 q 306 825 324 825 q 385 714 314 799 q 511 572 457 629 q 619 694 546 593 q 703 825 693 794 q 660 838 686 825 q 625 860 626 853 q 650 921 626 871 q 679 975 674 971 q 972 840 840 975 q 933 721 956 747 q 875 742 907 726 q 847 697 869 733 q 807 640 824 661 q 762 584 790 618 q 699 519 733 550 q 622 461 664 489 q 786 449 731 458 q 792 415 792 433 q 786 397 792 408 q 611 381 746 386 q 610 343 610 369 q 786 331 742 340 q 792 311 792 315 q 786 279 792 290 q 607 263 753 268 q 603 168 604 175 q 674 149 638 168 q 679 119 679 143 q 672 57 679 93 q 661 11 665 21 q 497 -1 651 -1 q 425 -1 447 -1 q 376 1 403 0 q 336 8 349 3 q 318 21 324 13 q 313 90 313 35 q 324 151 313 140 q 404 168 358 168 q 402 213 403 179 q 401 264 401 247 q 373 265 397 264 q 325 267 349 265 q 275 269 301 268 q 231 274 249 271 q 208 281 213 276 q 203 315 203 289 q 208 331 203 318 q 399 343 279 339 q 397 382 397 356 q 208 399 214 392 q 203 419 203 406 q 208 449 203 436 q 388 461 278 457 q 223 614 304 515 q 133 742 142 713 q 75 721 101 726 q 36 840 47 775 z "},"":{"ha":282,"x_min":92,"x_max":190,"o":"m 92 -1 q 107 231 92 117 q 136 236 119 236 q 171 231 163 236 q 190 10 190 121 q 172 -222 190 -158 q 140 -228 161 -228 q 107 -222 122 -228 q 92 -1 92 -151 m 92 642 q 107 863 92 792 q 140 868 122 868 q 172 863 161 868 q 190 642 190 800 q 171 410 190 494 q 136 404 163 404 q 107 410 119 404 q 92 642 92 525 z "},"":{"ha":642,"x_min":61,"x_max":576,"o":"m 61 68 q 69 129 61 106 q 99 190 76 153 q 181 182 169 190 q 188 149 185 172 q 288 114 215 114 q 383 178 383 114 q 352 236 383 214 q 276 271 321 258 q 188 299 232 283 q 112 350 143 315 q 81 439 81 385 q 121 576 81 504 q 111 639 111 606 q 177 801 111 739 q 332 864 243 864 q 453 832 393 864 q 481 865 461 854 q 531 875 500 875 q 569 863 561 875 q 576 800 576 844 q 539 701 576 711 q 506 699 519 699 q 458 710 474 699 q 453 739 453 724 q 358 760 404 760 q 285 738 311 760 q 260 682 260 715 q 292 625 260 646 q 372 594 325 604 q 465 571 418 583 q 544 526 511 558 q 576 443 576 494 q 565 388 576 415 q 540 343 553 361 q 499 294 526 325 q 517 206 517 250 q 449 59 517 118 q 289 0 382 0 q 182 33 228 0 q 157 3 178 24 q 122 -1 142 -1 q 67 6 92 -1 q 61 68 61 35 m 215 432 q 256 375 215 393 q 354 357 297 357 q 383 358 374 357 q 444 428 444 394 q 392 485 444 461 q 283 508 340 508 q 244 506 264 508 q 215 432 215 465 z "},"":{"ha":1157,"x_min":258,"x_max":664,"o":"m 258 819 q 289 913 258 868 q 344 924 328 924 q 399 913 371 924 q 428 815 428 868 q 399 713 428 764 q 350 701 376 701 q 289 713 324 701 q 258 819 258 767 m 494 819 q 525 913 494 868 q 581 924 564 924 q 635 913 607 924 q 664 815 664 868 q 635 713 664 764 q 586 701 613 701 q 525 713 560 701 q 494 819 494 767 z "},"":{"ha":1081,"x_min":51,"x_max":1024,"o":"m 51 404 q 95 620 51 511 q 214 817 139 729 q 400 962 289 906 q 636 1018 511 1018 q 817 978 740 1018 q 938 871 894 939 q 1003 720 982 803 q 1024 542 1024 638 q 878 136 1024 274 q 499 -1 732 -1 q 165 115 278 -1 q 51 404 51 231 m 207 417 q 278 216 207 301 q 492 131 349 131 q 776 254 664 131 q 889 561 889 378 q 811 796 889 713 q 615 879 733 879 q 408 805 504 879 q 259 625 311 731 q 207 417 207 519 m 328 515 q 376 683 328 608 q 492 757 425 757 q 610 703 546 757 q 613 715 611 703 q 616 738 614 726 q 622 751 618 750 q 634 752 624 751 q 656 753 644 753 q 713 746 704 753 q 719 636 719 708 q 646 576 719 576 q 597 594 597 576 q 600 601 597 599 q 519 635 556 635 q 459 600 481 635 q 438 517 438 565 q 460 432 438 468 q 524 396 483 396 q 600 421 558 396 l 600 428 q 599 438 599 433 q 608 443 599 442 q 700 436 679 443 q 706 428 703 432 q 711 422 710 424 q 714 416 713 419 q 717 410 715 413 q 719 404 718 408 q 719 396 719 400 l 719 386 q 713 276 719 315 q 661 269 706 269 q 618 280 626 269 q 610 321 610 290 q 494 269 546 269 q 377 345 426 269 q 328 515 328 421 z "},"":{"ha":676,"x_min":40,"x_max":614,"o":"m 40 633 q 113 844 40 749 q 296 939 186 939 q 411 878 365 939 q 410 918 411 906 q 526 951 451 951 q 556 949 543 951 q 574 944 569 946 q 591 935 578 943 q 608 925 604 928 q 614 876 614 918 q 608 810 614 817 q 572 794 600 794 q 562 795 568 794 q 554 796 556 796 q 556 736 556 793 q 549 560 556 569 q 563 563 560 563 q 588 558 571 563 l 604 556 q 610 479 610 551 q 609 448 610 464 q 608 431 608 432 q 443 406 569 406 q 404 407 418 406 q 399 433 399 424 q 399 440 399 436 q 400 444 400 443 q 263 400 349 400 q 99 467 157 400 q 40 633 40 535 m 190 663 q 222 565 190 607 q 311 524 254 524 q 397 553 358 524 l 397 753 q 365 785 397 768 q 303 801 332 801 q 224 761 258 801 q 190 663 190 721 z "},"":{"ha":610,"x_min":40,"x_max":564,"o":"m 40 332 q 264 663 138 538 q 310 685 286 685 q 336 663 329 685 q 133 332 318 474 q 328 15 293 228 q 288 -15 311 -15 q 267 -7 278 -15 q 148 130 224 22 q 40 332 72 238 m 268 332 q 492 663 365 538 q 538 685 514 685 q 564 663 557 685 q 361 332 546 474 q 556 15 521 228 q 515 -15 539 -15 q 494 -7 506 -15 q 376 130 451 22 q 268 332 300 238 z "},"":{"ha":726,"x_min":46,"x_max":643,"o":"m 46 597 q 57 631 46 613 q 314 649 90 649 q 633 628 515 649 q 643 515 643 593 q 633 360 643 418 q 600 350 614 350 q 572 360 586 350 q 564 514 564 408 q 565 564 564 544 q 314 557 450 557 q 57 569 111 557 q 46 597 46 583 z "},"":{"ha":515,"x_min":72,"x_max":439,"o":"m 72 371 q 78 403 72 392 q 240 421 142 421 q 433 401 361 421 q 439 367 439 393 q 433 338 439 350 q 243 322 319 322 q 78 338 149 322 q 72 371 72 353 z "},"":{"ha":1081,"x_min":51,"x_max":1024,"o":"m 51 404 q 95 620 51 511 q 214 817 139 729 q 400 962 289 906 q 636 1018 511 1018 q 817 978 740 1018 q 938 871 894 939 q 1003 720 982 803 q 1024 542 1024 638 q 878 136 1024 274 q 499 -1 732 -1 q 165 115 278 -1 q 51 404 51 231 m 207 417 q 278 216 207 301 q 492 131 349 131 q 776 254 664 131 q 889 561 889 378 q 811 796 889 713 q 615 879 733 879 q 408 805 504 879 q 259 625 311 731 q 207 417 207 519 m 343 328 q 350 361 343 344 q 379 371 357 371 q 385 617 379 588 q 354 621 378 617 q 343 664 343 635 q 351 710 343 685 q 421 731 367 731 q 457 725 442 731 q 458 697 458 718 q 575 738 506 738 q 686 695 644 738 q 728 597 728 653 q 646 488 728 515 q 717 439 686 475 q 747 361 747 403 q 775 356 769 361 q 785 328 785 343 q 772 292 785 307 q 715 285 758 285 q 632 296 663 285 q 614 335 614 304 q 618 353 614 347 q 656 363 626 360 q 594 427 653 407 q 482 447 536 447 l 474 371 q 506 361 496 371 q 514 333 514 350 q 506 303 514 315 q 428 290 489 290 q 350 303 357 290 q 343 328 343 310 m 481 564 q 529 522 481 522 q 597 545 565 522 q 629 603 629 568 q 614 639 629 626 q 575 651 599 651 q 509 623 538 651 q 481 564 481 594 z "},"":{"ha":1157,"x_min":0,"x_max":0,"o":""},"":{"ha":599,"x_min":39,"x_max":556,"o":"m 39 639 q 129 862 39 758 q 350 965 219 965 q 506 893 456 965 q 556 711 556 821 q 478 497 556 569 q 279 424 401 424 q 101 485 163 424 q 39 639 39 547 m 160 653 q 191 567 160 603 q 269 532 222 532 q 389 591 333 532 q 444 725 444 650 q 415 814 444 778 q 335 850 385 850 q 212 785 264 850 q 160 653 160 721 z "},"":{"ha":776,"x_min":46,"x_max":731,"o":"m 46 40 q 64 78 46 56 q 486 99 235 99 q 707 86 596 99 q 731 42 731 60 q 707 7 731 25 q 392 -14 626 -14 q 61 4 108 -14 q 46 40 46 28 m 61 556 q 82 594 61 567 q 193 608 114 608 q 350 594 289 608 q 331 743 331 672 q 350 871 331 813 q 392 888 381 888 q 431 871 406 888 q 450 739 450 808 q 431 594 450 668 q 556 606 488 606 q 699 594 624 606 q 713 558 713 576 q 699 519 713 539 q 558 501 650 501 q 431 519 493 501 q 450 361 450 460 q 431 243 450 301 q 390 231 403 231 q 350 243 374 231 q 335 358 335 317 q 350 519 335 457 q 185 504 281 504 q 82 519 143 504 q 61 556 61 542 z "},"":{"ha":531,"x_min":60,"x_max":475,"o":"m 60 479 q 89 580 60 533 q 159 656 118 626 q 242 710 200 686 q 313 754 283 735 q 342 789 342 774 q 269 853 342 853 q 201 836 233 853 q 165 799 168 819 q 164 782 165 790 q 118 769 144 769 q 94 775 104 769 q 68 881 68 793 q 75 928 68 917 q 121 940 103 940 q 158 935 138 940 q 165 908 164 917 q 297 944 211 944 q 411 901 363 944 q 460 789 460 857 q 434 710 460 744 q 371 655 408 675 q 297 617 333 635 q 234 578 260 600 q 208 531 208 557 q 272 522 225 522 q 364 533 339 522 q 372 571 364 550 q 425 576 394 576 q 456 571 449 576 q 475 478 475 544 q 456 413 475 432 q 407 410 450 410 q 356 418 361 410 l 353 443 q 264 422 319 422 q 182 429 244 422 q 179 418 181 419 q 119 406 156 406 q 72 413 93 406 q 60 479 60 439 z "},"":{"ha":478,"x_min":28,"x_max":428,"o":"m 28 517 q 65 564 33 533 q 138 604 96 594 l 171 553 q 158 535 168 544 q 200 518 175 518 q 270 547 238 518 q 303 611 303 575 q 281 660 303 639 q 253 657 264 657 q 225 661 236 657 q 214 718 214 676 q 219 765 214 753 q 260 774 224 774 q 288 769 281 774 q 306 825 306 792 q 281 872 306 853 q 225 890 256 890 q 183 875 199 890 q 185 864 183 868 q 146 847 175 847 q 121 850 135 847 q 99 892 111 854 q 86 949 86 929 q 110 961 88 956 q 149 967 133 967 l 154 960 q 239 985 194 985 q 365 934 310 985 q 421 810 421 883 q 378 708 421 751 q 428 601 428 663 q 358 470 428 519 q 194 421 288 421 q 72 467 114 421 q 53 460 56 460 q 28 517 28 485 z "},"":{"ha":1157,"x_min":525,"x_max":794,"o":"m 525 826 q 644 1036 582 968 q 682 1039 657 1039 q 794 1003 743 1039 q 685 876 757 938 q 560 815 614 815 q 525 826 540 815 z "},"":{"ha":1064,"x_min":42,"x_max":1025,"o":"m 42 -258 q 57 -164 42 -201 q 94 -146 64 -153 q 149 -139 125 -139 q 171 -140 165 -139 q 168 26 171 -119 q 165 251 165 171 q 175 453 165 422 q 163 451 174 451 q 97 458 142 451 q 81 556 81 488 q 99 667 81 635 q 264 694 199 694 q 400 669 328 694 q 421 620 410 663 q 432 547 432 578 q 407 468 432 501 q 368 458 392 458 q 358 460 361 458 q 352 463 356 461 q 344 467 349 465 q 333 382 333 418 q 392 230 333 285 q 529 175 450 175 q 667 231 608 175 q 725 390 725 288 q 714 481 725 436 q 664 469 694 469 q 640 478 646 469 q 617 563 617 486 q 640 647 617 633 q 839 696 689 696 q 1010 656 972 696 q 1025 593 1025 633 q 985 490 1025 514 q 947 478 968 478 q 926 481 940 478 q 929 351 926 440 q 932 215 932 261 q 951 217 933 215 q 976 219 968 219 q 1000 217 986 219 q 1007 179 1007 208 q 996 90 1007 139 q 974 25 985 42 q 912 8 964 19 q 815 -4 860 -4 q 744 13 767 -4 q 736 56 736 36 q 739 83 736 67 q 483 -1 618 -1 q 342 40 403 -1 q 346 -154 346 -39 q 339 -306 346 -292 q 229 -347 338 -347 q 147 -342 192 -347 q 76 -331 103 -337 q 49 -322 49 -325 q 42 -258 42 -292 z "},"":{"ha":1011,"x_min":35,"x_max":967,"o":"m 35 665 q 167 881 35 786 q 475 976 299 976 q 640 958 550 976 q 797 908 731 939 q 946 893 875 908 q 967 853 967 868 q 946 800 967 838 q 829 781 886 785 q 858 422 858 626 q 801 -225 858 117 q 783 -242 793 -232 q 768 -257 774 -253 q 758 -261 763 -261 q 728 -225 749 -261 q 660 357 660 54 q 726 782 660 604 l 421 782 q 460 432 460 617 q 404 -225 460 125 q 374 -258 382 -258 q 365 -255 369 -258 q 349 -242 360 -251 q 331 -225 339 -232 q 282 73 301 -106 q 263 417 263 251 q 35 665 35 513 z "},"":{"ha":303,"x_min":58,"x_max":244,"o":"m 58 442 q 83 518 58 482 q 150 542 115 542 q 221 518 185 542 q 244 439 244 481 q 221 353 244 397 q 147 326 181 326 q 83 353 114 326 q 58 442 58 400 z "},"":{"ha":1157,"x_min":350,"x_max":650,"o":"m 350 -287 q 364 -231 350 -253 q 397 -226 381 -226 q 429 -231 413 -226 l 429 -242 q 499 -275 463 -275 q 549 -251 529 -275 q 569 -187 569 -226 q 554 -129 569 -154 q 517 -104 539 -104 q 478 -126 501 -104 q 442 -149 454 -149 q 406 -142 422 -149 q 390 -74 390 -119 q 399 8 390 -36 q 457 13 403 13 q 461 -6 460 13 q 463 -43 463 -25 q 465 -61 464 -61 q 542 -29 503 -29 q 621 -74 592 -29 q 650 -181 650 -119 q 616 -297 650 -247 q 521 -346 582 -346 q 424 -312 474 -346 q 415 -344 424 -342 q 400 -345 410 -344 q 386 -346 390 -346 q 357 -342 372 -346 q 350 -287 350 -311 z "},"":{"ha":365,"x_min":36,"x_max":311,"o":"m 36 871 q 47 922 36 900 q 200 979 114 979 q 264 965 238 979 q 281 743 281 878 q 264 522 281 608 q 275 524 268 524 q 307 514 292 524 q 311 479 311 497 q 294 419 311 442 q 183 406 228 406 q 94 431 119 406 q 83 483 83 458 q 94 517 83 506 q 143 525 111 525 q 139 701 139 614 q 143 869 139 786 q 125 857 139 867 q 100 840 111 847 q 74 826 89 833 q 47 818 58 819 q 36 871 36 840 z "},"":{"ha":599,"x_min":39,"x_max":556,"o":"m 39 639 q 129 862 39 758 q 350 965 219 965 q 506 893 456 965 q 556 711 556 821 q 478 497 556 569 q 279 424 401 424 q 101 485 163 424 q 39 639 39 547 m 160 653 q 191 567 160 603 q 269 532 222 532 q 389 591 333 532 q 444 725 444 650 q 415 814 444 778 q 335 850 385 850 q 212 785 264 850 q 160 653 160 721 z "},"":{"ha":613,"x_min":47,"x_max":571,"o":"m 47 663 q 74 685 54 685 q 119 663 97 685 q 343 332 246 538 q 236 131 311 238 q 117 -7 161 25 q 96 -15 106 -15 q 56 15 72 -15 q 250 332 90 228 q 47 663 65 474 m 275 663 q 301 685 282 685 q 347 663 325 685 q 571 332 474 538 q 464 131 539 238 q 344 -7 389 25 q 324 -15 333 -15 q 283 15 300 -15 q 478 332 318 228 q 275 663 293 474 z "},"":{"ha":1029,"x_min":40,"x_max":983,"o":"m 40 871 q 51 922 40 900 q 204 979 118 979 q 268 965 242 979 q 285 743 285 878 q 268 522 285 608 q 279 524 272 524 q 311 514 297 524 q 315 479 315 497 q 299 419 315 442 q 188 406 233 406 q 99 431 124 406 q 88 483 88 458 q 99 517 88 506 q 147 525 115 525 q 143 701 143 614 q 147 869 143 786 q 129 857 143 867 q 104 840 115 847 q 78 826 93 833 q 51 818 63 819 q 40 871 40 840 m 210 60 q 668 843 382 550 q 686 849 678 849 q 704 826 701 849 q 246 42 560 369 q 229 38 236 38 q 210 60 210 38 m 529 271 q 533 304 529 275 q 624 438 561 364 q 746 543 688 511 q 832 556 775 556 q 931 538 919 556 q 940 431 940 499 q 936 301 940 331 q 953 303 942 303 q 963 301 960 303 q 981 242 981 276 q 965 199 981 213 q 949 194 958 194 q 935 197 940 194 q 936 176 936 190 q 929 108 936 133 q 939 110 932 110 q 968 103 954 110 q 983 39 983 92 q 978 4 983 14 q 842 -3 971 -3 q 735 7 743 -3 q 728 71 728 31 q 739 103 728 97 q 797 111 747 107 q 796 149 796 124 q 797 196 796 179 q 657 192 758 192 q 533 197 550 192 q 529 271 529 233 m 642 294 l 647 294 q 670 295 653 294 q 719 296 688 296 q 778 295 761 296 q 799 294 796 294 q 799 371 799 306 q 800 453 800 436 q 715 374 775 433 q 642 294 656 314 z "},"":{"ha":1083,"x_min":40,"x_max":1042,"o":"m 40 871 q 51 922 40 900 q 204 979 118 979 q 268 965 242 979 q 285 743 285 878 q 268 522 285 608 q 279 524 272 524 q 311 514 297 524 q 315 479 315 497 q 299 419 315 442 q 188 406 233 406 q 99 431 124 406 q 88 483 88 458 q 99 517 88 506 q 147 525 115 525 q 143 701 143 614 q 147 869 143 786 q 129 857 143 867 q 104 840 115 847 q 78 826 93 833 q 51 818 63 819 q 40 871 40 840 m 210 60 q 668 843 382 550 q 686 849 678 849 q 704 826 701 849 q 246 42 560 369 q 229 38 236 38 q 210 60 210 38 m 626 49 q 656 157 626 108 q 726 235 685 206 q 808 289 767 265 q 879 335 850 313 q 908 379 908 357 q 886 417 908 401 q 833 432 864 432 q 763 414 793 432 q 731 361 733 396 q 683 349 711 349 q 661 356 669 349 q 635 457 635 379 q 642 507 635 496 q 688 519 669 519 q 725 514 704 519 q 732 488 731 496 q 864 524 778 524 q 978 481 929 524 q 1026 369 1026 438 q 987 273 1026 314 q 901 213 947 232 q 815 167 854 194 q 775 110 775 140 q 838 101 792 101 q 931 113 906 101 q 939 150 931 129 q 992 156 961 156 q 1022 150 1015 156 q 1042 57 1042 124 q 1022 -8 1042 11 q 975 -11 1019 -11 q 922 -3 928 -11 l 919 22 q 833 1 886 1 q 749 8 811 1 q 746 -7 749 -1 q 682 -15 721 -15 q 639 -8 660 -15 q 626 49 626 18 z "},"":{"ha":1103,"x_min":38,"x_max":1053,"o":"m 38 517 q 74 564 43 533 q 147 604 106 594 l 181 553 q 168 535 178 544 q 210 518 185 518 q 280 547 247 518 q 313 611 313 575 q 290 660 313 639 q 263 657 274 657 q 235 661 244 657 q 224 715 224 676 q 229 765 224 756 q 269 774 233 774 q 297 769 292 774 q 315 825 315 792 q 290 872 315 853 q 235 890 265 890 q 193 875 208 890 q 194 864 193 868 q 156 847 185 847 q 131 850 144 847 q 108 892 121 854 q 96 949 96 929 q 120 961 97 956 q 158 967 143 967 l 164 960 q 249 985 203 985 q 375 934 319 985 q 431 810 431 883 q 388 708 431 751 q 438 601 438 663 q 367 470 438 519 q 204 421 297 421 q 82 467 124 421 q 63 460 65 460 q 38 517 38 485 m 276 56 q 735 839 449 546 q 753 844 744 844 q 771 822 768 844 q 313 38 626 365 q 296 33 303 33 q 276 56 276 33 m 599 271 q 603 304 599 275 q 694 438 631 364 q 815 543 757 511 q 901 556 844 556 q 1000 538 989 556 q 1010 431 1010 499 q 1006 301 1010 331 q 1022 303 1011 303 q 1032 301 1029 303 q 1050 242 1050 276 q 1035 199 1050 208 q 1018 194 1028 194 q 1004 197 1010 194 q 1006 176 1006 190 q 999 108 1006 133 q 1008 110 1001 110 q 1038 103 1024 110 q 1053 40 1053 92 q 1047 4 1053 7 q 911 -3 1036 -3 q 804 7 813 -3 q 797 71 797 31 q 804 108 797 103 q 832 109 810 108 q 867 111 854 110 q 864 154 864 126 q 867 196 864 168 q 726 192 828 192 q 603 197 619 192 q 599 271 599 233 m 711 294 l 717 294 q 740 295 722 294 q 789 296 757 296 q 848 295 831 296 q 868 294 865 294 q 869 371 868 306 q 869 453 869 436 q 785 374 844 433 q 711 294 725 314 z "},"":{"ha":753,"x_min":38,"x_max":721,"o":"m 38 -101 q 127 87 38 11 q 344 194 217 163 q 332 272 332 225 q 344 371 332 318 q 415 378 371 378 q 453 371 429 378 q 472 260 472 333 q 460 131 472 185 q 285 47 333 89 q 236 -89 236 6 q 268 -193 236 -153 q 393 -233 300 -233 q 571 -72 571 -233 q 569 -39 571 -49 q 635 -29 604 -29 q 721 -111 721 -29 q 661 -237 721 -179 q 531 -313 613 -286 q 361 -340 449 -340 q 132 -278 226 -340 q 38 -101 38 -215 m 315 553 q 342 635 315 589 q 400 656 383 656 q 453 635 422 656 q 471 553 471 594 q 453 469 471 510 q 399 453 415 453 q 342 469 381 453 q 315 553 315 522 z "},"":{"ha":1038,"x_min":7,"x_max":1031,"o":"m 7 96 q 19 178 7 157 q 72 200 32 200 q 115 189 115 200 q 263 605 125 247 q 417 965 401 963 q 525 972 461 972 q 621 965 558 972 q 774 602 636 958 q 922 189 913 246 q 965 200 922 200 q 1018 178 1006 200 q 1031 96 1031 157 q 1015 17 1031 25 q 799 0 997 0 q 656 15 656 0 q 625 139 625 33 q 626 163 625 154 q 638 179 628 171 q 665 188 647 188 q 706 182 706 188 q 711 196 711 182 q 674 354 711 231 q 522 349 617 349 q 364 354 421 349 q 326 194 326 229 q 332 182 326 183 q 368 188 340 188 q 399 178 389 188 q 411 158 410 168 q 413 126 413 149 q 382 15 413 35 q 239 0 382 0 q 22 17 40 0 q 7 96 7 25 m 349 1279 q 439 1314 381 1314 q 457 1313 450 1314 q 576 1103 519 1244 q 556 1099 572 1099 q 535 1103 543 1099 q 349 1279 406 1182 m 414 515 q 515 519 467 519 q 622 514 572 519 q 518 800 560 699 q 414 515 479 704 z "},"":{"ha":1038,"x_min":7,"x_max":1031,"o":"m 7 96 q 19 178 7 157 q 72 200 32 200 q 115 189 115 200 q 263 605 125 247 q 417 965 401 963 q 525 972 461 972 q 621 965 558 972 q 774 602 636 958 q 922 189 913 246 q 965 200 922 200 q 1018 178 1006 200 q 1031 96 1031 157 q 1015 17 1031 25 q 799 0 997 0 q 656 15 656 0 q 625 139 625 33 q 626 163 625 154 q 638 179 628 171 q 665 188 647 188 q 706 182 706 188 q 711 196 711 182 q 674 354 711 231 q 522 349 617 349 q 364 354 421 349 q 326 194 326 229 q 332 182 326 183 q 368 188 340 188 q 399 178 389 188 q 411 158 410 168 q 413 126 413 149 q 382 15 413 35 q 239 0 382 0 q 22 17 40 0 q 7 96 7 25 m 414 515 q 515 519 467 519 q 622 514 572 519 q 518 800 560 699 q 414 515 479 704 m 515 1103 q 635 1313 572 1244 q 653 1314 642 1314 q 743 1279 711 1314 q 557 1103 686 1182 q 536 1099 549 1099 q 515 1103 519 1099 z "},"":{"ha":1038,"x_min":7,"x_max":1031,"o":"m 7 96 q 19 178 7 157 q 72 200 32 200 q 115 189 115 200 q 263 605 125 247 q 417 965 401 963 q 525 972 461 972 q 621 965 558 972 q 774 602 636 958 q 922 189 913 246 q 965 200 922 200 q 1018 178 1006 200 q 1031 96 1031 157 q 1015 17 1031 25 q 799 0 997 0 q 656 15 656 0 q 625 139 625 33 q 626 163 625 154 q 638 179 628 171 q 665 188 647 188 q 706 182 706 188 q 711 196 711 182 q 674 354 711 231 q 522 349 617 349 q 364 354 421 349 q 326 194 326 229 q 332 182 326 183 q 368 188 340 188 q 399 178 389 188 q 411 158 410 168 q 413 126 413 149 q 382 15 413 35 q 239 0 382 0 q 22 17 40 0 q 7 96 7 25 m 281 1046 q 392 1183 315 1104 q 517 1261 468 1261 q 644 1184 565 1261 q 756 1046 722 1107 q 732 1040 743 1040 q 706 1046 721 1040 q 599 1113 661 1069 q 518 1186 538 1157 q 431 1110 494 1157 q 331 1046 368 1063 q 308 1040 314 1040 q 281 1046 297 1040 m 414 515 q 515 519 467 519 q 622 514 572 519 q 518 800 560 699 q 414 515 479 704 z "},"":{"ha":1038,"x_min":7,"x_max":1031,"o":"m 7 96 q 19 178 7 157 q 72 200 32 200 q 115 189 115 200 q 263 605 125 247 q 417 965 401 963 q 525 972 461 972 q 621 965 558 972 q 774 602 636 958 q 922 189 913 246 q 965 200 922 200 q 1018 178 1006 200 q 1031 96 1031 157 q 1015 17 1031 25 q 799 0 997 0 q 656 15 656 0 q 625 139 625 33 q 626 163 625 154 q 638 179 628 171 q 665 188 647 188 q 706 182 706 188 q 711 196 711 182 q 674 354 711 231 q 522 349 617 349 q 364 354 421 349 q 326 194 326 229 q 332 182 326 183 q 368 188 340 188 q 399 178 389 188 q 411 158 410 168 q 413 126 413 149 q 382 15 413 35 q 239 0 382 0 q 22 17 40 0 q 7 96 7 25 m 304 1089 q 408 1219 318 1219 q 516 1186 453 1219 q 592 1153 579 1153 q 653 1239 633 1153 q 671 1244 664 1244 q 733 1193 701 1244 q 629 1063 719 1063 q 526 1096 590 1063 q 446 1129 463 1129 q 385 1044 403 1129 q 361 1038 375 1038 q 304 1089 329 1038 m 414 515 q 515 519 467 519 q 622 514 572 519 q 518 800 560 699 q 414 515 479 704 z "},"":{"ha":1038,"x_min":7,"x_max":1031,"o":"m 7 96 q 19 178 7 157 q 72 200 32 200 q 115 189 115 200 q 263 605 125 247 q 417 965 401 963 q 525 972 461 972 q 621 965 558 972 q 774 602 636 958 q 922 189 913 246 q 965 200 922 200 q 1018 178 1006 200 q 1031 96 1031 157 q 1015 17 1031 25 q 799 0 997 0 q 656 15 656 0 q 625 139 625 33 q 626 163 625 154 q 638 179 628 171 q 665 188 647 188 q 706 182 706 188 q 711 196 711 182 q 674 354 711 231 q 522 349 617 349 q 364 354 421 349 q 326 194 326 229 q 332 182 326 183 q 368 188 340 188 q 399 178 389 188 q 411 158 410 168 q 413 126 413 149 q 382 15 413 35 q 239 0 382 0 q 22 17 40 0 q 7 96 7 25 m 315 1158 q 346 1251 315 1207 q 401 1263 385 1263 q 456 1251 428 1263 q 485 1154 485 1207 q 456 1051 485 1103 q 407 1040 433 1040 q 346 1051 381 1040 q 315 1158 315 1106 m 414 515 q 515 519 467 519 q 622 514 572 519 q 518 800 560 699 q 414 515 479 704 m 551 1158 q 582 1251 551 1207 q 638 1263 621 1263 q 692 1251 664 1263 q 721 1154 721 1207 q 692 1051 721 1103 q 643 1040 669 1040 q 582 1051 617 1040 q 551 1158 551 1106 z "},"":{"ha":1038,"x_min":7,"x_max":1031,"o":"m 7 96 q 19 178 7 157 q 72 200 32 200 q 115 190 111 200 q 264 608 126 253 q 417 965 401 963 q 376 1064 376 1001 q 430 1194 376 1133 q 560 1256 483 1256 q 651 1213 622 1256 q 681 1106 681 1171 q 621 965 681 1008 q 774 602 636 958 q 922 189 913 246 q 965 200 922 200 q 1018 178 1006 200 q 1031 96 1031 157 q 1015 17 1031 25 q 799 0 997 0 q 656 15 656 0 q 625 139 625 33 q 626 163 625 154 q 638 179 628 171 q 665 188 647 188 q 706 182 706 188 q 711 196 711 182 q 674 354 711 231 q 522 349 617 349 q 364 354 421 349 q 326 194 326 229 q 332 182 326 183 q 368 188 340 188 q 399 178 389 188 q 411 158 410 168 q 413 126 413 149 q 382 15 413 35 q 239 0 382 0 q 22 17 40 0 q 7 96 7 25 m 414 515 q 515 519 467 519 q 622 514 572 519 q 518 800 560 699 q 414 515 479 704 m 447 1074 q 466 1023 447 1044 q 513 1001 485 1001 q 581 1037 549 1001 q 614 1115 614 1072 q 597 1168 614 1146 q 550 1190 579 1190 q 478 1151 510 1190 q 447 1074 447 1113 z "},"":{"ha":1403,"x_min":-1,"x_max":1353,"o":"m -1 86 q 21 189 -1 185 q 64 200 21 200 q 107 189 104 200 q 284 538 164 319 q 556 965 404 756 q 925 989 821 989 q 1339 936 1183 989 q 1353 829 1353 867 q 1321 722 1353 764 q 1261 714 1286 714 q 1147 760 1217 714 l 1151 806 q 978 824 1119 824 q 909 823 940 824 q 859 821 878 822 q 826 817 840 819 q 806 815 813 815 q 799 814 800 814 l 799 572 q 858 572 811 572 q 925 571 906 571 q 958 572 958 571 q 957 585 957 576 q 969 622 957 600 q 1015 629 978 629 q 1096 619 1074 629 q 1124 474 1124 571 q 1092 386 1124 413 q 1032 368 1071 368 q 972 382 996 368 q 957 394 960 389 q 954 422 954 400 l 797 417 l 799 174 q 965 133 857 133 q 1151 172 1078 133 l 1147 218 q 1263 264 1217 264 q 1321 256 1288 264 q 1353 149 1353 214 q 1339 42 1353 111 q 961 -18 1235 -18 q 707 -3 828 -18 q 538 33 586 11 q 508 110 508 63 q 531 188 508 169 q 586 200 556 200 q 608 196 600 200 q 596 350 601 238 q 515 349 567 349 q 397 354 457 349 q 324 182 333 239 q 357 188 340 188 q 400 165 400 188 q 404 126 404 153 q 374 15 404 35 q 231 0 374 0 q 14 17 32 0 q -1 86 -1 22 m 449 515 q 525 521 482 521 q 592 514 565 521 l 607 781 l 449 515 z "},"":{"ha":938,"x_min":57,"x_max":885,"o":"m 57 478 q 166 836 57 690 q 456 982 275 982 q 650 921 588 982 q 679 972 653 963 q 764 988 714 988 q 867 960 829 988 q 873 912 868 944 q 881 853 878 879 q 883 804 883 826 q 833 674 883 718 q 738 642 804 642 q 633 674 668 642 q 632 686 632 676 q 636 708 632 703 q 560 788 613 760 q 464 815 507 815 q 315 712 383 815 q 246 475 246 608 q 310 270 246 349 q 460 192 375 192 q 556 211 503 192 q 633 265 608 231 q 629 293 629 290 q 630 299 629 296 q 631 303 631 301 q 721 326 682 326 q 835 299 760 326 q 885 169 885 254 q 881 120 885 147 q 873 61 878 93 q 867 13 868 29 q 756 -22 824 -22 q 679 0 706 -22 q 650 54 650 11 q 464 -8 558 -8 q 448 -8 458 -8 q 432 -7 438 -7 q 434 -29 433 -15 q 435 -52 435 -43 q 436 -61 435 -61 q 513 -29 474 -29 q 592 -74 563 -29 q 621 -181 621 -119 q 587 -297 621 -247 q 492 -346 553 -346 q 394 -312 444 -346 q 386 -344 394 -342 q 371 -345 381 -344 q 357 -346 361 -346 q 328 -342 342 -346 q 321 -287 321 -311 q 335 -231 321 -253 q 368 -226 351 -226 q 400 -231 383 -226 l 400 -242 q 469 -275 433 -275 q 520 -251 500 -275 q 540 -187 540 -226 q 525 -129 540 -154 q 488 -104 510 -104 q 449 -126 472 -104 q 413 -149 425 -149 q 376 -142 393 -149 q 361 -74 361 -119 q 368 4 361 -33 q 147 161 236 39 q 57 478 57 283 z "},"":{"ha":958,"x_min":64,"x_max":908,"o":"m 64 143 q 86 215 64 165 q 142 228 111 228 q 164 224 156 228 q 147 475 147 347 q 176 783 147 663 q 125 776 144 776 q 86 786 100 776 q 67 872 67 814 q 93 944 67 908 q 256 977 138 965 q 483 989 374 989 q 894 936 739 989 q 908 829 908 867 q 876 722 908 764 q 817 714 842 714 q 703 760 772 714 l 707 806 q 563 824 681 824 q 456 819 521 824 q 389 811 390 815 q 394 738 394 761 q 376 568 394 614 q 514 572 513 568 q 513 585 513 576 q 525 622 513 600 q 571 629 533 629 q 651 619 629 629 q 679 488 679 574 q 650 381 679 410 q 585 371 639 371 q 522 381 531 371 q 510 422 510 397 l 369 415 q 354 188 369 333 q 444 158 376 168 q 557 147 513 147 q 640 155 590 147 q 707 172 689 163 l 703 218 q 818 264 772 264 q 876 256 843 264 q 908 149 908 214 q 894 42 908 111 q 517 -18 790 -18 q 263 -3 383 -18 q 93 33 142 11 q 70 75 76 54 q 64 143 64 96 m 372 1279 q 463 1314 403 1314 q 481 1313 474 1314 q 600 1103 543 1244 q 579 1099 596 1099 q 558 1103 567 1099 q 372 1279 429 1182 z "},"":{"ha":958,"x_min":64,"x_max":908,"o":"m 64 143 q 86 215 64 165 q 142 228 111 228 q 164 224 156 228 q 147 475 147 347 q 176 783 147 663 q 125 776 144 776 q 86 786 100 776 q 67 872 67 814 q 93 944 67 908 q 256 977 138 965 q 483 989 374 989 q 894 936 739 989 q 908 829 908 867 q 876 722 908 764 q 817 714 842 714 q 703 760 772 714 l 707 806 q 563 824 681 824 q 456 819 521 824 q 389 811 390 815 q 394 738 394 761 q 376 568 394 614 q 514 572 513 568 q 513 585 513 576 q 525 622 513 600 q 571 629 533 629 q 651 619 629 629 q 679 488 679 574 q 650 381 679 410 q 585 371 639 371 q 522 381 531 371 q 510 422 510 397 l 369 415 q 354 188 369 333 q 444 158 376 168 q 557 147 513 147 q 640 155 590 147 q 707 172 689 163 l 703 218 q 818 264 772 264 q 876 256 843 264 q 908 149 908 214 q 894 42 908 111 q 517 -18 790 -18 q 263 -3 383 -18 q 93 33 142 11 q 70 75 76 54 q 64 143 64 96 m 351 1104 q 471 1314 408 1246 q 508 1317 483 1317 q 621 1281 569 1317 q 512 1154 583 1215 q 386 1093 440 1093 q 351 1104 367 1093 z "},"":{"ha":958,"x_min":64,"x_max":908,"o":"m 64 143 q 86 215 64 165 q 142 228 111 228 q 164 224 156 228 q 147 475 147 347 q 176 783 147 663 q 125 776 144 776 q 86 786 100 776 q 67 872 67 814 q 93 944 67 908 q 256 977 138 965 q 483 989 374 989 q 894 936 739 989 q 908 829 908 867 q 876 722 908 764 q 817 714 842 714 q 703 760 772 714 l 707 806 q 563 824 681 824 q 456 819 521 824 q 389 811 390 815 q 394 738 394 761 q 376 568 394 614 q 514 572 513 568 q 513 585 513 576 q 525 622 513 600 q 571 629 533 629 q 651 619 629 629 q 679 488 679 574 q 650 381 679 410 q 585 371 639 371 q 522 381 531 371 q 510 422 510 397 l 369 415 q 354 188 369 333 q 444 158 376 168 q 557 147 513 147 q 640 155 590 147 q 707 172 689 163 l 703 218 q 818 264 772 264 q 876 256 843 264 q 908 149 908 214 q 894 42 908 111 q 517 -18 790 -18 q 263 -3 383 -18 q 93 33 142 11 q 70 75 76 54 q 64 143 64 96 m 249 1046 q 360 1183 283 1104 q 485 1261 436 1261 q 612 1184 533 1261 q 724 1046 690 1107 q 700 1040 711 1040 q 674 1046 689 1040 q 567 1113 629 1069 q 486 1186 506 1157 q 399 1110 463 1157 q 299 1046 336 1063 q 276 1040 282 1040 q 249 1046 265 1040 z "},"":{"ha":958,"x_min":64,"x_max":908,"o":"m 64 143 q 86 215 64 165 q 142 228 111 228 q 164 224 156 228 q 147 475 147 347 q 176 783 147 663 q 125 776 144 776 q 86 786 100 776 q 67 872 67 814 q 93 944 67 908 q 256 977 138 965 q 483 989 374 989 q 894 936 739 989 q 908 829 908 867 q 876 722 908 764 q 817 714 842 714 q 703 760 772 714 l 707 806 q 563 824 681 824 q 456 819 521 824 q 389 811 390 815 q 394 738 394 761 q 376 568 394 614 q 514 572 513 568 q 513 585 513 576 q 525 622 513 600 q 571 629 533 629 q 651 619 629 629 q 679 488 679 574 q 650 381 679 410 q 585 371 639 371 q 522 381 531 371 q 510 422 510 397 l 369 415 q 354 188 369 333 q 444 158 376 168 q 557 147 513 147 q 640 155 590 147 q 707 172 689 163 l 703 218 q 818 264 772 264 q 876 256 843 264 q 908 149 908 214 q 894 42 908 111 q 517 -18 790 -18 q 263 -3 383 -18 q 93 33 142 11 q 70 75 76 54 q 64 143 64 96 m 283 1167 q 314 1260 283 1215 q 369 1271 353 1271 q 424 1260 396 1271 q 453 1163 453 1215 q 424 1060 453 1111 q 375 1049 401 1049 q 314 1060 349 1049 q 283 1167 283 1114 m 519 1167 q 550 1260 519 1215 q 606 1271 589 1271 q 660 1260 632 1271 q 689 1163 689 1215 q 660 1060 689 1111 q 611 1049 638 1049 q 550 1060 585 1049 q 519 1167 519 1114 z "},"":{"ha":494,"x_min":68,"x_max":426,"o":"m 68 1279 q 158 1314 100 1314 q 176 1313 169 1314 q 296 1103 239 1244 q 275 1099 292 1099 q 254 1103 263 1099 q 68 1279 125 1182 m 76 119 q 85 194 76 186 q 133 207 97 201 q 165 211 158 211 q 149 490 149 350 q 165 758 149 625 q 133 763 158 758 q 85 775 97 768 q 76 850 76 783 q 85 932 76 922 q 130 959 83 949 q 246 969 176 969 q 394 957 319 969 q 415 887 403 943 q 426 801 426 831 q 422 778 426 783 q 356 763 392 763 q 332 764 340 763 q 349 519 349 651 q 332 206 349 411 q 356 207 340 207 q 422 192 392 207 q 426 168 426 186 q 415 83 426 139 q 394 13 403 26 q 250 6 315 6 q 131 14 178 6 q 85 38 83 22 q 76 119 76 47 z "},"":{"ha":494,"x_min":76,"x_max":469,"o":"m 76 119 q 85 194 76 186 q 133 207 97 201 q 165 211 158 211 q 149 490 149 350 q 165 758 149 625 q 133 763 158 758 q 85 775 97 768 q 76 850 76 783 q 85 932 76 922 q 130 959 83 949 q 246 969 176 969 q 394 957 319 969 q 415 887 403 943 q 426 801 426 831 q 422 778 426 783 q 356 763 392 763 q 332 764 340 763 q 349 519 349 651 q 332 206 349 411 q 356 207 340 207 q 422 192 392 207 q 426 168 426 186 q 415 83 426 139 q 394 13 403 26 q 250 6 315 6 q 131 14 178 6 q 85 38 83 22 q 76 119 76 47 m 200 1104 q 319 1314 257 1246 q 357 1317 332 1317 q 469 1281 418 1317 q 360 1154 432 1215 q 235 1093 289 1093 q 200 1104 215 1093 z "},"":{"ha":494,"x_min":14,"x_max":489,"o":"m 14 1046 q 125 1183 49 1104 q 250 1261 201 1261 q 377 1184 299 1261 q 489 1046 456 1107 q 465 1040 476 1040 q 439 1046 454 1040 q 333 1113 394 1069 q 251 1186 271 1157 q 165 1110 228 1157 q 64 1046 101 1063 q 42 1040 47 1040 q 14 1046 31 1040 m 76 119 q 85 194 76 186 q 133 207 97 201 q 165 211 158 211 q 149 490 149 350 q 165 758 149 625 q 133 763 158 758 q 85 775 97 768 q 76 850 76 783 q 85 932 76 922 q 130 959 83 949 q 246 969 176 969 q 394 957 319 969 q 415 887 403 943 q 426 801 426 831 q 422 778 426 783 q 356 763 392 763 q 332 764 340 763 q 349 519 349 651 q 332 206 349 411 q 356 207 340 207 q 422 192 392 207 q 426 168 426 186 q 415 83 426 139 q 394 13 403 26 q 250 6 315 6 q 131 14 178 6 q 85 38 83 22 q 76 119 76 47 z "},"":{"ha":494,"x_min":49,"x_max":454,"o":"m 49 1167 q 79 1260 49 1215 q 135 1271 118 1271 q 189 1260 161 1271 q 218 1163 218 1215 q 189 1060 218 1111 q 140 1049 167 1049 q 79 1060 114 1049 q 49 1167 49 1114 m 76 119 q 85 194 76 186 q 133 207 97 201 q 165 211 158 211 q 149 490 149 350 q 165 758 149 625 q 133 763 158 758 q 85 775 97 768 q 76 850 76 783 q 85 932 76 922 q 130 959 83 949 q 246 969 176 969 q 394 957 319 969 q 415 887 403 943 q 426 801 426 831 q 422 778 426 783 q 356 763 392 763 q 332 764 340 763 q 349 519 349 651 q 332 206 349 411 q 356 207 340 207 q 422 192 392 207 q 426 168 426 186 q 415 83 426 139 q 394 13 403 26 q 250 6 315 6 q 131 14 178 6 q 85 38 83 22 q 76 119 76 47 m 285 1167 q 315 1260 285 1215 q 371 1271 354 1271 q 425 1260 397 1271 q 454 1163 454 1215 q 425 1060 454 1111 q 376 1049 403 1049 q 315 1060 350 1049 q 285 1167 285 1114 z "},"":{"ha":988,"x_min":64,"x_max":928,"o":"m 64 853 q 76 899 64 883 q 368 974 208 974 q 623 935 514 974 q 798 824 732 896 q 896 658 864 751 q 928 447 928 564 q 800 101 928 217 q 397 -14 672 -14 q 86 44 235 -14 q 72 140 72 58 q 76 200 72 186 q 135 221 81 221 q 169 218 150 221 q 156 433 158 292 q 121 442 124 439 q 115 476 115 450 q 121 506 115 493 l 156 510 q 172 740 158 639 q 135 736 158 736 q 76 757 81 736 q 64 853 64 810 m 368 185 q 456 171 408 171 q 655 251 571 171 q 739 457 739 331 q 656 689 739 586 q 456 792 572 792 q 368 772 407 792 q 381 518 378 668 q 463 506 422 514 q 468 472 468 490 q 463 440 468 451 q 379 425 428 431 q 368 185 376 274 z "},"":{"ha":1057,"x_min":72,"x_max":990,"o":"m 72 126 q 93 194 72 185 q 138 214 125 214 q 160 211 146 214 q 143 490 143 350 q 160 758 143 625 q 133 756 143 756 q 93 775 113 756 q 82 854 82 792 q 93 932 82 915 q 152 958 92 947 q 285 969 213 969 q 375 957 350 969 q 415 860 415 936 q 403 778 415 813 q 353 760 376 760 q 326 764 342 760 q 519 606 388 718 q 713 431 651 494 q 729 758 713 636 q 704 757 721 757 q 663 775 682 757 q 642 867 642 811 q 663 932 642 917 q 831 971 714 971 q 944 957 914 971 q 990 847 990 931 q 972 778 990 801 q 919 761 936 761 q 896 764 910 761 q 913 519 913 651 q 896 206 913 411 q 918 210 913 210 q 972 192 954 210 q 988 135 988 172 q 975 63 988 100 q 944 13 963 26 q 808 0 917 0 q 663 36 694 0 q 642 125 642 57 q 663 194 642 181 q 703 214 690 214 q 725 211 711 214 q 528 380 669 247 q 342 547 386 513 q 326 206 339 350 q 356 208 343 208 q 403 192 383 208 q 415 139 415 178 q 403 60 415 100 q 375 13 392 21 q 285 0 350 0 q 152 11 213 0 q 93 38 92 22 q 72 126 72 58 m 344 1103 q 449 1233 358 1233 q 556 1200 493 1233 q 632 1167 619 1167 q 693 1253 674 1167 q 711 1258 704 1258 q 774 1207 742 1258 q 669 1076 760 1076 q 567 1110 631 1076 q 486 1143 503 1143 q 425 1058 443 1143 q 401 1051 414 1051 q 344 1103 369 1051 z "},"":{"ha":1031,"x_min":53,"x_max":975,"o":"m 53 369 q 96 581 53 474 q 212 776 139 689 q 393 919 285 864 q 622 975 501 975 q 887 864 799 975 q 975 582 975 753 q 943 377 975 479 q 851 186 911 275 q 688 42 790 97 q 460 -14 586 -14 q 166 91 279 -14 q 53 369 53 196 m 260 392 q 314 230 260 290 q 456 169 368 169 q 625 238 547 169 q 743 399 703 306 q 783 578 783 492 q 734 727 783 669 q 590 785 685 785 q 415 722 493 785 q 299 569 338 658 q 260 392 260 481 m 393 1279 q 483 1314 425 1314 q 501 1313 494 1314 q 621 1103 564 1244 q 600 1099 617 1099 q 579 1103 588 1099 q 393 1279 450 1182 z "},"":{"ha":1031,"x_min":53,"x_max":975,"o":"m 53 369 q 96 581 53 474 q 212 776 139 689 q 393 919 285 864 q 622 975 501 975 q 887 864 799 975 q 975 582 975 753 q 943 377 975 479 q 851 186 911 275 q 688 42 790 97 q 460 -14 586 -14 q 166 91 279 -14 q 53 369 53 196 m 260 392 q 314 230 260 290 q 456 169 368 169 q 625 238 547 169 q 743 399 703 306 q 783 578 783 492 q 734 727 783 669 q 590 785 685 785 q 415 722 493 785 q 299 569 338 658 q 260 392 260 481 m 542 1104 q 661 1314 599 1246 q 699 1317 674 1317 q 811 1281 760 1317 q 702 1154 774 1215 q 576 1093 631 1093 q 542 1104 557 1093 z "},"":{"ha":1031,"x_min":53,"x_max":975,"o":"m 53 369 q 96 581 53 474 q 212 776 139 689 q 393 919 285 864 q 622 975 501 975 q 887 864 799 975 q 975 582 975 753 q 943 377 975 479 q 851 186 911 275 q 688 42 790 97 q 460 -14 586 -14 q 166 91 279 -14 q 53 369 53 196 m 260 392 q 314 230 260 290 q 456 169 368 169 q 625 238 547 169 q 743 399 703 306 q 783 578 783 492 q 734 727 783 669 q 590 785 685 785 q 415 722 493 785 q 299 569 338 658 q 260 392 260 481 m 367 1046 q 478 1183 401 1104 q 603 1261 554 1261 q 730 1184 651 1261 q 842 1046 808 1107 q 818 1040 829 1040 q 792 1046 807 1040 q 685 1113 747 1069 q 604 1186 624 1157 q 517 1110 581 1157 q 417 1046 454 1063 q 394 1040 400 1040 q 367 1046 383 1040 z "},"":{"ha":1031,"x_min":53,"x_max":975,"o":"m 53 369 q 96 581 53 474 q 212 776 139 689 q 393 919 285 864 q 622 975 501 975 q 887 864 799 975 q 975 582 975 753 q 943 377 975 479 q 851 186 911 275 q 688 42 790 97 q 460 -14 586 -14 q 166 91 279 -14 q 53 369 53 196 m 260 392 q 314 230 260 290 q 456 169 368 169 q 625 238 547 169 q 743 399 703 306 q 783 578 783 492 q 734 727 783 669 q 590 785 685 785 q 415 722 493 785 q 299 569 338 658 q 260 392 260 481 m 376 1103 q 481 1233 390 1233 q 588 1200 525 1233 q 664 1167 651 1167 q 725 1253 706 1167 q 743 1258 736 1258 q 806 1207 774 1258 q 701 1076 792 1076 q 599 1110 663 1076 q 518 1143 535 1143 q 457 1058 475 1143 q 433 1051 447 1051 q 376 1103 401 1051 z "},"":{"ha":1031,"x_min":53,"x_max":975,"o":"m 53 369 q 96 581 53 474 q 212 776 139 689 q 393 919 285 864 q 622 975 501 975 q 887 864 799 975 q 975 582 975 753 q 943 377 975 479 q 851 186 911 275 q 688 42 790 97 q 460 -14 586 -14 q 166 91 279 -14 q 53 369 53 196 m 260 392 q 314 230 260 290 q 456 169 368 169 q 625 238 547 169 q 743 399 703 306 q 783 578 783 492 q 734 727 783 669 q 590 785 685 785 q 415 722 493 785 q 299 569 338 658 q 260 392 260 481 m 388 1167 q 418 1260 388 1215 q 474 1271 457 1271 q 528 1260 500 1271 q 557 1163 557 1215 q 528 1060 557 1111 q 479 1049 506 1049 q 418 1060 453 1049 q 388 1167 388 1114 m 624 1167 q 654 1260 624 1215 q 710 1271 693 1271 q 764 1260 736 1271 q 793 1163 793 1215 q 764 1060 793 1111 q 715 1049 742 1049 q 654 1060 689 1049 q 624 1167 624 1114 z "},"":{"ha":646,"x_min":64,"x_max":583,"o":"m 64 636 q 81 677 71 667 q 121 694 90 688 q 228 613 176 664 q 325 489 290 550 q 415 596 353 533 q 525 686 465 646 q 559 674 551 682 q 576 635 567 667 q 489 521 556 592 q 379 435 438 469 q 492 349 431 410 q 583 231 540 300 q 526 174 583 190 q 415 264 464 215 q 322 378 351 328 q 225 261 276 313 q 121 179 174 210 q 81 190 89 182 q 69 231 74 197 q 156 339 106 289 q 268 432 215 399 q 140 532 200 472 q 64 636 92 579 z "},"":{"ha":1031,"x_min":53,"x_max":975,"o":"m 53 368 q 124 648 53 510 q 328 881 194 786 q 624 975 463 975 q 746 957 688 975 q 835 1054 774 990 q 855 1044 847 1053 q 863 1031 863 1036 l 825 919 q 938 779 900 868 q 975 581 975 690 q 941 371 975 475 q 845 181 907 267 q 685 40 783 94 q 472 -14 588 -14 q 301 11 386 -14 l 207 -93 q 179 -69 179 -89 l 221 47 q 53 368 53 147 m 260 388 q 301 243 260 299 q 607 783 433 540 q 594 784 603 783 q 578 785 585 785 q 353 657 447 785 q 260 388 260 529 m 429 171 q 468 169 442 169 q 686 304 589 169 q 783 581 783 439 q 744 715 783 663 q 429 171 617 425 z "},"":{"ha":1071,"x_min":10,"x_max":1058,"o":"m 10 849 q 39 943 10 899 q 210 975 122 975 q 382 946 294 975 q 415 853 415 906 q 389 772 415 807 q 360 764 375 764 q 326 771 344 764 q 315 653 315 724 q 388 331 315 453 q 556 210 460 210 q 704 335 649 210 q 760 674 760 461 q 751 785 760 744 q 707 768 738 768 q 678 782 683 768 q 654 861 654 817 q 678 942 654 906 q 869 975 761 975 q 1033 932 983 975 q 1058 863 1058 892 q 1036 800 1058 838 q 978 781 1014 781 q 950 785 963 781 q 964 621 964 710 q 846 167 964 335 q 567 -1 728 -1 q 403 47 483 -1 q 258 182 322 96 q 153 401 193 268 q 114 688 114 533 q 115 726 114 706 q 115 758 115 747 q 86 751 107 751 q 38 763 49 751 q 10 849 10 800 m 378 1279 q 468 1314 408 1314 q 486 1313 479 1314 q 606 1103 549 1244 q 585 1099 601 1099 q 564 1103 572 1099 q 378 1279 435 1182 z "},"":{"ha":1071,"x_min":10,"x_max":1058,"o":"m 10 849 q 39 943 10 899 q 210 975 122 975 q 382 946 294 975 q 415 853 415 906 q 389 772 415 807 q 360 764 375 764 q 326 771 344 764 q 315 653 315 724 q 388 331 315 453 q 556 210 460 210 q 704 335 649 210 q 760 674 760 461 q 751 785 760 744 q 707 768 738 768 q 678 782 683 768 q 654 861 654 817 q 678 942 654 906 q 869 975 761 975 q 1033 932 983 975 q 1058 863 1058 892 q 1036 800 1058 838 q 978 781 1014 781 q 950 785 963 781 q 964 621 964 710 q 846 167 964 335 q 567 -1 728 -1 q 403 47 483 -1 q 258 182 322 96 q 153 401 193 268 q 114 688 114 533 q 115 726 114 706 q 115 758 115 747 q 86 751 107 751 q 38 763 49 751 q 10 849 10 800 m 483 1104 q 603 1314 540 1246 q 640 1317 615 1317 q 753 1281 701 1317 q 644 1154 715 1215 q 518 1093 572 1093 q 483 1104 499 1093 z "},"":{"ha":1071,"x_min":10,"x_max":1058,"o":"m 10 849 q 39 943 10 899 q 210 975 122 975 q 382 946 294 975 q 415 853 415 906 q 389 772 415 807 q 360 764 375 764 q 326 771 344 764 q 315 653 315 724 q 388 331 315 453 q 556 210 460 210 q 704 335 649 210 q 760 674 760 461 q 751 785 760 744 q 707 768 738 768 q 678 782 683 768 q 654 861 654 817 q 678 942 654 906 q 869 975 761 975 q 1033 932 983 975 q 1058 863 1058 892 q 1036 800 1058 838 q 978 781 1014 781 q 950 785 963 781 q 964 621 964 710 q 846 167 964 335 q 567 -1 728 -1 q 403 47 483 -1 q 258 182 322 96 q 153 401 193 268 q 114 688 114 533 q 115 726 114 706 q 115 758 115 747 q 86 751 107 751 q 38 763 49 751 q 10 849 10 800 m 324 1046 q 435 1183 358 1104 q 560 1261 511 1261 q 687 1184 608 1261 q 799 1046 765 1107 q 775 1040 786 1040 q 749 1046 764 1040 q 642 1113 704 1069 q 561 1186 581 1157 q 474 1110 538 1157 q 374 1046 411 1063 q 351 1040 357 1040 q 324 1046 340 1040 z "},"":{"ha":1071,"x_min":10,"x_max":1058,"o":"m 10 849 q 39 943 10 899 q 210 975 122 975 q 382 946 294 975 q 415 853 415 906 q 389 772 415 807 q 360 764 375 764 q 326 771 344 764 q 315 653 315 724 q 388 331 315 453 q 556 210 460 210 q 704 335 649 210 q 760 674 760 461 q 751 785 760 744 q 707 768 738 768 q 678 782 683 768 q 654 861 654 817 q 678 942 654 906 q 869 975 761 975 q 1033 932 983 975 q 1058 863 1058 892 q 1036 800 1058 838 q 978 781 1014 781 q 950 785 963 781 q 964 621 964 710 q 846 167 964 335 q 567 -1 728 -1 q 403 47 483 -1 q 258 182 322 96 q 153 401 193 268 q 114 688 114 533 q 115 726 114 706 q 115 758 115 747 q 86 751 107 751 q 38 763 49 751 q 10 849 10 800 m 344 1167 q 375 1260 344 1215 q 431 1271 414 1271 q 485 1260 457 1271 q 514 1163 514 1215 q 485 1060 514 1111 q 436 1049 463 1049 q 375 1060 410 1049 q 344 1167 344 1114 m 581 1167 q 611 1260 581 1215 q 667 1271 650 1271 q 721 1260 693 1271 q 750 1163 750 1215 q 721 1060 750 1111 q 672 1049 699 1049 q 611 1060 646 1049 q 581 1167 581 1114 z "},"":{"ha":947,"x_min":6,"x_max":942,"o":"m 6 840 q 110 917 29 875 q 299 975 192 958 q 353 861 353 890 q 318 838 353 854 q 275 825 293 825 q 355 714 283 799 q 481 572 426 629 q 589 694 515 593 q 672 825 663 794 q 629 838 656 825 q 594 860 596 853 q 619 921 596 871 q 649 975 643 971 q 942 840 810 975 q 903 721 925 747 q 844 742 876 726 q 816 697 839 733 q 776 639 793 661 q 731 583 760 617 q 667 518 703 549 q 589 460 631 488 q 578 308 582 428 q 572 168 575 189 q 643 149 607 168 q 649 119 649 143 q 642 57 649 93 q 631 11 635 21 q 467 -1 621 -1 q 394 -1 417 -1 q 345 1 372 0 q 306 8 318 3 q 288 21 293 13 q 282 90 282 35 q 293 151 282 140 q 374 168 328 168 q 372 251 374 183 q 367 376 369 319 q 360 460 364 432 q 194 613 276 514 q 103 742 111 713 q 44 721 71 726 q 6 840 17 775 m 431 1104 q 550 1314 488 1246 q 588 1317 563 1317 q 700 1281 649 1317 q 591 1154 663 1215 q 465 1093 519 1093 q 431 1104 446 1093 z "},"":{"ha":886,"x_min":58,"x_max":851,"o":"m 58 844 q 83 926 58 911 q 275 978 111 978 q 350 964 314 978 q 357 846 357 938 q 356 833 357 836 q 464 892 419 875 q 561 910 508 910 q 774 814 697 910 q 851 585 851 718 q 760 333 851 440 q 501 225 668 225 q 357 247 433 225 q 360 224 360 233 q 351 179 360 203 q 388 181 357 181 q 457 156 442 181 q 478 92 478 142 q 457 26 478 49 q 296 -1 449 -1 q 78 26 86 -1 q 60 88 60 46 q 78 156 60 131 q 109 174 85 167 q 156 181 133 181 q 178 179 172 181 q 176 267 178 203 q 175 399 175 331 q 189 722 175 644 q 165 721 185 721 q 90 731 133 721 q 58 844 58 768 m 358 511 q 392 411 358 446 q 476 376 425 376 q 619 440 550 376 q 688 592 688 504 q 653 694 688 651 q 560 738 618 738 q 422 670 485 738 q 358 511 358 603 z "},"":{"ha":1126,"x_min":40,"x_max":1079,"o":"m 40 -21 q 47 42 40 35 q 115 57 50 44 q 103 212 114 69 q 93 433 93 354 q 103 612 93 529 q 141 776 114 694 q 211 915 168 858 q 325 1006 254 971 q 488 1042 396 1042 q 757 961 639 1042 q 875 768 875 881 q 815 619 875 693 q 1079 375 1079 568 q 940 113 1079 228 q 640 -3 800 -3 q 547 10 592 -3 q 536 64 536 13 q 590 163 536 108 q 635 157 608 157 q 815 214 726 157 q 904 349 904 271 q 771 482 904 435 q 706 444 749 451 q 630 504 661 453 q 599 615 599 556 q 686 675 626 672 q 692 721 692 697 q 640 840 692 794 q 494 885 588 885 q 376 849 419 885 q 309 708 333 813 q 285 414 285 604 q 304 53 285 257 q 354 40 346 53 q 357 19 357 35 q 347 -53 357 -6 q 331 -114 338 -101 q 211 -124 297 -124 q 47 -92 82 -124 q 40 -21 40 -85 z "},"":{"ha":865,"x_min":49,"x_max":810,"o":"m 49 288 q 78 481 49 388 q 174 643 108 575 q 329 711 240 711 q 401 697 369 711 q 449 663 432 683 q 478 623 467 643 q 493 589 489 603 q 499 575 497 575 q 497 674 499 650 q 555 705 525 697 q 638 713 585 713 q 712 710 679 713 q 761 703 744 707 q 788 694 778 699 q 801 689 799 690 l 804 688 q 810 610 810 675 q 804 531 810 543 q 760 513 800 521 q 690 506 719 506 q 660 508 676 506 q 664 438 664 500 q 651 236 664 256 q 675 240 661 240 q 794 228 736 240 q 806 110 806 219 q 801 32 806 49 q 740 3 792 17 q 624 -11 689 -11 q 478 -6 506 -11 q 468 39 468 21 q 472 56 468 50 q 378 14 456 50 q 265 -22 300 -22 q 103 68 158 -22 q 49 288 49 158 m 222 324 q 270 192 222 246 q 371 139 318 139 q 438 154 400 139 q 478 182 475 169 q 485 299 482 246 q 491 381 489 353 q 493 418 493 410 l 493 435 q 455 492 493 464 q 369 521 417 521 q 261 458 300 521 q 222 324 222 394 m 261 1001 q 351 1036 292 1036 q 369 1035 363 1036 q 489 825 432 967 q 468 821 485 821 q 447 825 456 821 q 261 1001 318 904 z "},"":{"ha":865,"x_min":49,"x_max":810,"o":"m 49 288 q 78 481 49 388 q 174 643 108 575 q 329 711 240 711 q 401 697 369 711 q 449 663 432 683 q 478 623 467 643 q 493 589 489 603 q 499 575 497 575 q 497 674 499 650 q 555 705 525 697 q 638 713 585 713 q 712 710 679 713 q 761 703 744 707 q 788 694 778 699 q 801 689 799 690 l 804 688 q 810 610 810 675 q 804 531 810 543 q 760 513 800 521 q 690 506 719 506 q 660 508 676 506 q 664 438 664 500 q 651 236 664 256 q 675 240 661 240 q 794 228 736 240 q 806 110 806 219 q 801 32 806 49 q 740 3 792 17 q 624 -11 689 -11 q 478 -6 506 -11 q 468 39 468 21 q 472 56 468 50 q 378 14 456 50 q 265 -22 300 -22 q 103 68 158 -22 q 49 288 49 158 m 222 324 q 270 192 222 246 q 371 139 318 139 q 438 154 400 139 q 478 182 475 169 q 485 299 482 246 q 491 381 489 353 q 493 418 493 410 l 493 435 q 455 492 493 464 q 369 521 417 521 q 261 458 300 521 q 222 324 222 394 m 379 826 q 499 1036 436 968 q 536 1039 511 1039 q 649 1003 597 1039 q 540 876 611 938 q 414 815 468 815 q 379 826 394 815 z "},"":{"ha":865,"x_min":49,"x_max":810,"o":"m 49 288 q 78 481 49 388 q 174 643 108 575 q 329 711 240 711 q 401 697 369 711 q 449 663 432 683 q 478 623 467 643 q 493 589 489 603 q 499 575 497 575 q 497 674 499 650 q 555 705 525 697 q 638 713 585 713 q 712 710 679 713 q 761 703 744 707 q 788 694 778 699 q 801 689 799 690 l 804 688 q 810 610 810 675 q 804 531 810 543 q 760 513 800 521 q 690 506 719 506 q 660 508 676 506 q 664 438 664 500 q 651 236 664 256 q 675 240 661 240 q 794 228 736 240 q 806 110 806 219 q 801 32 806 49 q 740 3 792 17 q 624 -11 689 -11 q 478 -6 506 -11 q 468 39 468 21 q 472 56 468 50 q 378 14 456 50 q 265 -22 300 -22 q 103 68 158 -22 q 49 288 49 158 m 221 782 q 332 919 256 840 q 457 997 408 997 q 584 920 506 997 q 696 782 663 843 q 672 776 683 776 q 646 782 661 776 q 540 849 601 806 q 458 922 478 893 q 372 846 435 893 q 271 782 308 799 q 249 776 254 776 q 221 782 238 776 m 222 324 q 270 192 222 246 q 371 139 318 139 q 438 154 400 139 q 478 182 475 169 q 485 299 482 246 q 491 381 489 353 q 493 418 493 410 l 493 435 q 455 492 493 464 q 369 521 417 521 q 261 458 300 521 q 222 324 222 394 z "},"":{"ha":865,"x_min":49,"x_max":810,"o":"m 49 288 q 78 481 49 388 q 174 643 108 575 q 329 711 240 711 q 401 697 369 711 q 449 663 432 683 q 478 623 467 643 q 493 589 489 603 q 499 575 497 575 q 497 674 499 650 q 555 705 525 697 q 638 713 585 713 q 712 710 679 713 q 761 703 744 707 q 788 694 778 699 q 801 689 799 690 l 804 688 q 810 610 810 675 q 804 531 810 543 q 760 513 800 521 q 690 506 719 506 q 660 508 676 506 q 664 438 664 500 q 651 236 664 256 q 675 240 661 240 q 794 228 736 240 q 806 110 806 219 q 801 32 806 49 q 740 3 792 17 q 624 -11 689 -11 q 478 -6 506 -11 q 468 39 468 21 q 472 56 468 50 q 378 14 456 50 q 265 -22 300 -22 q 103 68 158 -22 q 49 288 49 158 m 222 324 q 270 192 222 246 q 371 139 318 139 q 438 154 400 139 q 478 182 475 169 q 485 299 482 246 q 491 381 489 353 q 493 418 493 410 l 493 435 q 455 492 493 464 q 369 521 417 521 q 261 458 300 521 q 222 324 222 394 m 244 825 q 349 956 258 956 q 456 922 393 956 q 532 889 519 889 q 593 975 574 889 q 611 981 604 981 q 674 929 642 981 q 569 799 660 799 q 467 832 531 799 q 386 865 403 865 q 325 781 343 865 q 301 774 314 774 q 244 825 269 774 z "},"":{"ha":865,"x_min":49,"x_max":810,"o":"m 49 288 q 78 481 49 388 q 174 643 108 575 q 329 711 240 711 q 401 697 369 711 q 449 663 432 683 q 478 623 467 643 q 493 589 489 603 q 499 575 497 575 q 497 674 499 650 q 555 705 525 697 q 638 713 585 713 q 712 710 679 713 q 761 703 744 707 q 788 694 778 699 q 801 689 799 690 l 804 688 q 810 610 810 675 q 804 531 810 543 q 760 513 800 521 q 690 506 719 506 q 660 508 676 506 q 664 438 664 500 q 651 236 664 256 q 675 240 661 240 q 794 228 736 240 q 806 110 806 219 q 801 32 806 49 q 740 3 792 17 q 624 -11 689 -11 q 478 -6 506 -11 q 468 39 468 21 q 472 56 468 50 q 378 14 456 50 q 265 -22 300 -22 q 103 68 158 -22 q 49 288 49 158 m 222 324 q 270 192 222 246 q 371 139 318 139 q 438 154 400 139 q 478 182 475 169 q 485 299 482 246 q 491 381 489 353 q 493 418 493 410 l 493 435 q 455 492 493 464 q 369 521 417 521 q 261 458 300 521 q 222 324 222 394 m 283 931 q 314 1024 283 979 q 369 1035 353 1035 q 424 1024 396 1035 q 453 926 453 979 q 424 824 453 875 q 375 813 401 813 q 314 824 349 813 q 283 931 283 878 m 519 931 q 550 1024 519 979 q 606 1035 589 1035 q 660 1024 632 1035 q 689 926 689 979 q 660 824 689 875 q 611 813 638 813 q 550 824 585 813 q 519 931 519 878 z "},"":{"ha":865,"x_min":49,"x_max":810,"o":"m 49 288 q 78 481 49 388 q 174 643 108 575 q 329 711 240 711 q 401 697 369 711 q 449 663 432 683 q 478 623 467 643 q 493 589 489 603 q 499 575 497 575 q 497 674 499 650 q 555 705 525 697 q 638 713 585 713 q 712 710 679 713 q 761 703 744 707 q 788 694 778 699 q 801 689 799 690 l 804 688 q 810 610 810 675 q 804 531 810 543 q 760 513 800 521 q 690 506 719 506 q 660 508 676 506 q 664 438 664 500 q 651 236 664 256 q 675 240 661 240 q 794 228 736 240 q 806 110 806 219 q 801 32 806 49 q 740 3 792 17 q 624 -11 689 -11 q 478 -6 506 -11 q 468 39 468 21 q 472 56 468 50 q 378 14 456 50 q 265 -22 300 -22 q 103 68 158 -22 q 49 288 49 158 m 222 324 q 270 192 222 246 q 371 139 318 139 q 438 154 400 139 q 478 182 475 169 q 485 299 482 246 q 491 381 489 353 q 493 418 493 410 l 493 435 q 455 492 493 464 q 369 521 417 521 q 261 458 300 521 q 222 324 222 394 m 333 911 q 387 1042 333 981 q 517 1103 440 1103 q 608 1060 579 1103 q 638 953 638 1018 q 593 828 638 871 q 475 785 549 785 q 369 821 406 785 q 333 911 333 857 m 404 921 q 423 870 404 892 q 469 849 442 849 q 538 884 506 849 q 571 963 571 919 q 553 1015 571 993 q 507 1038 536 1038 q 435 999 467 1038 q 404 921 404 960 z "},"":{"ha":1156,"x_min":49,"x_max":1129,"o":"m 49 290 q 78 483 49 390 q 176 644 108 576 q 335 711 243 711 q 402 700 372 711 q 449 673 432 689 q 478 641 467 657 q 494 614 489 625 l 499 603 q 497 674 499 650 q 625 717 550 717 q 740 696 678 717 q 839 708 789 708 q 1008 655 949 708 q 1067 518 1067 601 q 981 347 1067 415 q 792 279 896 279 q 668 315 718 279 q 710 210 668 246 q 817 174 753 174 q 913 199 869 174 q 986 251 957 225 q 1029 276 1015 276 q 1088 230 1056 276 q 1129 126 1119 183 q 1094 56 1125 93 q 1032 0 1064 18 q 982 17 1006 0 q 949 51 958 35 q 782 -14 881 -14 q 675 -1 732 -14 q 563 -12 613 -12 q 464 -6 524 -12 q 454 39 454 21 q 458 56 454 50 q 370 13 438 49 q 256 -22 303 -22 q 103 69 158 -22 q 49 290 49 160 m 199 324 q 246 192 199 246 q 346 139 293 139 q 428 154 376 139 q 482 182 481 169 q 489 300 485 243 q 495 387 493 357 q 497 435 497 417 q 446 491 497 461 q 346 521 394 521 q 238 458 276 521 q 199 324 199 394 m 708 453 q 775 407 708 407 q 871 431 825 407 q 917 489 917 454 q 901 538 917 513 q 850 564 885 564 q 758 529 807 564 q 708 453 708 494 z "},"":{"ha":847,"x_min":44,"x_max":801,"o":"m 44 329 q 74 463 44 397 q 158 585 104 529 q 301 675 213 640 q 496 710 389 710 q 547 708 529 710 l 558 743 q 639 751 600 751 q 788 706 715 751 q 796 604 796 639 q 756 485 796 501 q 681 469 717 469 q 517 496 614 469 l 525 550 q 481 553 497 553 q 305 497 379 553 q 231 335 231 440 q 283 203 231 246 q 407 160 335 160 q 519 178 450 160 l 515 228 q 685 274 585 274 q 750 267 713 274 q 801 119 801 203 q 792 10 801 85 q 631 -37 733 -37 q 567 -35 603 -37 l 551 -12 q 474 -17 511 -17 q 392 -11 444 -17 q 396 -61 394 -61 q 472 -29 433 -29 q 551 -74 522 -29 q 581 -181 581 -119 q 547 -297 581 -247 q 451 -346 513 -346 q 354 -312 404 -346 q 346 -344 354 -342 q 331 -345 340 -344 q 317 -346 321 -346 q 288 -342 303 -346 q 281 -287 281 -311 q 294 -231 281 -253 q 328 -226 311 -226 q 360 -231 343 -226 l 360 -242 q 429 -275 393 -275 q 480 -251 460 -275 q 500 -187 500 -226 q 485 -129 500 -154 q 447 -104 469 -104 q 408 -126 432 -104 q 372 -149 385 -149 q 336 -142 353 -149 q 321 -74 321 -119 q 328 1 321 -33 q 121 127 197 38 q 44 329 44 217 z "},"":{"ha":776,"x_min":44,"x_max":765,"o":"m 44 290 q 158 578 44 447 q 411 708 271 708 q 558 656 497 708 q 619 518 619 603 q 538 349 619 419 q 324 279 457 279 q 217 303 247 279 q 264 197 218 236 q 369 157 310 157 q 496 218 447 157 q 500 242 496 229 q 632 292 561 292 q 653 290 646 292 q 765 126 744 240 q 755 103 764 115 q 736 81 746 90 q 708 60 726 72 q 680 43 690 49 q 649 26 669 38 q 626 14 629 15 q 613 16 618 14 q 602 23 607 18 q 596 30 597 28 q 590 41 594 32 q 585 51 586 50 q 364 -17 482 -17 q 138 68 232 -17 q 44 290 44 153 m 188 1001 q 278 1036 219 1036 q 296 1035 289 1036 q 415 825 358 967 q 394 821 411 821 q 374 825 382 821 q 188 1001 244 904 m 261 453 q 328 407 261 407 q 424 431 378 407 q 469 489 469 454 q 453 538 469 513 q 403 564 438 564 q 310 529 360 564 q 261 453 261 494 z "},"":{"ha":776,"x_min":44,"x_max":765,"o":"m 44 290 q 158 578 44 447 q 411 708 271 708 q 558 656 497 708 q 619 518 619 603 q 538 349 619 419 q 324 279 457 279 q 217 303 247 279 q 264 197 218 236 q 369 157 310 157 q 496 218 447 157 q 500 242 496 229 q 632 292 561 292 q 653 290 646 292 q 765 126 744 240 q 755 103 764 115 q 736 81 746 90 q 708 60 726 72 q 680 43 690 49 q 649 26 669 38 q 626 14 629 15 q 613 16 618 14 q 602 23 607 18 q 596 30 597 28 q 590 41 594 32 q 585 51 586 50 q 364 -17 482 -17 q 138 68 232 -17 q 44 290 44 153 m 261 453 q 328 407 261 407 q 424 431 378 407 q 469 489 469 454 q 453 538 469 513 q 403 564 438 564 q 310 529 360 564 q 261 453 261 494 m 319 826 q 439 1036 376 968 q 476 1039 451 1039 q 589 1003 538 1039 q 480 876 551 938 q 354 815 408 815 q 319 826 335 815 z "},"":{"ha":776,"x_min":44,"x_max":765,"o":"m 44 290 q 158 578 44 447 q 411 708 271 708 q 558 656 497 708 q 619 518 619 603 q 538 349 619 419 q 324 279 457 279 q 217 303 247 279 q 264 197 218 236 q 369 157 310 157 q 496 218 447 157 q 500 242 496 229 q 632 292 561 292 q 653 290 646 292 q 765 126 744 240 q 755 103 764 115 q 736 81 746 90 q 708 60 726 72 q 680 43 690 49 q 649 26 669 38 q 626 14 629 15 q 613 16 618 14 q 602 23 607 18 q 596 30 597 28 q 590 41 594 32 q 585 51 586 50 q 364 -17 482 -17 q 138 68 232 -17 q 44 290 44 153 m 161 768 q 272 905 196 826 q 397 983 349 983 q 524 906 446 983 q 636 768 603 829 q 613 763 624 763 q 586 768 601 763 q 480 835 542 792 q 399 908 418 879 q 312 832 375 879 q 211 768 249 785 q 189 763 194 763 q 161 768 178 763 m 261 453 q 328 407 261 407 q 424 431 378 407 q 469 489 469 454 q 453 538 469 513 q 403 564 438 564 q 310 529 360 564 q 261 453 261 494 z "},"":{"ha":776,"x_min":44,"x_max":765,"o":"m 44 290 q 158 578 44 447 q 411 708 271 708 q 558 656 497 708 q 619 518 619 603 q 538 349 619 419 q 324 279 457 279 q 217 303 247 279 q 264 197 218 236 q 369 157 310 157 q 496 218 447 157 q 500 242 496 229 q 632 292 561 292 q 653 290 646 292 q 765 126 744 240 q 755 103 764 115 q 736 81 746 90 q 708 60 726 72 q 680 43 690 49 q 649 26 669 38 q 626 14 629 15 q 613 16 618 14 q 602 23 607 18 q 596 30 597 28 q 590 41 594 32 q 585 51 586 50 q 364 -17 482 -17 q 138 68 232 -17 q 44 290 44 153 m 196 903 q 226 996 196 951 q 282 1007 265 1007 q 336 996 308 1007 q 365 899 365 951 q 336 796 365 847 q 288 785 314 785 q 226 796 261 785 q 196 903 196 850 m 261 453 q 328 407 261 407 q 424 431 378 407 q 469 489 469 454 q 453 538 469 513 q 403 564 438 564 q 310 529 360 564 q 261 453 261 494 m 432 903 q 463 996 432 951 q 518 1007 501 1007 q 572 996 544 1007 q 601 899 601 951 q 572 796 601 847 q 524 785 550 785 q 463 796 497 785 q 432 903 432 850 z "},"":{"ha":497,"x_min":39,"x_max":451,"o":"m 39 115 q 47 196 39 186 q 89 208 64 206 q 161 211 106 211 q 153 401 153 299 q 167 544 153 514 q 76 550 99 544 q 86 629 78 588 q 103 700 89 647 q 275 710 154 710 q 365 704 324 710 q 427 691 406 699 q 449 676 449 683 q 451 626 451 676 q 436 526 451 556 q 406 518 433 518 q 339 525 353 518 q 324 272 324 428 q 328 206 324 208 q 351 207 336 207 q 432 192 401 207 q 436 167 436 186 q 426 83 436 132 q 399 17 417 35 q 290 0 382 0 q 49 40 72 0 q 39 115 39 58 m 132 1001 q 222 1036 164 1036 q 240 1035 233 1036 q 360 825 303 967 q 339 821 356 821 q 318 825 326 821 q 132 1001 189 904 z "},"":{"ha":497,"x_min":39,"x_max":492,"o":"m 39 115 q 47 196 39 186 q 89 208 64 206 q 161 211 106 211 q 153 401 153 299 q 167 544 153 514 q 76 550 99 544 q 86 629 78 588 q 103 700 89 647 q 275 710 154 710 q 365 704 324 710 q 427 691 406 699 q 449 676 449 683 q 451 626 451 676 q 436 526 451 556 q 406 518 433 518 q 339 525 353 518 q 324 272 324 428 q 328 206 324 208 q 351 207 336 207 q 432 192 401 207 q 436 167 436 186 q 426 83 436 132 q 399 17 417 35 q 290 0 382 0 q 49 40 72 0 q 39 115 39 58 m 222 826 q 342 1036 279 968 q 379 1039 354 1039 q 492 1003 440 1039 q 383 876 454 938 q 257 815 311 815 q 222 826 238 815 z "},"":{"ha":497,"x_min":36,"x_max":511,"o":"m 36 768 q 147 905 71 826 q 272 983 224 983 q 399 906 321 983 q 511 768 478 829 q 488 763 499 763 q 461 768 476 763 q 355 835 417 792 q 274 908 293 879 q 187 832 250 879 q 86 768 124 785 q 64 763 69 763 q 36 768 53 763 m 39 115 q 47 196 39 186 q 89 208 64 206 q 161 211 106 211 q 153 401 153 299 q 167 544 153 514 q 76 550 99 544 q 86 629 78 588 q 103 700 89 647 q 275 710 154 710 q 365 704 324 710 q 427 691 406 699 q 449 676 449 683 q 451 626 451 676 q 436 526 451 556 q 406 518 433 518 q 339 525 353 518 q 324 272 324 428 q 328 206 324 208 q 351 207 336 207 q 432 192 401 207 q 436 167 436 186 q 426 83 436 132 q 399 17 417 35 q 290 0 382 0 q 49 40 72 0 q 39 115 39 58 z "},"":{"ha":497,"x_min":39,"x_max":490,"o":"m 39 115 q 47 196 39 186 q 89 208 64 206 q 161 211 106 211 q 153 401 153 299 q 167 544 153 514 q 76 550 99 544 q 86 629 78 588 q 103 700 89 647 q 275 710 154 710 q 365 704 324 710 q 427 691 406 699 q 449 676 449 683 q 451 626 451 676 q 436 526 451 556 q 406 518 433 518 q 339 525 353 518 q 324 272 324 428 q 328 206 324 208 q 351 207 336 207 q 432 192 401 207 q 436 167 436 186 q 426 83 436 132 q 399 17 417 35 q 290 0 382 0 q 49 40 72 0 q 39 115 39 58 m 85 917 q 115 1010 85 965 q 171 1021 154 1021 q 225 1010 197 1021 q 254 913 254 965 q 225 810 254 861 q 176 799 203 799 q 115 810 150 799 q 85 917 85 864 m 321 917 q 351 1010 321 965 q 407 1021 390 1021 q 461 1010 433 1021 q 490 913 490 965 q 461 810 490 861 q 413 799 439 799 q 351 810 386 799 q 321 917 321 864 z "},"":{"ha":779,"x_min":47,"x_max":728,"o":"m 47 288 q 92 472 47 382 q 226 623 138 563 q 424 683 314 683 q 481 679 451 683 q 427 738 468 704 q 354 781 386 772 q 310 742 343 771 q 258 700 276 714 q 220 715 238 703 q 203 746 203 728 q 203 751 203 749 q 204 756 204 754 q 233 781 213 764 q 264 808 254 797 q 165 824 210 822 q 157 844 157 831 q 165 875 157 860 q 182 893 172 890 q 214 894 193 894 q 329 882 239 894 q 418 964 369 917 q 457 949 442 963 q 472 913 472 935 q 447 881 458 894 q 429 860 435 867 q 647 674 567 801 q 728 385 728 547 q 631 104 728 208 q 363 0 535 0 q 127 82 207 0 q 47 288 47 164 m 222 301 q 260 196 222 240 q 357 151 297 151 q 503 222 436 151 q 571 382 571 292 q 532 493 571 449 q 431 538 493 538 q 283 461 344 538 q 222 301 222 385 z "},"":{"ha":1006,"x_min":46,"x_max":974,"o":"m 46 97 q 83 204 46 183 q 178 217 118 217 q 200 214 186 217 q 197 344 200 254 q 194 479 194 433 q 149 476 189 479 q 101 472 108 472 q 85 475 96 472 q 68 478 74 478 q 63 507 63 483 q 74 601 63 544 q 94 669 85 657 q 242 694 135 694 q 352 685 326 694 q 378 642 378 676 q 371 558 378 600 q 653 708 501 708 q 892 372 892 708 q 883 240 892 304 q 896 243 883 243 q 961 236 917 243 q 974 146 974 222 q 960 28 974 50 q 779 0 856 0 q 654 25 725 0 q 633 74 644 32 q 622 147 622 117 q 647 226 622 193 q 688 236 663 236 q 725 229 707 236 q 726 265 725 233 q 726 306 726 297 q 678 459 726 393 q 558 525 631 525 q 444 474 496 525 q 392 315 392 424 q 396 214 392 276 q 439 224 413 224 q 469 217 464 224 q 483 161 483 217 q 469 47 483 149 q 215 -1 369 -1 q 58 38 89 -1 q 46 97 46 53 m 290 867 q 394 997 304 997 q 502 964 439 997 q 578 931 565 931 q 639 1017 619 931 q 657 1022 650 1022 q 719 971 688 1022 q 615 840 706 840 q 513 874 576 840 q 432 907 449 907 q 371 822 389 907 q 347 815 361 815 q 290 867 315 815 z "},"":{"ha":739,"x_min":49,"x_max":689,"o":"m 49 296 q 151 588 49 468 q 418 708 254 708 q 548 681 493 708 q 633 606 603 654 q 676 502 663 558 q 689 378 689 446 q 591 86 689 186 q 336 -14 493 -14 q 193 15 253 -14 q 103 91 133 43 q 61 189 74 139 q 49 296 49 239 m 247 307 q 290 188 247 238 q 393 138 333 138 q 482 180 444 138 q 533 270 519 222 q 547 360 547 318 q 510 469 547 422 q 415 515 472 515 q 297 449 346 515 q 247 307 247 383 m 254 1001 q 344 1036 286 1036 q 363 1035 356 1036 q 482 825 425 967 q 461 821 478 821 q 440 825 449 821 q 254 1001 311 904 z "},"":{"ha":739,"x_min":49,"x_max":689,"o":"m 49 296 q 151 588 49 468 q 418 708 254 708 q 548 681 493 708 q 633 606 603 654 q 676 502 663 558 q 689 378 689 446 q 591 86 689 186 q 336 -14 493 -14 q 193 15 253 -14 q 103 91 133 43 q 61 189 74 139 q 49 296 49 239 m 247 307 q 290 188 247 238 q 393 138 333 138 q 482 180 444 138 q 533 270 519 222 q 547 360 547 318 q 510 469 547 422 q 415 515 472 515 q 297 449 346 515 q 247 307 247 383 m 358 826 q 478 1036 415 968 q 515 1039 490 1039 q 628 1003 576 1039 q 519 876 590 938 q 393 815 447 815 q 358 826 374 815 z "},"":{"ha":739,"x_min":49,"x_max":689,"o":"m 49 296 q 151 588 49 468 q 418 708 254 708 q 548 681 493 708 q 633 606 603 654 q 676 502 663 558 q 689 378 689 446 q 591 86 689 186 q 336 -14 493 -14 q 193 15 253 -14 q 103 91 133 43 q 61 189 74 139 q 49 296 49 239 m 158 796 q 269 933 193 854 q 394 1011 346 1011 q 522 934 443 1011 q 633 796 600 857 q 610 790 621 790 q 583 796 599 790 q 477 863 539 819 q 396 936 415 907 q 309 860 372 907 q 208 796 246 813 q 186 790 192 790 q 158 796 175 790 m 247 307 q 290 188 247 238 q 393 138 333 138 q 482 180 444 138 q 533 270 519 222 q 547 360 547 318 q 510 469 547 422 q 415 515 472 515 q 297 449 346 515 q 247 307 247 383 z "},"":{"ha":739,"x_min":49,"x_max":689,"o":"m 49 296 q 151 588 49 468 q 418 708 254 708 q 548 681 493 708 q 633 606 603 654 q 676 502 663 558 q 689 378 689 446 q 591 86 689 186 q 336 -14 493 -14 q 193 15 253 -14 q 103 91 133 43 q 61 189 74 139 q 49 296 49 239 m 194 853 q 299 983 208 983 q 406 950 343 983 q 482 917 469 917 q 543 1003 524 917 q 561 1008 554 1008 q 624 957 592 1008 q 519 826 610 826 q 417 860 481 826 q 336 893 353 893 q 275 808 293 893 q 251 801 264 801 q 194 853 219 801 m 247 307 q 290 188 247 238 q 393 138 333 138 q 482 180 444 138 q 533 270 519 222 q 547 360 547 318 q 510 469 547 422 q 415 515 472 515 q 297 449 346 515 q 247 307 247 383 z "},"":{"ha":739,"x_min":49,"x_max":689,"o":"m 49 296 q 151 588 49 468 q 418 708 254 708 q 548 681 493 708 q 633 606 603 654 q 676 502 663 558 q 689 378 689 446 q 591 86 689 186 q 336 -14 493 -14 q 193 15 253 -14 q 103 91 133 43 q 61 189 74 139 q 49 296 49 239 m 207 931 q 238 1024 207 979 q 293 1035 276 1035 q 347 1024 319 1035 q 376 926 376 979 q 347 824 376 875 q 299 813 325 813 q 238 824 272 813 q 207 931 207 878 m 247 307 q 290 188 247 238 q 393 138 333 138 q 482 180 444 138 q 533 270 519 222 q 547 360 547 318 q 510 469 547 422 q 415 515 472 515 q 297 449 346 515 q 247 307 247 383 m 443 931 q 474 1024 443 979 q 529 1035 513 1035 q 583 1024 556 1035 q 613 926 613 979 q 583 824 613 875 q 535 813 561 813 q 474 824 508 813 q 443 931 443 878 z "},"":{"ha":861,"x_min":40,"x_max":822,"o":"m 40 415 q 51 449 40 442 q 515 464 181 464 q 653 461 594 464 q 754 453 713 458 q 810 449 796 449 q 822 418 822 433 q 810 383 822 403 q 669 370 804 375 q 440 365 535 365 q 51 383 318 365 q 40 415 40 396 m 357 194 q 388 288 357 243 q 443 299 426 299 q 497 288 469 299 q 526 190 526 243 q 497 88 526 139 q 449 76 475 76 q 388 88 422 76 q 357 194 357 142 m 357 660 q 388 753 357 708 q 443 764 426 764 q 497 753 469 764 q 526 656 526 708 q 497 553 526 606 q 449 542 475 542 q 388 553 422 542 q 357 660 357 607 z "},"":{"ha":739,"x_min":47,"x_max":688,"o":"m 47 297 q 88 495 47 404 q 217 647 129 586 q 425 708 306 708 q 550 681 492 708 l 576 708 q 617 721 601 721 q 650 694 639 721 l 624 615 q 688 368 688 524 q 588 85 688 183 q 331 -14 489 -14 q 254 -7 292 -14 l 221 -43 q 179 -64 196 -64 q 147 -28 156 -64 q 167 28 153 -8 q 47 297 47 106 m 246 308 q 275 206 246 253 q 447 510 356 379 q 413 515 432 515 q 295 449 344 515 q 246 308 246 382 m 344 146 q 390 138 365 138 q 481 179 443 138 q 532 269 518 221 q 546 360 546 318 q 521 450 546 411 q 344 146 450 297 z "},"":{"ha":1007,"x_min":32,"x_max":960,"o":"m 32 549 q 46 667 32 644 q 226 694 150 694 q 351 669 281 694 q 372 620 361 663 q 383 547 383 578 q 358 468 383 501 q 318 458 343 458 q 281 465 299 458 q 280 429 281 461 q 279 389 279 397 q 327 235 279 301 q 447 169 375 169 q 562 220 510 169 q 614 379 614 271 q 610 481 614 418 q 567 471 593 471 q 536 478 542 471 q 522 533 522 478 q 536 647 522 546 q 794 696 636 696 q 947 656 914 696 q 960 597 960 639 q 922 490 960 511 q 839 478 872 478 q 806 481 819 478 q 808 351 806 440 q 811 215 811 261 q 857 219 817 215 q 904 222 897 222 q 921 219 910 222 q 938 217 932 217 q 943 188 943 211 q 932 94 943 150 q 911 25 921 38 q 753 0 869 0 q 653 10 678 0 q 628 53 628 19 q 635 136 628 94 q 353 -14 504 -14 q 114 322 114 -14 q 122 453 114 389 q 110 451 121 451 q 44 458 89 451 q 32 549 32 472 m 289 1001 q 379 1036 319 1036 q 397 1035 390 1036 q 517 825 460 967 q 496 821 513 821 q 475 825 483 821 q 289 1001 346 904 z "},"":{"ha":1007,"x_min":32,"x_max":960,"o":"m 32 549 q 46 667 32 644 q 226 694 150 694 q 351 669 281 694 q 372 620 361 663 q 383 547 383 578 q 358 468 383 501 q 318 458 343 458 q 281 465 299 458 q 280 429 281 461 q 279 389 279 397 q 327 235 279 301 q 447 169 375 169 q 562 220 510 169 q 614 379 614 271 q 610 481 614 418 q 567 471 593 471 q 536 478 542 471 q 522 533 522 478 q 536 647 522 546 q 794 696 636 696 q 947 656 914 696 q 960 597 960 639 q 922 490 960 511 q 839 478 872 478 q 806 481 819 478 q 808 351 806 440 q 811 215 811 261 q 857 219 817 215 q 904 222 897 222 q 921 219 910 222 q 938 217 932 217 q 943 188 943 211 q 932 94 943 150 q 911 25 921 38 q 753 0 869 0 q 653 10 678 0 q 628 53 628 19 q 635 136 628 94 q 353 -14 504 -14 q 114 322 114 -14 q 122 453 114 389 q 110 451 121 451 q 44 458 89 451 q 32 549 32 472 m 365 826 q 485 1036 422 968 q 522 1039 497 1039 q 635 1003 583 1039 q 526 876 597 938 q 400 815 454 815 q 365 826 381 815 z "},"":{"ha":1007,"x_min":32,"x_max":960,"o":"m 32 549 q 46 667 32 644 q 226 694 150 694 q 351 669 281 694 q 372 620 361 663 q 383 547 383 578 q 358 468 383 501 q 318 458 343 458 q 281 465 299 458 q 280 429 281 461 q 279 389 279 397 q 327 235 279 301 q 447 169 375 169 q 562 220 510 169 q 614 379 614 271 q 610 481 614 418 q 567 471 593 471 q 536 478 542 471 q 522 533 522 478 q 536 647 522 546 q 794 696 636 696 q 947 656 914 696 q 960 597 960 639 q 922 490 960 511 q 839 478 872 478 q 806 481 819 478 q 808 351 806 440 q 811 215 811 261 q 857 219 817 215 q 904 222 897 222 q 921 219 910 222 q 938 217 932 217 q 943 188 943 211 q 932 94 943 150 q 911 25 921 38 q 753 0 869 0 q 653 10 678 0 q 628 53 628 19 q 635 136 628 94 q 353 -14 504 -14 q 114 322 114 -14 q 122 453 114 389 q 110 451 121 451 q 44 458 89 451 q 32 549 32 472 m 235 796 q 346 933 269 854 q 471 1011 422 1011 q 598 934 519 1011 q 710 796 676 857 q 686 790 697 790 q 660 796 675 790 q 553 863 615 819 q 472 936 492 907 q 385 860 449 907 q 285 796 322 813 q 263 790 268 790 q 235 796 251 790 z "},"":{"ha":1007,"x_min":32,"x_max":960,"o":"m 32 549 q 46 667 32 644 q 226 694 150 694 q 351 669 281 694 q 372 620 361 663 q 383 547 383 578 q 358 468 383 501 q 318 458 343 458 q 281 465 299 458 q 280 429 281 461 q 279 389 279 397 q 327 235 279 301 q 447 169 375 169 q 562 220 510 169 q 614 379 614 271 q 610 481 614 418 q 567 471 593 471 q 536 478 542 471 q 522 533 522 478 q 536 647 522 546 q 794 696 636 696 q 947 656 914 696 q 960 597 960 639 q 922 490 960 511 q 839 478 872 478 q 806 481 819 478 q 808 351 806 440 q 811 215 811 261 q 857 219 817 215 q 904 222 897 222 q 921 219 910 222 q 938 217 932 217 q 943 188 943 211 q 932 94 943 150 q 911 25 921 38 q 753 0 869 0 q 653 10 678 0 q 628 53 628 19 q 635 136 628 94 q 353 -14 504 -14 q 114 322 114 -14 q 122 453 114 389 q 110 451 121 451 q 44 458 89 451 q 32 549 32 472 m 242 889 q 272 982 242 938 q 328 993 311 993 q 382 982 354 993 q 411 885 411 938 q 382 782 411 833 q 333 771 360 771 q 272 782 307 771 q 242 889 242 836 m 478 889 q 508 982 478 938 q 564 993 547 993 q 618 982 590 993 q 647 885 647 938 q 618 782 647 833 q 569 771 596 771 q 508 782 543 771 q 478 889 478 836 z "},"":{"ha":992,"x_min":3,"x_max":961,"o":"m 3 -276 q 19 -144 3 -215 q 57 -47 35 -72 q 97 -39 75 -39 q 200 -72 151 -39 q 206 -90 206 -76 q 201 -115 206 -99 q 301 -167 254 -154 q 421 -179 347 -179 q 513 -173 475 -179 q 591 -149 551 -167 q 651 -92 631 -132 q 672 10 672 -51 q 663 97 672 61 q 415 -1 544 -1 q 196 108 279 -1 q 113 385 113 217 q 121 467 113 431 q 101 463 113 463 q 68 467 90 463 q 43 472 46 472 q 25 569 25 510 q 44 667 25 633 q 222 693 153 693 q 374 669 307 693 q 407 568 407 628 q 381 482 407 517 q 351 474 367 474 q 318 481 339 474 q 301 376 301 431 q 449 192 301 192 q 596 253 535 192 q 657 407 657 314 q 646 481 657 440 q 596 469 626 469 q 572 478 578 469 q 549 561 549 493 q 572 647 549 632 q 736 696 603 696 q 866 685 800 696 q 956 663 932 674 q 961 593 961 626 q 944 510 961 532 q 914 497 932 497 q 895 499 904 497 q 875 506 886 501 q 860 511 864 510 q 868 244 868 278 q 851 -4 868 100 q 801 -174 833 -108 q 717 -279 769 -240 q 606 -333 665 -318 q 463 -347 546 -347 q 174 -282 303 -347 q 158 -328 161 -328 q 89 -347 135 -347 q 35 -340 61 -347 q 7 -324 10 -332 q 3 -276 3 -306 m 418 826 q 538 1036 475 968 q 575 1039 550 1039 q 688 1003 636 1039 q 578 876 650 938 q 453 815 507 815 q 418 826 433 815 z "},"":{"ha":814,"x_min":-28,"x_max":765,"o":"m -8 -272 q -28 -211 -28 -251 q -8 -143 -28 -171 q 23 -125 -1 -132 q 69 -118 47 -118 q 92 -119 86 -118 q 90 10 92 -94 q 89 236 89 115 q 91 493 89 382 q 95 650 93 604 q 100 743 97 696 q 103 799 103 790 q 79 797 99 797 q 4 807 47 797 q -22 907 -22 842 q -3 1003 -22 961 q 81 1039 26 1025 q 188 1053 135 1053 q 264 1040 235 1053 q 271 922 271 1014 q 269 632 271 633 q 378 691 333 674 q 475 708 422 708 q 688 613 611 708 q 765 383 765 517 q 674 131 765 239 q 415 24 582 24 q 271 46 347 24 q 276 -25 276 19 q 265 -119 276 -87 q 301 -118 271 -118 q 371 -143 356 -118 q 379 -210 379 -172 q 371 -272 379 -243 q 175 -306 335 -306 q -8 -272 31 -306 m 272 310 q 306 210 272 244 q 390 175 339 175 q 533 239 464 175 q 601 390 601 303 q 567 493 601 450 q 474 536 532 536 q 335 469 399 536 q 272 310 272 401 z "},"":{"ha":992,"x_min":3,"x_max":961,"o":"m 3 -276 q 19 -144 3 -215 q 57 -47 35 -72 q 97 -39 75 -39 q 200 -72 151 -39 q 206 -90 206 -76 q 201 -115 206 -99 q 301 -167 254 -154 q 421 -179 347 -179 q 513 -173 475 -179 q 591 -149 551 -167 q 651 -92 631 -132 q 672 10 672 -51 q 663 97 672 61 q 415 -1 544 -1 q 196 108 279 -1 q 113 385 113 217 q 121 467 113 431 q 101 463 113 463 q 68 467 90 463 q 43 472 46 472 q 25 569 25 510 q 44 667 25 633 q 222 693 153 693 q 374 669 307 693 q 407 568 407 628 q 381 482 407 517 q 351 474 367 474 q 318 481 339 474 q 301 376 301 431 q 449 192 301 192 q 596 253 535 192 q 657 407 657 314 q 646 481 657 440 q 596 469 626 469 q 572 478 578 469 q 549 561 549 493 q 572 647 549 632 q 736 696 603 696 q 866 685 800 696 q 956 663 932 674 q 961 593 961 626 q 944 510 961 532 q 914 497 932 497 q 895 499 904 497 q 875 506 886 501 q 860 511 864 510 q 868 244 868 278 q 851 -4 868 100 q 801 -174 833 -108 q 717 -279 769 -240 q 606 -333 665 -318 q 463 -347 546 -347 q 174 -282 303 -347 q 158 -328 161 -328 q 89 -347 135 -347 q 35 -340 61 -347 q 7 -324 10 -332 q 3 -276 3 -306 m 281 917 q 311 1010 281 965 q 367 1021 350 1021 q 421 1010 393 1021 q 450 913 450 965 q 421 810 450 861 q 372 799 399 799 q 311 810 346 799 q 281 917 281 864 m 517 917 q 547 1010 517 965 q 603 1021 586 1021 q 657 1010 629 1021 q 686 913 686 965 q 657 810 686 861 q 608 799 635 799 q 547 810 582 799 q 517 917 517 864 z "},"":{"ha":1276,"x_min":57,"x_max":1226,"o":"m 57 415 q 84 593 57 507 q 168 760 111 679 q 326 898 225 840 q 563 974 428 956 q 872 989 758 989 q 1213 936 1057 989 q 1226 829 1226 867 q 1194 722 1226 764 q 1135 714 1158 714 q 1021 760 1090 714 l 1025 806 q 928 825 1001 825 q 776 811 860 825 q 782 738 782 761 q 764 568 782 614 q 832 572 831 568 q 831 585 831 576 q 843 622 831 600 q 889 629 851 629 q 969 619 947 629 q 997 488 997 574 q 968 381 997 410 q 901 371 957 371 q 840 381 851 371 q 828 422 828 392 l 757 415 q 742 188 757 333 q 926 147 831 147 q 1025 172 990 147 l 1021 218 q 1136 264 1089 264 q 1194 256 1161 264 q 1226 149 1226 214 q 1213 42 1226 111 q 1085 -5 1154 8 q 904 -18 1017 -18 q 524 18 668 -18 q 453 6 494 6 q 371 15 415 6 q 269 52 326 24 q 165 123 211 81 q 88 242 119 165 q 57 415 57 318 m 236 464 q 301 277 236 351 q 464 203 365 203 q 531 213 497 203 q 525 367 525 274 q 564 783 525 589 q 325 689 414 783 q 236 464 236 594 z "},"":{"ha":1240,"x_min":44,"x_max":1219,"o":"m 44 258 q 97 465 44 361 q 242 638 149 568 q 442 707 336 707 q 663 597 568 707 q 931 708 774 708 q 1098 655 1039 708 q 1157 518 1157 601 q 1072 347 1157 415 q 882 279 986 279 q 758 315 808 279 q 758 308 758 313 q 757 296 757 303 q 805 181 757 226 q 910 135 853 135 q 964 149 942 135 q 968 172 964 160 q 1100 222 1029 222 q 1121 221 1114 222 q 1189 165 1168 194 q 1219 85 1210 136 q 1209 61 1218 74 q 1190 40 1200 49 q 1163 19 1181 31 q 1134 1 1144 7 q 1103 -15 1124 -4 q 1081 -28 1083 -26 q 1067 -26 1072 -28 q 1056 -19 1061 -24 q 1050 -12 1051 -14 q 1044 -1 1049 -10 q 1039 10 1040 8 q 893 -18 958 -18 q 746 22 808 -18 q 649 132 683 63 q 513 26 597 64 q 338 -11 428 -11 q 130 58 215 -11 q 44 258 44 128 m 210 299 q 249 189 210 235 q 356 143 288 143 q 510 222 444 143 q 575 388 575 301 q 534 499 575 453 q 428 546 493 546 q 274 465 339 546 q 210 299 210 385 m 799 453 q 865 407 799 407 q 961 431 915 407 q 1007 489 1007 454 q 991 538 1007 513 q 940 564 975 564 q 848 529 897 564 q 799 453 799 494 z "},"":{"ha":872,"x_min":57,"x_max":818,"o":"m 57 140 q 83 257 57 208 q 163 276 144 276 q 264 257 196 276 q 274 204 271 239 q 424 160 340 160 q 558 205 500 160 q 615 306 615 250 q 463 390 615 385 q 361 398 404 393 q 259 419 318 403 q 163 461 200 435 q 98 535 125 488 q 71 649 71 583 q 172 887 71 788 q 415 986 274 986 q 604 936 514 986 q 633 994 613 978 q 700 1008 660 1008 q 789 983 764 1008 q 797 858 797 958 q 785 764 797 792 q 740 729 774 736 q 694 722 717 722 q 613 743 644 722 q 604 789 604 764 q 467 813 557 813 q 318 781 369 813 q 267 676 267 750 q 298 598 267 622 q 399 571 329 574 q 667 539 596 561 q 818 339 818 493 q 710 90 818 193 q 432 -14 601 -14 q 265 38 336 -14 q 251 -14 265 3 q 169 -28 226 -28 q 86 -7 108 -28 q 57 140 57 49 m 247 1200 q 275 1206 264 1206 q 297 1200 281 1206 q 443 1101 401 1154 q 464 1125 451 1114 q 495 1148 476 1136 q 524 1166 514 1160 q 560 1185 535 1172 q 589 1200 585 1197 q 615 1206 604 1206 q 639 1200 626 1206 q 548 1082 606 1138 q 439 1026 490 1026 q 337 1085 393 1026 q 247 1200 281 1143 z "},"":{"ha":772,"x_min":40,"x_max":731,"o":"m 40 42 q 139 240 49 186 q 168 242 149 242 q 281 193 242 242 q 281 188 281 192 q 282 183 282 185 q 279 168 282 179 q 324 134 292 147 q 394 121 357 121 q 478 146 447 121 q 510 206 510 171 q 397 279 510 274 q 328 283 354 281 q 256 293 301 286 q 182 314 211 300 q 123 349 153 328 q 78 404 93 369 q 63 485 63 439 q 148 649 63 593 q 360 704 233 704 q 549 679 471 704 q 572 707 557 693 q 594 724 586 721 q 731 654 697 714 q 632 456 722 510 q 603 454 622 454 q 490 503 529 454 q 490 508 490 504 q 489 513 489 511 q 492 528 489 517 q 437 558 476 546 q 356 571 397 571 q 249 500 249 571 q 400 411 249 417 q 468 408 443 410 q 535 399 493 406 q 604 380 578 393 q 658 346 631 367 q 698 291 685 325 q 711 211 711 257 q 389 -8 711 -8 q 208 17 281 -8 q 176 -28 186 -25 q 40 42 74 -18 m 225 936 q 253 942 242 942 q 275 936 258 942 q 421 838 379 890 q 442 861 429 850 q 473 884 454 872 q 502 902 492 896 q 538 921 513 908 q 567 936 563 933 q 593 942 582 942 q 617 936 604 942 q 526 819 583 875 q 421 763 468 763 q 315 820 371 763 q 225 936 260 878 z "},"":{"ha":947,"x_min":6,"x_max":942,"o":"m 6 840 q 110 917 29 875 q 299 975 192 958 q 353 861 353 890 q 318 838 353 854 q 275 825 293 825 q 355 714 283 799 q 481 572 426 629 q 589 694 515 593 q 672 825 663 794 q 629 838 656 825 q 594 860 596 853 q 619 921 596 871 q 649 975 643 971 q 942 840 810 975 q 903 721 925 747 q 844 742 876 726 q 816 697 839 733 q 776 639 793 661 q 731 583 760 617 q 667 518 703 549 q 589 460 631 488 q 578 308 582 428 q 572 168 575 189 q 643 149 607 168 q 649 119 649 143 q 642 57 649 93 q 631 11 635 21 q 467 -1 621 -1 q 394 -1 417 -1 q 345 1 372 0 q 306 8 318 3 q 288 21 293 13 q 282 90 282 35 q 293 151 282 140 q 374 168 328 168 q 372 251 374 183 q 367 376 369 319 q 360 460 364 432 q 194 613 276 514 q 103 742 111 713 q 44 721 71 726 q 6 840 17 775 m 267 1125 q 297 1218 267 1174 q 353 1229 336 1229 q 407 1218 379 1229 q 436 1121 436 1174 q 407 1018 436 1069 q 358 1007 385 1007 q 297 1018 332 1007 q 267 1125 267 1072 m 503 1125 q 533 1218 503 1174 q 589 1229 572 1229 q 643 1218 615 1229 q 672 1121 672 1174 q 643 1018 672 1069 q 594 1007 621 1007 q 533 1018 568 1007 q 503 1125 503 1072 z "},"":{"ha":1038,"x_min":32,"x_max":986,"o":"m 32 4 q 85 192 32 100 q 224 358 139 283 q 399 499 310 433 q 575 636 488 565 q 703 765 663 707 q 654 762 700 764 q 545 758 608 760 q 444 756 482 756 q 321 749 335 756 q 303 692 307 699 q 200 681 243 681 q 110 693 154 681 q 85 856 85 743 q 110 968 85 933 q 226 975 140 975 q 350 961 335 975 q 353 946 353 950 q 350 933 353 944 q 581 939 492 939 q 732 935 678 939 q 744 964 736 960 q 876 978 750 978 q 972 972 965 978 q 901 733 968 849 q 744 537 835 618 q 563 389 653 456 q 410 272 472 322 q 347 194 347 222 q 468 182 394 182 q 736 214 651 182 q 754 282 736 269 q 864 294 786 294 q 951 282 931 294 q 976 223 967 274 q 986 111 986 172 q 950 -26 986 -22 q 839 -33 913 -33 q 719 -18 735 -33 q 707 40 713 -17 q 436 -1 581 -1 q 272 7 389 -1 q 261 -18 271 -15 q 132 -33 256 -33 q 33 -28 44 -33 q 32 4 32 -17 m 349 1200 q 376 1206 365 1206 q 399 1200 382 1206 q 477 1158 431 1188 q 544 1101 524 1129 q 565 1125 553 1114 q 597 1148 578 1136 q 626 1166 615 1160 q 661 1185 636 1172 q 690 1200 686 1197 q 717 1206 706 1206 q 740 1200 728 1206 q 649 1083 707 1139 q 544 1026 592 1026 q 439 1084 494 1026 q 349 1200 383 1142 z "},"":{"ha":868,"x_min":26,"x_max":815,"o":"m 26 40 q 135 199 26 96 q 353 382 243 303 q 546 511 464 461 q 446 549 510 549 q 253 492 369 549 q 257 458 257 479 q 253 439 257 444 q 176 428 215 428 q 90 449 122 428 q 67 549 67 457 q 70 616 67 583 q 79 669 74 649 q 90 689 85 690 q 158 693 103 693 q 265 682 260 693 q 275 651 274 681 q 510 694 390 694 q 682 670 603 694 q 808 611 761 646 q 731 490 785 553 q 610 374 676 428 q 488 280 543 319 q 378 206 432 240 q 322 171 324 172 q 408 156 353 156 q 534 175 472 156 q 624 229 596 194 q 622 244 622 235 q 638 292 622 264 q 715 303 664 303 q 789 292 764 303 q 810 265 804 281 q 815 206 815 249 q 806 74 815 140 q 786 4 797 8 q 701 -1 758 -1 q 611 11 619 -1 q 601 56 604 13 q 464 14 565 28 q 271 0 363 0 q 26 40 99 0 m 251 922 q 279 928 268 928 q 301 922 285 928 q 447 824 406 876 q 468 847 456 836 q 499 870 481 858 q 528 888 518 882 q 564 907 539 894 q 593 922 589 919 q 619 928 608 928 q 643 922 631 928 q 552 805 610 861 q 447 749 494 749 q 342 806 397 749 q 251 922 286 864 z "},"":{"ha":501,"x_min":36,"x_max":575,"o":"m 36 401 q 54 531 36 507 q 136 549 75 542 q 134 674 136 601 q 132 751 132 747 q 354 911 132 911 q 557 876 460 911 q 575 789 575 853 q 561 694 575 735 l 433 724 l 442 753 q 417 754 433 754 q 306 644 306 754 q 306 597 306 636 q 307 553 307 558 q 357 553 326 553 q 400 554 388 554 q 472 549 440 554 q 478 514 478 543 q 460 385 478 408 q 317 365 435 369 q 320 83 318 218 q 324 -129 322 -51 q 325 -236 325 -207 q 219 -240 279 -240 q 57 -218 83 -240 q 43 -169 43 -199 q 83 -46 43 -69 q 124 -33 104 -33 q 142 -36 128 -33 q 138 363 138 239 q 131 362 136 363 q 117 361 126 361 l 100 361 q 42 367 81 361 q 36 401 36 372 z "},"":{"ha":1157,"x_min":197,"x_max":672,"o":"m 197 768 q 308 905 232 826 q 433 983 385 983 q 560 906 482 983 q 672 768 639 829 q 649 763 660 763 q 622 768 638 763 q 516 835 578 792 q 435 908 454 879 q 348 832 411 879 q 247 768 285 785 q 225 763 231 763 q 197 768 214 763 z "},"":{"ha":1157,"x_min":217,"x_max":646,"o":"m 217 756 q 321 886 231 886 q 428 853 365 886 q 504 819 492 819 q 565 906 546 819 q 583 911 576 911 q 646 860 614 911 q 542 729 632 729 q 439 763 503 729 q 358 796 375 796 q 297 711 315 796 q 274 704 286 704 q 217 756 242 704 z "},"":{"ha":682,"x_min":75,"x_max":608,"o":"m 75 385 q 81 414 75 401 q 382 429 194 429 q 603 414 532 429 q 608 381 608 399 q 603 349 608 360 q 360 331 535 331 q 81 350 242 331 q 75 385 75 358 z "},"":{"ha":907,"x_min":76,"x_max":832,"o":"m 76 385 q 82 414 76 401 q 522 429 214 429 q 667 426 606 429 q 771 419 728 424 q 826 414 814 414 q 832 381 832 399 q 826 349 832 360 q 776 343 815 349 q 678 334 736 338 q 544 331 621 331 q 258 337 426 331 q 82 350 90 343 q 76 385 76 358 z "},"":{"ha":299,"x_min":33,"x_max":249,"o":"m 33 560 q 85 707 49 640 q 185 850 122 774 q 249 878 213 878 q 237 724 247 789 q 194 585 226 660 q 94 551 132 551 q 33 560 71 551 z "},"":{"ha":297,"x_min":57,"x_max":272,"o":"m 57 551 q 69 705 58 640 q 111 844 79 769 q 211 878 174 878 q 272 869 235 878 q 220 722 257 789 q 121 579 183 656 q 57 551 93 551 z "},"":{"ha":292,"x_min":26,"x_max":242,"o":"m 26 -143 q 38 10 28 -54 q 81 150 49 75 q 181 183 143 183 q 242 175 204 183 q 190 28 226 94 q 90 -115 153 -39 q 26 -143 63 -143 z "},"":{"ha":535,"x_min":33,"x_max":485,"o":"m 33 560 q 85 707 49 640 q 185 850 122 774 q 249 878 213 878 q 237 724 247 789 q 194 585 226 660 q 94 551 132 551 q 33 560 71 551 m 269 560 q 322 707 285 640 q 421 850 358 774 q 485 878 449 878 q 473 724 483 789 q 431 585 463 660 q 331 551 368 551 q 269 560 307 551 z "},"":{"ha":533,"x_min":57,"x_max":508,"o":"m 57 551 q 69 705 58 640 q 111 844 79 769 q 211 878 174 878 q 272 869 235 878 q 220 722 257 789 q 121 579 183 656 q 57 551 93 551 m 293 551 q 305 705 294 640 q 347 844 315 769 q 447 878 410 878 q 508 869 471 878 q 456 722 493 789 q 357 579 419 656 q 293 551 329 551 z "},"":{"ha":528,"x_min":26,"x_max":478,"o":"m 26 -143 q 38 10 28 -54 q 81 150 49 75 q 181 183 143 183 q 242 175 204 183 q 190 28 226 94 q 90 -115 153 -39 q 26 -143 63 -143 m 263 -143 q 274 10 264 -54 q 317 150 285 75 q 417 183 379 183 q 478 175 440 183 q 426 28 463 94 q 326 -115 389 -39 q 263 -143 299 -143 z "},"":{"ha":456,"x_min":51,"x_max":404,"o":"m 51 385 q 57 414 51 401 q 178 426 115 422 q 207 985 178 728 q 249 1003 217 1000 q 276 429 276 733 q 399 414 332 428 q 404 381 404 399 q 399 349 404 360 q 275 331 349 333 q 249 -240 271 69 q 207 -258 243 -256 q 178 333 182 39 q 57 350 69 333 q 51 385 51 358 z "},"":{"ha":664,"x_min":38,"x_max":626,"o":"m 38 381 q 43 414 38 401 q 282 428 140 425 q 283 561 282 517 q 46 581 61 569 q 38 610 38 586 q 43 643 38 631 q 286 657 143 654 q 311 985 293 822 q 353 1003 322 1000 q 376 658 371 818 q 621 643 561 654 q 626 610 626 628 q 621 578 626 589 q 379 560 574 564 q 381 429 381 518 q 621 414 560 425 q 626 381 626 399 q 621 349 626 360 q 379 331 574 335 q 353 -240 375 69 q 311 -258 347 -256 q 282 332 286 38 q 46 351 63 339 q 38 381 38 357 z "},"":{"ha":488,"x_min":61,"x_max":425,"o":"m 61 444 q 108 594 61 519 q 242 639 176 639 q 379 594 306 639 q 425 436 425 518 q 379 269 425 356 q 236 217 300 217 q 108 269 171 217 q 61 444 61 367 z "},"":{"ha":2592,"x_min":54,"x_max":2538,"o":"m 54 111 q 85 204 54 160 q 140 215 124 215 q 194 204 167 215 q 224 107 224 160 q 194 4 224 56 q 146 -7 172 -7 q 85 4 119 -7 q 54 111 54 58 m 1211 111 q 1242 204 1211 160 q 1297 215 1281 215 q 1351 204 1324 215 q 1381 107 1381 160 q 1351 4 1381 56 q 1303 -7 1329 -7 q 1242 4 1276 -7 q 1211 111 1211 58 m 2368 111 q 2399 204 2368 160 q 2454 215 2438 215 q 2508 204 2481 215 q 2538 107 2538 160 q 2508 4 2538 56 q 2460 -7 2486 -7 q 2399 4 2433 -7 q 2368 111 2368 58 z "},"":{"ha":1726,"x_min":42,"x_max":1686,"o":"m 106 472 q 74 510 106 472 q 42 674 42 547 q 106 875 42 800 q 268 950 171 950 q 430 875 365 950 q 494 674 494 800 q 430 472 494 547 q 268 397 365 397 q 106 472 171 397 m 189 799 q 175 775 189 799 q 161 675 161 751 q 190 549 161 599 q 274 499 218 499 q 355 547 328 499 q 382 674 382 596 q 354 799 382 751 q 272 847 326 847 q 189 799 217 847 m 265 15 q 402 270 317 94 q 536 521 488 446 q 697 733 583 596 q 861 950 811 871 q 892 956 883 956 q 943 926 919 956 q 810 679 892 849 q 679 432 729 510 q 513 213 631 356 q 346 -8 396 71 q 313 -15 325 -15 q 265 15 286 -15 m 784 64 q 752 101 784 64 q 719 265 719 139 q 784 467 719 392 q 946 542 849 542 q 1108 467 1043 542 q 1172 265 1172 392 q 1108 64 1172 139 q 946 -11 1043 -11 q 784 64 849 -11 m 864 383 q 850 359 864 383 q 836 258 836 335 q 865 132 836 182 q 949 82 893 82 q 1030 131 1003 82 q 1057 257 1057 179 q 1029 383 1057 335 q 947 431 1001 431 q 864 383 892 431 m 1298 64 q 1266 101 1298 64 q 1233 265 1233 139 q 1298 467 1233 392 q 1460 542 1363 542 q 1622 467 1557 542 q 1686 265 1686 392 q 1622 64 1686 139 q 1460 -11 1557 -11 q 1298 64 1363 -11 m 1378 383 q 1364 359 1378 383 q 1350 258 1350 335 q 1378 132 1350 182 q 1463 82 1407 82 q 1544 131 1517 82 q 1571 257 1571 179 q 1543 383 1571 335 q 1461 431 1515 431 q 1378 383 1406 431 z "},"":{"ha":382,"x_min":40,"x_max":336,"o":"m 40 332 q 264 663 138 538 q 310 685 286 685 q 336 663 329 685 q 133 332 318 474 q 328 15 293 228 q 288 -15 311 -15 q 268 -7 276 -15 q 40 332 115 129 z "},"":{"ha":385,"x_min":47,"x_max":343,"o":"m 47 663 q 74 685 54 685 q 119 663 97 685 q 343 332 246 538 q 236 131 311 238 q 117 -7 161 25 q 96 -15 106 -15 q 56 15 72 -15 q 250 332 90 228 q 47 663 65 474 z "},"":{"ha":1038,"x_min":40,"x_max":965,"o":"m 40 415 q 50 438 40 422 l 138 446 q 142 550 138 504 q 50 563 57 556 q 40 590 40 585 q 50 613 40 597 q 153 621 75 615 q 292 888 190 793 q 536 982 393 982 q 731 921 668 982 q 760 972 733 963 q 844 988 794 988 q 947 960 910 988 q 953 912 949 944 q 961 853 958 879 q 964 804 964 826 q 914 674 964 718 q 818 642 885 642 q 714 674 749 642 q 713 686 713 676 q 717 708 713 703 q 640 788 693 760 q 544 815 588 815 q 436 763 489 815 q 353 626 383 711 q 531 613 478 624 q 539 583 539 596 q 531 561 539 575 q 332 543 468 543 q 326 453 326 510 q 531 438 475 449 q 539 408 539 421 q 531 386 539 400 q 340 368 482 371 q 420 240 364 288 q 540 192 476 192 q 636 211 583 192 q 714 265 689 231 q 710 293 710 290 q 710 299 710 296 q 711 303 711 301 q 801 326 763 326 q 915 299 840 326 q 965 169 965 254 q 962 120 965 147 q 953 61 958 93 q 947 13 949 29 q 836 -22 904 -22 q 760 0 786 -22 q 731 54 731 11 q 544 -8 639 -8 q 284 99 400 -8 q 143 375 168 207 q 50 388 57 381 q 40 415 40 410 z "},"":{"ha":1197,"x_min":72,"x_max":1119,"o":"m 72 776 q 82 857 72 828 q 317 867 221 867 q 546 857 413 867 q 553 781 553 836 q 549 731 553 744 q 497 724 528 724 q 446 733 464 724 l 435 774 q 363 783 424 783 q 367 650 367 767 q 353 508 367 515 q 393 500 371 508 q 399 461 399 489 q 393 425 399 436 q 313 404 372 404 q 232 425 253 404 q 229 474 229 442 q 232 500 229 497 q 240 501 235 500 q 257 506 244 503 q 274 508 268 508 q 260 653 260 563 q 263 722 260 679 q 267 783 267 765 q 190 774 197 781 l 179 733 q 131 724 163 724 q 76 731 97 724 q 72 776 72 744 m 579 476 q 586 500 579 493 q 625 508 611 508 q 617 633 617 571 q 625 754 617 694 q 586 760 596 754 q 581 815 581 782 q 586 849 581 838 q 676 868 601 868 q 753 861 732 868 q 765 761 765 824 q 742 756 754 756 q 793 707 758 736 q 846 667 828 678 q 900 708 865 679 q 949 756 935 738 q 942 756 947 756 q 935 758 938 757 q 931 760 932 758 q 925 815 925 782 q 931 849 925 838 q 1035 872 974 872 q 1097 861 1074 872 q 1111 761 1111 810 q 1067 756 1096 756 q 1075 643 1075 706 q 1071 564 1075 614 q 1067 504 1067 514 q 1079 506 1071 506 q 1111 499 1097 506 q 1119 463 1119 478 q 1097 414 1119 439 q 1011 403 1072 403 q 931 425 953 403 q 921 468 921 439 q 931 500 921 490 q 967 508 960 508 q 961 657 961 594 q 902 611 949 646 q 846 567 856 576 q 788 612 833 576 q 729 657 742 647 q 722 504 726 571 q 735 506 726 506 q 765 499 751 506 q 767 478 767 492 q 753 414 767 446 q 694 406 719 406 q 586 425 600 406 q 583 445 586 426 q 579 476 579 464 z "},"":{"ha":694,"x_min":0,"x_max":694,"o":"m 0 694 l 694 694 l 694 0 l 0 0 l 0 694 z "}}}
